G04 #@! TF.GenerationSoftware,KiCad,Pcbnew,9.0.0*
G04 #@! TF.CreationDate,2025-03-03T16:58:55-06:00*
G04 #@! TF.ProjectId,Group52HeatedBridge,47726f75-7035-4324-9865-617465644272,rev?*
G04 #@! TF.SameCoordinates,Original*
G04 #@! TF.FileFunction,Copper,L1,Top*
G04 #@! TF.FilePolarity,Positive*
%FSLAX46Y46*%
G04 Gerber Fmt 4.6, Leading zero omitted, Abs format (unit mm)*
G04 Created by KiCad (PCBNEW 9.0.0) date 2025-03-03 16:58:55*
%MOMM*%
%LPD*%
G01*
G04 APERTURE LIST*
G04 Aperture macros list*
%AMRoundRect*
0 Rectangle with rounded corners*
0 $1 Rounding radius*
0 $2 $3 $4 $5 $6 $7 $8 $9 X,Y pos of 4 corners*
0 Add a 4 corners polygon primitive as box body*
4,1,4,$2,$3,$4,$5,$6,$7,$8,$9,$2,$3,0*
0 Add four circle primitives for the rounded corners*
1,1,$1+$1,$2,$3*
1,1,$1+$1,$4,$5*
1,1,$1+$1,$6,$7*
1,1,$1+$1,$8,$9*
0 Add four rect primitives between the rounded corners*
20,1,$1+$1,$2,$3,$4,$5,0*
20,1,$1+$1,$4,$5,$6,$7,0*
20,1,$1+$1,$6,$7,$8,$9,0*
20,1,$1+$1,$8,$9,$2,$3,0*%
G04 Aperture macros list end*
G04 #@! TA.AperFunction,ComponentPad*
%ADD10O,1.400000X3.600000*%
G04 #@! TD*
G04 #@! TA.AperFunction,ComponentPad*
%ADD11O,3.600000X1.400000*%
G04 #@! TD*
G04 #@! TA.AperFunction,ComponentPad*
%ADD12RoundRect,0.250000X-0.845000X0.620000X-0.845000X-0.620000X0.845000X-0.620000X0.845000X0.620000X0*%
G04 #@! TD*
G04 #@! TA.AperFunction,ComponentPad*
%ADD13O,2.190000X1.740000*%
G04 #@! TD*
G04 #@! TA.AperFunction,SMDPad,CuDef*
%ADD14RoundRect,0.250000X-0.350000X-0.450000X0.350000X-0.450000X0.350000X0.450000X-0.350000X0.450000X0*%
G04 #@! TD*
G04 #@! TA.AperFunction,ComponentPad*
%ADD15RoundRect,0.250000X0.620000X0.845000X-0.620000X0.845000X-0.620000X-0.845000X0.620000X-0.845000X0*%
G04 #@! TD*
G04 #@! TA.AperFunction,ComponentPad*
%ADD16O,1.740000X2.190000*%
G04 #@! TD*
G04 #@! TA.AperFunction,SMDPad,CuDef*
%ADD17RoundRect,0.250000X-0.337500X-0.475000X0.337500X-0.475000X0.337500X0.475000X-0.337500X0.475000X0*%
G04 #@! TD*
G04 #@! TA.AperFunction,SMDPad,CuDef*
%ADD18RoundRect,0.250000X0.450000X-0.350000X0.450000X0.350000X-0.450000X0.350000X-0.450000X-0.350000X0*%
G04 #@! TD*
G04 #@! TA.AperFunction,ComponentPad*
%ADD19R,3.200000X3.200000*%
G04 #@! TD*
G04 #@! TA.AperFunction,ComponentPad*
%ADD20O,3.200000X3.200000*%
G04 #@! TD*
G04 #@! TA.AperFunction,ComponentPad*
%ADD21RoundRect,0.250000X-0.620000X-0.845000X0.620000X-0.845000X0.620000X0.845000X-0.620000X0.845000X0*%
G04 #@! TD*
G04 #@! TA.AperFunction,SMDPad,CuDef*
%ADD22RoundRect,0.250000X0.325000X0.450000X-0.325000X0.450000X-0.325000X-0.450000X0.325000X-0.450000X0*%
G04 #@! TD*
G04 #@! TA.AperFunction,SMDPad,CuDef*
%ADD23R,1.500000X0.900000*%
G04 #@! TD*
G04 #@! TA.AperFunction,SMDPad,CuDef*
%ADD24R,0.900000X1.500000*%
G04 #@! TD*
G04 #@! TA.AperFunction,ComponentPad*
%ADD25R,1.625600X1.625600*%
G04 #@! TD*
G04 #@! TA.AperFunction,ComponentPad*
%ADD26C,1.625600*%
G04 #@! TD*
G04 #@! TA.AperFunction,SMDPad,CuDef*
%ADD27RoundRect,0.150000X-0.825000X-0.150000X0.825000X-0.150000X0.825000X0.150000X-0.825000X0.150000X0*%
G04 #@! TD*
G04 #@! TA.AperFunction,ViaPad*
%ADD28C,0.800000*%
G04 #@! TD*
G04 #@! TA.AperFunction,Conductor*
%ADD29C,0.254000*%
G04 #@! TD*
G04 #@! TA.AperFunction,Conductor*
%ADD30C,1.370000*%
G04 #@! TD*
G04 #@! TA.AperFunction,Conductor*
%ADD31C,0.250000*%
G04 #@! TD*
G04 #@! TA.AperFunction,Conductor*
%ADD32C,0.508000*%
G04 #@! TD*
G04 APERTURE END LIST*
D10*
G04 #@! TO.P,J11,C*
G04 #@! TO.N,unconnected-(J11-PadC)*
X134213000Y-128349000D03*
D11*
G04 #@! TO.P,J11,B*
G04 #@! TO.N,GND*
X129413000Y-131599000D03*
G04 #@! TO.P,J11,A*
G04 #@! TO.N,+24V*
X129413000Y-125349000D03*
G04 #@! TD*
D12*
G04 #@! TO.P,J2,1,Pin_1*
G04 #@! TO.N,+3.3V*
X128270000Y-80010000D03*
D13*
G04 #@! TO.P,J2,2,Pin_2*
G04 #@! TO.N,/DigitalRain*
X128270000Y-82550000D03*
G04 #@! TO.P,J2,3,Pin_3*
G04 #@! TO.N,/AnalogRain*
X128270000Y-85090000D03*
G04 #@! TO.P,J2,4,Pin_4*
G04 #@! TO.N,GND*
X128270000Y-87630000D03*
G04 #@! TD*
D14*
G04 #@! TO.P,R2,1*
G04 #@! TO.N,/BOOT*
X159020000Y-93980000D03*
G04 #@! TO.P,R2,2*
G04 #@! TO.N,+3.3V*
X161020000Y-93980000D03*
G04 #@! TD*
D15*
G04 #@! TO.P,J7,1,Pin_1*
G04 #@! TO.N,Net-(J7-Pin_1)*
X129540000Y-97790000D03*
D16*
G04 #@! TO.P,J7,2,Pin_2*
G04 #@! TO.N,GND*
X127000000Y-97790000D03*
G04 #@! TD*
D12*
G04 #@! TO.P,J3,1,Pin_1*
G04 #@! TO.N,+3.3V*
X177800000Y-87630000D03*
D13*
G04 #@! TO.P,J3,2,Pin_2*
G04 #@! TO.N,/GPIOTempSurface*
X177800000Y-90170000D03*
G04 #@! TO.P,J3,3,Pin_3*
G04 #@! TO.N,GND*
X177800000Y-92710000D03*
G04 #@! TD*
D17*
G04 #@! TO.P,C1,1*
G04 #@! TO.N,GND*
X108415000Y-71120000D03*
G04 #@! TO.P,C1,2*
G04 #@! TO.N,/EN*
X110490000Y-71120000D03*
G04 #@! TD*
D18*
G04 #@! TO.P,R1,1*
G04 #@! TO.N,/EN*
X117110000Y-72120000D03*
G04 #@! TO.P,R1,2*
G04 #@! TO.N,+3.3V*
X117110000Y-70120000D03*
G04 #@! TD*
D19*
G04 #@! TO.P,D1,1,K*
G04 #@! TO.N,Net-(D1-K)*
X106815000Y-108585000D03*
D20*
G04 #@! TO.P,D1,2,A*
G04 #@! TO.N,GND*
X110625000Y-108585000D03*
G04 #@! TD*
D21*
G04 #@! TO.P,J10,1,Pin_1*
G04 #@! TO.N,Net-(J10-Pin_1)*
X166370000Y-80010000D03*
D16*
G04 #@! TO.P,J10,2,Pin_2*
G04 #@! TO.N,GND*
X168910000Y-80010000D03*
G04 #@! TD*
D18*
G04 #@! TO.P,R5,1*
G04 #@! TO.N,/MTDO*
X146050000Y-94980000D03*
G04 #@! TO.P,R5,2*
X146050000Y-92980000D03*
G04 #@! TD*
D17*
G04 #@! TO.P,C6,1*
G04 #@! TO.N,+24V*
X129772500Y-117729000D03*
G04 #@! TO.P,C6,2*
G04 #@! TO.N,GND*
X131847500Y-117729000D03*
G04 #@! TD*
D21*
G04 #@! TO.P,J6,1,Pin_1*
G04 #@! TO.N,Net-(J6-Pin_1)*
X166370000Y-90170000D03*
D16*
G04 #@! TO.P,J6,2,Pin_2*
G04 #@! TO.N,GND*
X168910000Y-90170000D03*
G04 #@! TD*
D22*
G04 #@! TO.P,L1,1,1*
G04 #@! TO.N,Net-(D1-K)*
X109610000Y-114935000D03*
G04 #@! TO.P,L1,2,2*
G04 #@! TO.N,+3.3V*
X107560000Y-114935000D03*
G04 #@! TD*
D14*
G04 #@! TO.P,R11,1*
G04 #@! TO.N,Net-(U3-G)*
X142637000Y-132461000D03*
G04 #@! TO.P,R11,2*
G04 #@! TO.N,GND*
X144637000Y-132461000D03*
G04 #@! TD*
D12*
G04 #@! TO.P,J4,1,Pin_1*
G04 #@! TO.N,+3.3V*
X176510000Y-76200000D03*
D13*
G04 #@! TO.P,J4,2,Pin_2*
G04 #@! TO.N,/GPIOTempAir*
X176510000Y-78740000D03*
G04 #@! TO.P,J4,3,Pin_3*
G04 #@! TO.N,GND*
X176510000Y-81280000D03*
G04 #@! TD*
D12*
G04 #@! TO.P,J8,1,Pin_1*
G04 #@! TO.N,GND*
X128270000Y-72390000D03*
D13*
G04 #@! TO.P,J8,2,Pin_2*
G04 #@! TO.N,/EN*
X128270000Y-74930000D03*
G04 #@! TD*
D18*
G04 #@! TO.P,R7,1*
G04 #@! TO.N,/MTDI*
X140970000Y-94980000D03*
G04 #@! TO.P,R7,2*
X140970000Y-92980000D03*
G04 #@! TD*
D14*
G04 #@! TO.P,R9,1*
G04 #@! TO.N,/GPIOTempAirLED*
X159020000Y-78740000D03*
G04 #@! TO.P,R9,2*
G04 #@! TO.N,Net-(J10-Pin_1)*
X161020000Y-78740000D03*
G04 #@! TD*
D23*
G04 #@! TO.P,U1,1,GND*
G04 #@! TO.N,GND*
X137440000Y-66040000D03*
G04 #@! TO.P,U1,2,VDD*
G04 #@! TO.N,+3.3V*
X137440000Y-67310000D03*
G04 #@! TO.P,U1,3,EN*
G04 #@! TO.N,/EN*
X137440000Y-68580000D03*
G04 #@! TO.P,U1,4,SENSOR_VP*
G04 #@! TO.N,unconnected-(U1-SENSOR_VP-Pad4)*
X137440000Y-69850000D03*
G04 #@! TO.P,U1,5,SENSOR_VN*
G04 #@! TO.N,unconnected-(U1-SENSOR_VN-Pad5)*
X137440000Y-71120000D03*
G04 #@! TO.P,U1,6,IO34*
G04 #@! TO.N,/DigitalRain*
X137440000Y-72390000D03*
G04 #@! TO.P,U1,7,IO35*
G04 #@! TO.N,/AnalogRain*
X137440000Y-73660000D03*
G04 #@! TO.P,U1,8,IO32*
G04 #@! TO.N,unconnected-(U1-IO32-Pad8)*
X137440000Y-74930000D03*
G04 #@! TO.P,U1,9,IO33*
G04 #@! TO.N,/GPIORainLED*
X137440000Y-76200000D03*
G04 #@! TO.P,U1,10,IO25*
G04 #@! TO.N,unconnected-(U1-IO25-Pad10)*
X137440000Y-77470000D03*
G04 #@! TO.P,U1,11,IO26*
G04 #@! TO.N,/MOSFETCONTROL*
X137440000Y-78740000D03*
G04 #@! TO.P,U1,12,IO27*
G04 #@! TO.N,unconnected-(U1-IO27-Pad12)*
X137440000Y-80010000D03*
G04 #@! TO.P,U1,13,IO14*
G04 #@! TO.N,/MTMS*
X137440000Y-81280000D03*
G04 #@! TO.P,U1,14,IO12*
G04 #@! TO.N,/MTDI*
X137440000Y-82550000D03*
D24*
G04 #@! TO.P,U1,15,GND*
G04 #@! TO.N,GND*
X140480000Y-83800000D03*
G04 #@! TO.P,U1,16,IO13*
G04 #@! TO.N,/MTCK*
X141750000Y-83800000D03*
G04 #@! TO.P,U1,17,SHD/SD2*
G04 #@! TO.N,unconnected-(U1-SHD{slash}SD2-Pad17)*
X143020000Y-83800000D03*
G04 #@! TO.P,U1,18,SWP/SD3*
G04 #@! TO.N,unconnected-(U1-SWP{slash}SD3-Pad18)*
X144290000Y-83800000D03*
G04 #@! TO.P,U1,19,SCS/CMD*
G04 #@! TO.N,unconnected-(U1-SCS{slash}CMD-Pad19)*
X145560000Y-83800000D03*
G04 #@! TO.P,U1,20,SCK/CLK*
G04 #@! TO.N,unconnected-(U1-SCK{slash}CLK-Pad20)*
X146830000Y-83800000D03*
G04 #@! TO.P,U1,21,SDO/SD0*
G04 #@! TO.N,unconnected-(U1-SDO{slash}SD0-Pad21)*
X148100000Y-83800000D03*
G04 #@! TO.P,U1,22,SDI/SD1*
G04 #@! TO.N,unconnected-(U1-SDI{slash}SD1-Pad22)*
X149370000Y-83800000D03*
G04 #@! TO.P,U1,23,IO15*
G04 #@! TO.N,/MTDO*
X150640000Y-83800000D03*
G04 #@! TO.P,U1,24,IO2*
G04 #@! TO.N,unconnected-(U1-IO2-Pad24)*
X151910000Y-83800000D03*
D23*
G04 #@! TO.P,U1,25,IO0*
G04 #@! TO.N,/BOOT*
X154940000Y-82550000D03*
G04 #@! TO.P,U1,26,IO4*
G04 #@! TO.N,unconnected-(U1-IO4-Pad26)*
X154940000Y-81280000D03*
G04 #@! TO.P,U1,27,IO16*
G04 #@! TO.N,/GPIOTempSurfaceLED*
X154940000Y-80010000D03*
G04 #@! TO.P,U1,28,IO17*
G04 #@! TO.N,/GPIOTempSurface*
X154940000Y-78740000D03*
G04 #@! TO.P,U1,29,IO5*
G04 #@! TO.N,unconnected-(U1-IO5-Pad29)*
X154940000Y-77470000D03*
G04 #@! TO.P,U1,30,IO18*
G04 #@! TO.N,/GPIOTempAirLED*
X154940000Y-76200000D03*
G04 #@! TO.P,U1,31,IO19*
G04 #@! TO.N,/GPIOTempAir*
X154940000Y-74930000D03*
G04 #@! TO.P,U1,32,NC*
G04 #@! TO.N,unconnected-(U1-NC-Pad32)*
X154940000Y-73660000D03*
G04 #@! TO.P,U1,33,IO21*
G04 #@! TO.N,unconnected-(U1-IO21-Pad33)*
X154940000Y-72390000D03*
G04 #@! TO.P,U1,34,RXD0/IO3*
G04 #@! TO.N,/RX*
X154940000Y-71120000D03*
G04 #@! TO.P,U1,35,TXD0/IO1*
G04 #@! TO.N,/TX*
X154940000Y-69850000D03*
G04 #@! TO.P,U1,36,IO22*
G04 #@! TO.N,unconnected-(U1-IO22-Pad36)*
X154940000Y-68580000D03*
G04 #@! TO.P,U1,37,IO23*
G04 #@! TO.N,unconnected-(U1-IO23-Pad37)*
X154940000Y-67310000D03*
G04 #@! TO.P,U1,38,GND*
G04 #@! TO.N,GND*
X154940000Y-66040000D03*
G04 #@! TD*
D15*
G04 #@! TO.P,J5,1,Pin_1*
G04 #@! TO.N,/MTDO*
X146050000Y-101600000D03*
D16*
G04 #@! TO.P,J5,2,Pin_2*
G04 #@! TO.N,/MTCK*
X143510000Y-101600000D03*
G04 #@! TO.P,J5,3,Pin_3*
G04 #@! TO.N,/MTDI*
X140970000Y-101600000D03*
G04 #@! TO.P,J5,4,Pin_4*
G04 #@! TO.N,/MTMS*
X138430000Y-101600000D03*
G04 #@! TD*
D18*
G04 #@! TO.P,R8,1*
G04 #@! TO.N,/MTMS*
X138430000Y-94980000D03*
G04 #@! TO.P,R8,2*
X138430000Y-92980000D03*
G04 #@! TD*
D25*
G04 #@! TO.P,U3,1,G*
G04 #@! TO.N,Net-(U3-G)*
X154051000Y-133858000D03*
D26*
G04 #@! TO.P,U3,2,D*
G04 #@! TO.N,Net-(D2-A)*
X156591000Y-133858000D03*
G04 #@! TO.P,U3,3,S*
G04 #@! TO.N,GND*
X159131000Y-133858000D03*
G04 #@! TD*
D17*
G04 #@! TO.P,C3,1*
G04 #@! TO.N,/BOOT*
X152632500Y-102870000D03*
G04 #@! TO.P,C3,2*
G04 #@! TO.N,GND*
X154707500Y-102870000D03*
G04 #@! TD*
D21*
G04 #@! TO.P,J13,1,Pin_1*
G04 #@! TO.N,+24V*
X154559000Y-122682000D03*
D16*
G04 #@! TO.P,J13,2,Pin_2*
G04 #@! TO.N,Net-(D2-A)*
X157099000Y-122682000D03*
G04 #@! TD*
D14*
G04 #@! TO.P,R3,1*
G04 #@! TO.N,/GPIOTempSurfaceLED*
X159020000Y-83820000D03*
G04 #@! TO.P,R3,2*
G04 #@! TO.N,Net-(J6-Pin_1)*
X161020000Y-83820000D03*
G04 #@! TD*
D17*
G04 #@! TO.P,C5,1*
G04 #@! TO.N,+3.3V*
X115929500Y-113030000D03*
G04 #@! TO.P,C5,2*
G04 #@! TO.N,GND*
X118004500Y-113030000D03*
G04 #@! TD*
D18*
G04 #@! TO.P,R6,1*
G04 #@! TO.N,/MTCK*
X143510000Y-94980000D03*
G04 #@! TO.P,R6,2*
X143510000Y-92980000D03*
G04 #@! TD*
D17*
G04 #@! TO.P,C4,1*
G04 #@! TO.N,+24V*
X129899500Y-121793000D03*
G04 #@! TO.P,C4,2*
G04 #@! TO.N,GND*
X131974500Y-121793000D03*
G04 #@! TD*
G04 #@! TO.P,C2,1*
G04 #@! TO.N,+3.3V*
X108415000Y-74930000D03*
G04 #@! TO.P,C2,2*
G04 #@! TO.N,GND*
X110490000Y-74930000D03*
G04 #@! TD*
D21*
G04 #@! TO.P,J9,1,Pin_1*
G04 #@! TO.N,/BOOT*
X152400000Y-95250000D03*
D16*
G04 #@! TO.P,J9,2,Pin_2*
G04 #@! TO.N,GND*
X154940000Y-95250000D03*
G04 #@! TD*
D19*
G04 #@! TO.P,D2,1,K*
G04 #@! TO.N,+24V*
X145677000Y-126619000D03*
D20*
G04 #@! TO.P,D2,2,A*
G04 #@! TO.N,Net-(D2-A)*
X149487000Y-126619000D03*
G04 #@! TD*
D27*
G04 #@! TO.P,U2,1,VIN*
G04 #@! TO.N,+24V*
X110936000Y-123190000D03*
G04 #@! TO.P,U2,2,OUT*
G04 #@! TO.N,Net-(D1-K)*
X110936000Y-124460000D03*
G04 #@! TO.P,U2,3,FB*
G04 #@! TO.N,+3.3V*
X110936000Y-125730000D03*
G04 #@! TO.P,U2,4,~{EN}*
G04 #@! TO.N,GND*
X110936000Y-127000000D03*
G04 #@! TO.P,U2,5,GND*
X115886000Y-127000000D03*
G04 #@! TO.P,U2,6,GND*
X115886000Y-125730000D03*
G04 #@! TO.P,U2,7,GND*
X115886000Y-124460000D03*
G04 #@! TO.P,U2,8,GND*
X115886000Y-123190000D03*
G04 #@! TD*
D12*
G04 #@! TO.P,J1,1,Pin_1*
G04 #@! TO.N,/TX*
X167620000Y-67310000D03*
D13*
G04 #@! TO.P,J1,2,Pin_2*
G04 #@! TO.N,/RX*
X167620000Y-69850000D03*
G04 #@! TO.P,J1,3,Pin_3*
G04 #@! TO.N,GND*
X167620000Y-72390000D03*
G04 #@! TD*
D18*
G04 #@! TO.P,R4,1*
G04 #@! TO.N,/GPIORainLED*
X134620000Y-92440000D03*
G04 #@! TO.P,R4,2*
G04 #@! TO.N,Net-(J7-Pin_1)*
X134620000Y-90440000D03*
G04 #@! TD*
D21*
G04 #@! TO.P,J14,1,Pin_1*
G04 #@! TO.N,+24V*
X152527000Y-112415000D03*
D16*
G04 #@! TO.P,J14,2,Pin_2*
G04 #@! TO.N,Net-(D2-A)*
X155067000Y-112415000D03*
G04 #@! TD*
D14*
G04 #@! TO.P,R10,1*
G04 #@! TO.N,/MOSFETCONTROL*
X141621000Y-137160000D03*
G04 #@! TO.P,R10,2*
G04 #@! TO.N,Net-(U3-G)*
X143621000Y-137160000D03*
G04 #@! TD*
D28*
G04 #@! TO.N,GND*
X135513000Y-128397000D03*
X132080000Y-131572000D03*
X134620000Y-87630000D03*
X120015000Y-123289000D03*
X146304000Y-138811000D03*
X129540000Y-69850000D03*
X118110000Y-74930000D03*
X138430000Y-85090000D03*
X118618000Y-115316000D03*
X133350000Y-66040000D03*
X147320000Y-136017000D03*
G04 #@! TO.N,/MOSFETCONTROL*
X146050000Y-80645000D03*
X139700000Y-132207000D03*
G04 #@! TD*
D29*
G04 #@! TO.N,GND*
X136625000Y-138811000D02*
X129413000Y-131599000D01*
X146304000Y-138811000D02*
X136625000Y-138811000D01*
X132859000Y-126221000D02*
X132842000Y-126238000D01*
X134638812Y-126221000D02*
X132859000Y-126221000D01*
X135513000Y-128397000D02*
X135513000Y-127095188D01*
X135513000Y-127095188D02*
X134638812Y-126221000D01*
X132053000Y-131599000D02*
X132080000Y-131572000D01*
X129413000Y-131599000D02*
X132053000Y-131599000D01*
D30*
G04 #@! TO.N,+24V*
X129413000Y-126891943D02*
X129413000Y-125349000D01*
X133556057Y-131035000D02*
X129413000Y-126891943D01*
X134869943Y-131035000D02*
X133556057Y-131035000D01*
X135123343Y-130781600D02*
X134869943Y-131035000D01*
X141514400Y-130781600D02*
X135123343Y-130781600D01*
X129137500Y-122004000D02*
X112122000Y-122004000D01*
X129413000Y-122279500D02*
X129137500Y-122004000D01*
X129413000Y-122279500D02*
X129899500Y-121793000D01*
X129413000Y-125349000D02*
X129413000Y-122279500D01*
D31*
G04 #@! TO.N,GND*
X115440000Y-124590000D02*
X115440000Y-125730000D01*
D29*
X133350000Y-66040000D02*
X137440000Y-66040000D01*
X128270000Y-71120000D02*
X129540000Y-69850000D01*
X131974500Y-121793000D02*
X132842000Y-122660500D01*
X167620000Y-72390000D02*
X169043000Y-70967000D01*
X110625000Y-108585000D02*
X110625000Y-109362342D01*
X139190000Y-85090000D02*
X140480000Y-83800000D01*
X118004500Y-114194500D02*
X118004500Y-113030000D01*
X125665000Y-112965000D02*
X127000000Y-111630000D01*
X147320000Y-135144000D02*
X147320000Y-136017000D01*
X127000000Y-111630000D02*
X127000000Y-111506000D01*
X154707500Y-95482500D02*
X154940000Y-95250000D01*
X119916000Y-123190000D02*
X120015000Y-123289000D01*
X115886000Y-123190000D02*
X119916000Y-123190000D01*
D31*
X115440000Y-127000000D02*
X110490000Y-127000000D01*
D29*
X118618000Y-115316000D02*
X118618000Y-114808000D01*
X169043000Y-66443658D02*
X168639342Y-66040000D01*
X157734000Y-132461000D02*
X144637000Y-132461000D01*
X118004500Y-113030000D02*
X125600000Y-113030000D01*
X131847500Y-116353500D02*
X127000000Y-111506000D01*
X116951500Y-114083000D02*
X118004500Y-113030000D01*
X108415000Y-71120000D02*
X108415000Y-72855000D01*
X110625000Y-109362342D02*
X115345658Y-114083000D01*
X129540000Y-109220000D02*
X127000000Y-106680000D01*
X127000000Y-97790000D02*
X127000000Y-106680000D01*
X115345658Y-114083000D02*
X116951500Y-114083000D01*
X148357500Y-109220000D02*
X129540000Y-109220000D01*
X154707500Y-102870000D02*
X148357500Y-109220000D01*
X131847500Y-117729000D02*
X131847500Y-121666000D01*
X131847500Y-121666000D02*
X131974500Y-121793000D01*
X159131000Y-133858000D02*
X157734000Y-132461000D01*
D31*
X115440000Y-124460000D02*
X115570000Y-124460000D01*
D29*
X118618000Y-114808000D02*
X118004500Y-114194500D01*
X110490000Y-74930000D02*
X118110000Y-74930000D01*
D31*
X115440000Y-127000000D02*
X115440000Y-125730000D01*
D29*
X154707500Y-102870000D02*
X154707500Y-95482500D01*
X138430000Y-85090000D02*
X139190000Y-85090000D01*
X108415000Y-72855000D02*
X110490000Y-74930000D01*
X132842000Y-122660500D02*
X132842000Y-126238000D01*
X144637000Y-132461000D02*
X147320000Y-135144000D01*
X115440000Y-123190000D02*
X115440000Y-124460000D01*
D31*
X115570000Y-124460000D02*
X115440000Y-124590000D01*
D29*
X154940000Y-95250000D02*
X155745000Y-95250000D01*
X127000000Y-111506000D02*
X127000000Y-106680000D01*
X169043000Y-70967000D02*
X169043000Y-66443658D01*
X128270000Y-87630000D02*
X134620000Y-87630000D01*
X125600000Y-113030000D02*
X125665000Y-112965000D01*
X128270000Y-72390000D02*
X128270000Y-71120000D01*
X168639342Y-66040000D02*
X154940000Y-66040000D01*
X131847500Y-117729000D02*
X131847500Y-116353500D01*
G04 #@! TO.N,/EN*
X110490000Y-71120000D02*
X116110000Y-71120000D01*
X116110000Y-71120000D02*
X117110000Y-72120000D01*
X117110000Y-72120000D02*
X125460000Y-72120000D01*
X125460000Y-72120000D02*
X128270000Y-74930000D01*
X128270000Y-74930000D02*
X134620000Y-68580000D01*
X134620000Y-68580000D02*
X137440000Y-68580000D01*
D32*
G04 #@! TO.N,+3.3V*
X190500000Y-100330000D02*
X167640000Y-100330000D01*
X190500000Y-139700000D02*
X190500000Y-100330000D01*
X190500000Y-100330000D02*
X190500000Y-90170000D01*
X115929500Y-102086500D02*
X114300000Y-100457000D01*
X115570000Y-67310000D02*
X116840000Y-67310000D01*
X190500000Y-78740000D02*
X187960000Y-76200000D01*
X102870000Y-74930000D02*
X108415000Y-74930000D01*
X101600000Y-139700000D02*
X190500000Y-139700000D01*
X101600000Y-117404756D02*
X101600000Y-117094000D01*
X103759000Y-114935000D02*
X101600000Y-117094000D01*
X107560000Y-114935000D02*
X103759000Y-114935000D01*
X187960000Y-87630000D02*
X177800000Y-87630000D01*
X113495000Y-80010000D02*
X128270000Y-80010000D01*
X117110000Y-70120000D02*
X117110000Y-67580000D01*
X109925244Y-125730000D02*
X101600000Y-117404756D01*
X115929500Y-113030000D02*
X115929500Y-102086500D01*
X114300000Y-100457000D02*
X102616000Y-100457000D01*
X167640000Y-100330000D02*
X161290000Y-93980000D01*
X101600000Y-127000000D02*
X101600000Y-139700000D01*
X117110000Y-67580000D02*
X116840000Y-67310000D01*
X161290000Y-93980000D02*
X161020000Y-93980000D01*
X101600000Y-68580000D02*
X102870000Y-67310000D01*
X102870000Y-67310000D02*
X115570000Y-67310000D01*
X101600000Y-73660000D02*
X101600000Y-68580000D01*
X116840000Y-67310000D02*
X137440000Y-67310000D01*
X108415000Y-74930000D02*
X113495000Y-80010000D01*
X190500000Y-90170000D02*
X187960000Y-87630000D01*
X101600000Y-99441000D02*
X101600000Y-73660000D01*
X101600000Y-117094000D02*
X101600000Y-99441000D01*
X102870000Y-125730000D02*
X101600000Y-127000000D01*
X101600000Y-73660000D02*
X102870000Y-74930000D01*
X102616000Y-100457000D02*
X101600000Y-99441000D01*
X187960000Y-76200000D02*
X176510000Y-76200000D01*
X190500000Y-90170000D02*
X190500000Y-78740000D01*
X110490000Y-125730000D02*
X102870000Y-125730000D01*
X110490000Y-125730000D02*
X109925244Y-125730000D01*
D29*
G04 #@! TO.N,/BOOT*
X152632500Y-102870000D02*
X152632500Y-95482500D01*
X152400000Y-95250000D02*
X152400000Y-85090000D01*
X153823000Y-93827000D02*
X152400000Y-95250000D01*
X158597000Y-93827000D02*
X153823000Y-93827000D01*
X152632500Y-95482500D02*
X152400000Y-95250000D01*
X152400000Y-85090000D02*
X154940000Y-82550000D01*
X159020000Y-93980000D02*
X158750000Y-93980000D01*
X158750000Y-93980000D02*
X158597000Y-93827000D01*
G04 #@! TO.N,/TX*
X158750000Y-69850000D02*
X154940000Y-69850000D01*
X167620000Y-67310000D02*
X161290000Y-67310000D01*
X161290000Y-67310000D02*
X158750000Y-69850000D01*
G04 #@! TO.N,/RX*
X167620000Y-69850000D02*
X166350000Y-71120000D01*
X166350000Y-71120000D02*
X154940000Y-71120000D01*
G04 #@! TO.N,/MTDO*
X146050000Y-92980000D02*
X146050000Y-91440000D01*
X150640000Y-86850000D02*
X150640000Y-83800000D01*
X146050000Y-91440000D02*
X150640000Y-86850000D01*
X146050000Y-101600000D02*
X146050000Y-94980000D01*
X146050000Y-94980000D02*
X146050000Y-92980000D01*
G04 #@! TO.N,/MTCK*
X143510000Y-101600000D02*
X143510000Y-94980000D01*
X143510000Y-87630000D02*
X141750000Y-85870000D01*
X141750000Y-85870000D02*
X141750000Y-83800000D01*
X143510000Y-92980000D02*
X143510000Y-87630000D01*
X143510000Y-94980000D02*
X143510000Y-92980000D01*
G04 #@! TO.N,/MTDI*
X140970000Y-88900000D02*
X137440000Y-85370000D01*
X140970000Y-94980000D02*
X140970000Y-92980000D01*
X140970000Y-92980000D02*
X140970000Y-88900000D01*
X137440000Y-85370000D02*
X137440000Y-82550000D01*
X140970000Y-101600000D02*
X140970000Y-94980000D01*
G04 #@! TO.N,/MTMS*
X138430000Y-87630000D02*
X135890000Y-85090000D01*
X138430000Y-94980000D02*
X138430000Y-92980000D01*
X135890000Y-85090000D02*
X135890000Y-81826000D01*
X136436000Y-81280000D02*
X137440000Y-81280000D01*
X138430000Y-92980000D02*
X138430000Y-87630000D01*
X138430000Y-101600000D02*
X138430000Y-94980000D01*
X135890000Y-81826000D02*
X136436000Y-81280000D01*
G04 #@! TO.N,Net-(J6-Pin_1)*
X161020000Y-83820000D02*
X161020000Y-84820000D01*
X161020000Y-84820000D02*
X166370000Y-90170000D01*
G04 #@! TO.N,Net-(J7-Pin_1)*
X129540000Y-95520000D02*
X134620000Y-90440000D01*
X129540000Y-97790000D02*
X129540000Y-95520000D01*
G04 #@! TO.N,Net-(J10-Pin_1)*
X165100000Y-78740000D02*
X166370000Y-80010000D01*
X161020000Y-78740000D02*
X165100000Y-78740000D01*
G04 #@! TO.N,/DigitalRain*
X133350000Y-72390000D02*
X137440000Y-72390000D01*
X132080000Y-73660000D02*
X133350000Y-72390000D01*
X128270000Y-82550000D02*
X132080000Y-78740000D01*
X132080000Y-78740000D02*
X132080000Y-73660000D01*
G04 #@! TO.N,/GPIOTempSurface*
X165100000Y-85090000D02*
X162632000Y-82622000D01*
X177800000Y-90170000D02*
X175260000Y-90170000D01*
X175260000Y-90170000D02*
X170180000Y-85090000D01*
X156066000Y-78740000D02*
X154940000Y-78740000D01*
X170180000Y-85090000D02*
X165100000Y-85090000D01*
X162632000Y-82622000D02*
X159948000Y-82622000D01*
X159948000Y-82622000D02*
X156066000Y-78740000D01*
G04 #@! TO.N,/GPIOTempAir*
X172700000Y-74930000D02*
X154940000Y-74930000D01*
X176510000Y-78740000D02*
X172700000Y-74930000D01*
G04 #@! TO.N,/GPIOTempSurfaceLED*
X159020000Y-83820000D02*
X159020000Y-83120000D01*
X155910000Y-80010000D02*
X154940000Y-80010000D01*
X159020000Y-83120000D02*
X155910000Y-80010000D01*
G04 #@! TO.N,/GPIORainLED*
X135890000Y-91170000D02*
X135890000Y-86360000D01*
X134620000Y-92440000D02*
X135890000Y-91170000D01*
X134620000Y-85090000D02*
X134620000Y-77470000D01*
X134620000Y-77470000D02*
X135890000Y-76200000D01*
X135890000Y-76200000D02*
X137440000Y-76200000D01*
X135890000Y-86360000D02*
X134620000Y-85090000D01*
G04 #@! TO.N,/GPIOTempAirLED*
X159020000Y-78740000D02*
X156480000Y-76200000D01*
X156480000Y-76200000D02*
X154940000Y-76200000D01*
G04 #@! TO.N,/AnalogRain*
X128270000Y-85090000D02*
X133350000Y-80010000D01*
X133350000Y-74930000D02*
X134620000Y-73660000D01*
X134620000Y-73660000D02*
X137440000Y-73660000D01*
X133350000Y-80010000D02*
X133350000Y-74930000D01*
G04 #@! TO.N,Net-(D1-K)*
X106815000Y-112140000D02*
X109610000Y-114935000D01*
X109610000Y-123519150D02*
X110550850Y-124460000D01*
X109610000Y-114935000D02*
X109610000Y-123519150D01*
X106815000Y-108585000D02*
X106815000Y-112140000D01*
X110550850Y-124460000D02*
X110936000Y-124460000D01*
G04 #@! TO.N,/MOSFETCONTROL*
X144145000Y-78740000D02*
X146050000Y-80645000D01*
X139700000Y-132588000D02*
X141621000Y-134509000D01*
X141621000Y-134509000D02*
X141621000Y-137160000D01*
X139700000Y-132207000D02*
X139700000Y-132588000D01*
X137440000Y-78740000D02*
X144145000Y-78740000D01*
D30*
G04 #@! TO.N,+24V*
X129899500Y-117856000D02*
X129772500Y-117729000D01*
X152527000Y-120650000D02*
X152527000Y-112415000D01*
X154559000Y-122682000D02*
X152527000Y-120650000D01*
X129899500Y-121793000D02*
X129899500Y-117856000D01*
X145677000Y-126619000D02*
X151646000Y-120650000D01*
X151646000Y-120650000D02*
X152527000Y-120650000D01*
X145677000Y-126619000D02*
X141514400Y-130781600D01*
X112122000Y-122004000D02*
X110936000Y-123190000D01*
D29*
G04 #@! TO.N,Net-(D2-A)*
X153162000Y-126619000D02*
X157099000Y-122682000D01*
X149487000Y-126619000D02*
X153162000Y-126619000D01*
X165354000Y-127254000D02*
X166243000Y-128143000D01*
X156591000Y-138303000D02*
X156591000Y-133858000D01*
X165481000Y-138811000D02*
X157099000Y-138811000D01*
X153162000Y-126619000D02*
X153797000Y-127254000D01*
X153797000Y-127254000D02*
X165354000Y-127254000D01*
X155067000Y-120650000D02*
X157099000Y-122682000D01*
X166243000Y-128143000D02*
X166243000Y-138049000D01*
X166243000Y-138049000D02*
X165481000Y-138811000D01*
X155067000Y-112415000D02*
X155067000Y-120650000D01*
X149487000Y-126754000D02*
X149487000Y-126619000D01*
X157099000Y-138811000D02*
X156591000Y-138303000D01*
D32*
G04 #@! TO.N,Net-(U3-G)*
X142637000Y-136176000D02*
X143621000Y-137160000D01*
X142637000Y-132461000D02*
X142637000Y-136176000D01*
X143621000Y-137160000D02*
X150749000Y-137160000D01*
X150749000Y-137160000D02*
X154051000Y-133858000D01*
G04 #@! TD*
M02*
