G04 #@! TF.GenerationSoftware,KiCad,Pcbnew,9.0.0*
G04 #@! TF.CreationDate,2025-03-03T16:58:55-06:00*
G04 #@! TF.ProjectId,Group52HeatedBridge,47726f75-7035-4324-9865-617465644272,rev?*
G04 #@! TF.SameCoordinates,Original*
G04 #@! TF.FileFunction,Paste,Top*
G04 #@! TF.FilePolarity,Positive*
%FSLAX46Y46*%
G04 Gerber Fmt 4.6, Leading zero omitted, Abs format (unit mm)*
G04 Created by KiCad (PCBNEW 9.0.0) date 2025-03-03 16:58:55*
%MOMM*%
%LPD*%
G01*
G04 APERTURE LIST*
G04 Aperture macros list*
%AMRoundRect*
0 Rectangle with rounded corners*
0 $1 Rounding radius*
0 $2 $3 $4 $5 $6 $7 $8 $9 X,Y pos of 4 corners*
0 Add a 4 corners polygon primitive as box body*
4,1,4,$2,$3,$4,$5,$6,$7,$8,$9,$2,$3,0*
0 Add four circle primitives for the rounded corners*
1,1,$1+$1,$2,$3*
1,1,$1+$1,$4,$5*
1,1,$1+$1,$6,$7*
1,1,$1+$1,$8,$9*
0 Add four rect primitives between the rounded corners*
20,1,$1+$1,$2,$3,$4,$5,0*
20,1,$1+$1,$4,$5,$6,$7,0*
20,1,$1+$1,$6,$7,$8,$9,0*
20,1,$1+$1,$8,$9,$2,$3,0*%
G04 Aperture macros list end*
%ADD10RoundRect,0.250000X-0.350000X-0.450000X0.350000X-0.450000X0.350000X0.450000X-0.350000X0.450000X0*%
%ADD11RoundRect,0.250000X-0.337500X-0.475000X0.337500X-0.475000X0.337500X0.475000X-0.337500X0.475000X0*%
%ADD12RoundRect,0.250000X0.450000X-0.350000X0.450000X0.350000X-0.450000X0.350000X-0.450000X-0.350000X0*%
%ADD13RoundRect,0.250000X0.325000X0.450000X-0.325000X0.450000X-0.325000X-0.450000X0.325000X-0.450000X0*%
%ADD14R,1.500000X0.900000*%
%ADD15R,0.900000X1.500000*%
%ADD16RoundRect,0.150000X-0.825000X-0.150000X0.825000X-0.150000X0.825000X0.150000X-0.825000X0.150000X0*%
G04 APERTURE END LIST*
D10*
G04 #@! TO.C,R2*
X159020000Y-93980000D03*
X161020000Y-93980000D03*
G04 #@! TD*
D11*
G04 #@! TO.C,C1*
X108415000Y-71120000D03*
X110490000Y-71120000D03*
G04 #@! TD*
D12*
G04 #@! TO.C,R1*
X117110000Y-72120000D03*
X117110000Y-70120000D03*
G04 #@! TD*
G04 #@! TO.C,R5*
X146050000Y-94980000D03*
X146050000Y-92980000D03*
G04 #@! TD*
D11*
G04 #@! TO.C,C6*
X129772500Y-117729000D03*
X131847500Y-117729000D03*
G04 #@! TD*
D13*
G04 #@! TO.C,L1*
X109610000Y-114935000D03*
X107560000Y-114935000D03*
G04 #@! TD*
D10*
G04 #@! TO.C,R11*
X142637000Y-132461000D03*
X144637000Y-132461000D03*
G04 #@! TD*
D12*
G04 #@! TO.C,R7*
X140970000Y-94980000D03*
X140970000Y-92980000D03*
G04 #@! TD*
D10*
G04 #@! TO.C,R9*
X159020000Y-78740000D03*
X161020000Y-78740000D03*
G04 #@! TD*
D14*
G04 #@! TO.C,U1*
X137440000Y-66040000D03*
X137440000Y-67310000D03*
X137440000Y-68580000D03*
X137440000Y-69850000D03*
X137440000Y-71120000D03*
X137440000Y-72390000D03*
X137440000Y-73660000D03*
X137440000Y-74930000D03*
X137440000Y-76200000D03*
X137440000Y-77470000D03*
X137440000Y-78740000D03*
X137440000Y-80010000D03*
X137440000Y-81280000D03*
X137440000Y-82550000D03*
D15*
X140480000Y-83800000D03*
X141750000Y-83800000D03*
X143020000Y-83800000D03*
X144290000Y-83800000D03*
X145560000Y-83800000D03*
X146830000Y-83800000D03*
X148100000Y-83800000D03*
X149370000Y-83800000D03*
X150640000Y-83800000D03*
X151910000Y-83800000D03*
D14*
X154940000Y-82550000D03*
X154940000Y-81280000D03*
X154940000Y-80010000D03*
X154940000Y-78740000D03*
X154940000Y-77470000D03*
X154940000Y-76200000D03*
X154940000Y-74930000D03*
X154940000Y-73660000D03*
X154940000Y-72390000D03*
X154940000Y-71120000D03*
X154940000Y-69850000D03*
X154940000Y-68580000D03*
X154940000Y-67310000D03*
X154940000Y-66040000D03*
G04 #@! TD*
D12*
G04 #@! TO.C,R8*
X138430000Y-94980000D03*
X138430000Y-92980000D03*
G04 #@! TD*
D11*
G04 #@! TO.C,C3*
X152632500Y-102870000D03*
X154707500Y-102870000D03*
G04 #@! TD*
D10*
G04 #@! TO.C,R3*
X159020000Y-83820000D03*
X161020000Y-83820000D03*
G04 #@! TD*
D11*
G04 #@! TO.C,C5*
X115929500Y-113030000D03*
X118004500Y-113030000D03*
G04 #@! TD*
D12*
G04 #@! TO.C,R6*
X143510000Y-94980000D03*
X143510000Y-92980000D03*
G04 #@! TD*
D11*
G04 #@! TO.C,C4*
X129899500Y-121793000D03*
X131974500Y-121793000D03*
G04 #@! TD*
G04 #@! TO.C,C2*
X108415000Y-74930000D03*
X110490000Y-74930000D03*
G04 #@! TD*
D16*
G04 #@! TO.C,U2*
X110936000Y-123190000D03*
X110936000Y-124460000D03*
X110936000Y-125730000D03*
X110936000Y-127000000D03*
X115886000Y-127000000D03*
X115886000Y-125730000D03*
X115886000Y-124460000D03*
X115886000Y-123190000D03*
G04 #@! TD*
D12*
G04 #@! TO.C,R4*
X134620000Y-92440000D03*
X134620000Y-90440000D03*
G04 #@! TD*
D10*
G04 #@! TO.C,R10*
X141621000Y-137160000D03*
X143621000Y-137160000D03*
G04 #@! TD*
M02*
