M48
; DRILL file {KiCad 9.0.0} date 2025-03-03T16:51:25-0600
; FORMAT={-:-/ absolute / inch / decimal}
; #@! TF.CreationDate,2025-03-03T16:51:25-06:00
; #@! TF.GenerationSoftware,Kicad,Pcbnew,9.0.0
; #@! TF.FileFunction,Plated,1,2,PTH
FMAT,2
INCH
; #@! TA.AperFunction,Plated,PTH,ViaDrill
T1C0.0157
; #@! TA.AperFunction,Plated,PTH,ComponentDrill
T2C0.0315
; #@! TA.AperFunction,Plated,PTH,ComponentDrill
T3C0.0440
; #@! TA.AperFunction,Plated,PTH,ComponentDrill
T4C0.0469
; #@! TA.AperFunction,Plated,PTH,ComponentDrill
T5C0.0630
%
G90
G05
T1
X4.65Y-2.95
X4.67Y-4.54
X4.725Y-4.8539
X5.1Y-2.75
X5.2Y-5.18
X5.25Y-2.6
X5.3Y-3.45
X5.3352Y-5.055
X5.45Y-3.35
X5.5Y-5.205
X5.75Y-3.175
X5.76Y-5.465
X5.8Y-5.355
T3
X6.065Y-5.27
X6.165Y-5.27
X6.265Y-5.27
T4
X5.0Y-3.85
X5.05Y-2.85
X5.05Y-2.95
X5.05Y-3.15
X5.05Y-3.25
X5.05Y-3.35
X5.05Y-3.45
X5.1Y-3.85
X5.45Y-4.0
X5.55Y-4.0
X5.65Y-4.0
X5.75Y-4.0
X6.0Y-3.75
X6.005Y-4.4258
X6.085Y-4.83
X6.1Y-3.75
X6.105Y-4.4258
X6.185Y-4.83
X6.55Y-3.15
X6.55Y-3.55
X6.5992Y-2.65
X6.5992Y-2.75
X6.5992Y-2.85
X6.65Y-3.15
X6.65Y-3.55
X6.9492Y-3.0
X6.9492Y-3.1
X6.9492Y-3.2
X7.0Y-3.45
X7.0Y-3.55
X7.0Y-3.65
T5
X4.2053Y-4.275
X4.3553Y-4.275
X5.7353Y-4.985
X5.8853Y-4.985
T2
G00X5.0517Y-4.935
M15
G01X5.1383Y-4.935
M16
G05
G00X5.0517Y-5.1811
M15
G01X5.1383Y-5.1811
M16
G05
G00X5.284Y-5.0098
M15
G01X5.284Y-5.0964
M16
G05
M30
