G04 #@! TF.GenerationSoftware,KiCad,Pcbnew,9.0.0*
G04 #@! TF.CreationDate,2025-03-03T16:58:55-06:00*
G04 #@! TF.ProjectId,Group52HeatedBridge,47726f75-7035-4324-9865-617465644272,rev?*
G04 #@! TF.SameCoordinates,Original*
G04 #@! TF.FileFunction,Legend,Top*
G04 #@! TF.FilePolarity,Positive*
%FSLAX46Y46*%
G04 Gerber Fmt 4.6, Leading zero omitted, Abs format (unit mm)*
G04 Created by KiCad (PCBNEW 9.0.0) date 2025-03-03 16:58:55*
%MOMM*%
%LPD*%
G01*
G04 APERTURE LIST*
%ADD10C,0.300000*%
%ADD11C,0.150000*%
%ADD12C,0.200000*%
%ADD13C,0.127000*%
%ADD14C,0.120000*%
%ADD15C,0.152400*%
G04 APERTURE END LIST*
D10*
X169972510Y-111429996D02*
X169972510Y-109929996D01*
X169972510Y-110644282D02*
X170829653Y-110644282D01*
X170829653Y-111429996D02*
X170829653Y-109929996D01*
X172115368Y-111358568D02*
X171972511Y-111429996D01*
X171972511Y-111429996D02*
X171686797Y-111429996D01*
X171686797Y-111429996D02*
X171543939Y-111358568D01*
X171543939Y-111358568D02*
X171472511Y-111215710D01*
X171472511Y-111215710D02*
X171472511Y-110644282D01*
X171472511Y-110644282D02*
X171543939Y-110501425D01*
X171543939Y-110501425D02*
X171686797Y-110429996D01*
X171686797Y-110429996D02*
X171972511Y-110429996D01*
X171972511Y-110429996D02*
X172115368Y-110501425D01*
X172115368Y-110501425D02*
X172186797Y-110644282D01*
X172186797Y-110644282D02*
X172186797Y-110787139D01*
X172186797Y-110787139D02*
X171472511Y-110929996D01*
X173472511Y-111429996D02*
X173472511Y-110644282D01*
X173472511Y-110644282D02*
X173401082Y-110501425D01*
X173401082Y-110501425D02*
X173258225Y-110429996D01*
X173258225Y-110429996D02*
X172972511Y-110429996D01*
X172972511Y-110429996D02*
X172829653Y-110501425D01*
X173472511Y-111358568D02*
X173329653Y-111429996D01*
X173329653Y-111429996D02*
X172972511Y-111429996D01*
X172972511Y-111429996D02*
X172829653Y-111358568D01*
X172829653Y-111358568D02*
X172758225Y-111215710D01*
X172758225Y-111215710D02*
X172758225Y-111072853D01*
X172758225Y-111072853D02*
X172829653Y-110929996D01*
X172829653Y-110929996D02*
X172972511Y-110858568D01*
X172972511Y-110858568D02*
X173329653Y-110858568D01*
X173329653Y-110858568D02*
X173472511Y-110787139D01*
X173972511Y-110429996D02*
X174543939Y-110429996D01*
X174186796Y-109929996D02*
X174186796Y-111215710D01*
X174186796Y-111215710D02*
X174258225Y-111358568D01*
X174258225Y-111358568D02*
X174401082Y-111429996D01*
X174401082Y-111429996D02*
X174543939Y-111429996D01*
X175615368Y-111358568D02*
X175472511Y-111429996D01*
X175472511Y-111429996D02*
X175186797Y-111429996D01*
X175186797Y-111429996D02*
X175043939Y-111358568D01*
X175043939Y-111358568D02*
X174972511Y-111215710D01*
X174972511Y-111215710D02*
X174972511Y-110644282D01*
X174972511Y-110644282D02*
X175043939Y-110501425D01*
X175043939Y-110501425D02*
X175186797Y-110429996D01*
X175186797Y-110429996D02*
X175472511Y-110429996D01*
X175472511Y-110429996D02*
X175615368Y-110501425D01*
X175615368Y-110501425D02*
X175686797Y-110644282D01*
X175686797Y-110644282D02*
X175686797Y-110787139D01*
X175686797Y-110787139D02*
X174972511Y-110929996D01*
X176972511Y-111429996D02*
X176972511Y-109929996D01*
X176972511Y-111358568D02*
X176829653Y-111429996D01*
X176829653Y-111429996D02*
X176543939Y-111429996D01*
X176543939Y-111429996D02*
X176401082Y-111358568D01*
X176401082Y-111358568D02*
X176329653Y-111287139D01*
X176329653Y-111287139D02*
X176258225Y-111144282D01*
X176258225Y-111144282D02*
X176258225Y-110715710D01*
X176258225Y-110715710D02*
X176329653Y-110572853D01*
X176329653Y-110572853D02*
X176401082Y-110501425D01*
X176401082Y-110501425D02*
X176543939Y-110429996D01*
X176543939Y-110429996D02*
X176829653Y-110429996D01*
X176829653Y-110429996D02*
X176972511Y-110501425D01*
X179329653Y-110644282D02*
X179543939Y-110715710D01*
X179543939Y-110715710D02*
X179615368Y-110787139D01*
X179615368Y-110787139D02*
X179686796Y-110929996D01*
X179686796Y-110929996D02*
X179686796Y-111144282D01*
X179686796Y-111144282D02*
X179615368Y-111287139D01*
X179615368Y-111287139D02*
X179543939Y-111358568D01*
X179543939Y-111358568D02*
X179401082Y-111429996D01*
X179401082Y-111429996D02*
X178829653Y-111429996D01*
X178829653Y-111429996D02*
X178829653Y-109929996D01*
X178829653Y-109929996D02*
X179329653Y-109929996D01*
X179329653Y-109929996D02*
X179472511Y-110001425D01*
X179472511Y-110001425D02*
X179543939Y-110072853D01*
X179543939Y-110072853D02*
X179615368Y-110215710D01*
X179615368Y-110215710D02*
X179615368Y-110358568D01*
X179615368Y-110358568D02*
X179543939Y-110501425D01*
X179543939Y-110501425D02*
X179472511Y-110572853D01*
X179472511Y-110572853D02*
X179329653Y-110644282D01*
X179329653Y-110644282D02*
X178829653Y-110644282D01*
X180329653Y-111429996D02*
X180329653Y-110429996D01*
X180329653Y-110715710D02*
X180401082Y-110572853D01*
X180401082Y-110572853D02*
X180472511Y-110501425D01*
X180472511Y-110501425D02*
X180615368Y-110429996D01*
X180615368Y-110429996D02*
X180758225Y-110429996D01*
X181258224Y-111429996D02*
X181258224Y-110429996D01*
X181258224Y-109929996D02*
X181186796Y-110001425D01*
X181186796Y-110001425D02*
X181258224Y-110072853D01*
X181258224Y-110072853D02*
X181329653Y-110001425D01*
X181329653Y-110001425D02*
X181258224Y-109929996D01*
X181258224Y-109929996D02*
X181258224Y-110072853D01*
X182615368Y-111429996D02*
X182615368Y-109929996D01*
X182615368Y-111358568D02*
X182472510Y-111429996D01*
X182472510Y-111429996D02*
X182186796Y-111429996D01*
X182186796Y-111429996D02*
X182043939Y-111358568D01*
X182043939Y-111358568D02*
X181972510Y-111287139D01*
X181972510Y-111287139D02*
X181901082Y-111144282D01*
X181901082Y-111144282D02*
X181901082Y-110715710D01*
X181901082Y-110715710D02*
X181972510Y-110572853D01*
X181972510Y-110572853D02*
X182043939Y-110501425D01*
X182043939Y-110501425D02*
X182186796Y-110429996D01*
X182186796Y-110429996D02*
X182472510Y-110429996D01*
X182472510Y-110429996D02*
X182615368Y-110501425D01*
X183972511Y-110429996D02*
X183972511Y-111644282D01*
X183972511Y-111644282D02*
X183901082Y-111787139D01*
X183901082Y-111787139D02*
X183829653Y-111858568D01*
X183829653Y-111858568D02*
X183686796Y-111929996D01*
X183686796Y-111929996D02*
X183472511Y-111929996D01*
X183472511Y-111929996D02*
X183329653Y-111858568D01*
X183972511Y-111358568D02*
X183829653Y-111429996D01*
X183829653Y-111429996D02*
X183543939Y-111429996D01*
X183543939Y-111429996D02*
X183401082Y-111358568D01*
X183401082Y-111358568D02*
X183329653Y-111287139D01*
X183329653Y-111287139D02*
X183258225Y-111144282D01*
X183258225Y-111144282D02*
X183258225Y-110715710D01*
X183258225Y-110715710D02*
X183329653Y-110572853D01*
X183329653Y-110572853D02*
X183401082Y-110501425D01*
X183401082Y-110501425D02*
X183543939Y-110429996D01*
X183543939Y-110429996D02*
X183829653Y-110429996D01*
X183829653Y-110429996D02*
X183972511Y-110501425D01*
X185258225Y-111358568D02*
X185115368Y-111429996D01*
X185115368Y-111429996D02*
X184829654Y-111429996D01*
X184829654Y-111429996D02*
X184686796Y-111358568D01*
X184686796Y-111358568D02*
X184615368Y-111215710D01*
X184615368Y-111215710D02*
X184615368Y-110644282D01*
X184615368Y-110644282D02*
X184686796Y-110501425D01*
X184686796Y-110501425D02*
X184829654Y-110429996D01*
X184829654Y-110429996D02*
X185115368Y-110429996D01*
X185115368Y-110429996D02*
X185258225Y-110501425D01*
X185258225Y-110501425D02*
X185329654Y-110644282D01*
X185329654Y-110644282D02*
X185329654Y-110787139D01*
X185329654Y-110787139D02*
X184615368Y-110929996D01*
X186901082Y-109929996D02*
X187401082Y-111429996D01*
X187401082Y-111429996D02*
X187901082Y-109929996D01*
X189186796Y-111429996D02*
X188329653Y-111429996D01*
X188758224Y-111429996D02*
X188758224Y-109929996D01*
X188758224Y-109929996D02*
X188615367Y-110144282D01*
X188615367Y-110144282D02*
X188472510Y-110287139D01*
X188472510Y-110287139D02*
X188329653Y-110358568D01*
X170258225Y-112344912D02*
X170401082Y-112344912D01*
X170401082Y-112344912D02*
X170543939Y-112416341D01*
X170543939Y-112416341D02*
X170615368Y-112487769D01*
X170615368Y-112487769D02*
X170686796Y-112630626D01*
X170686796Y-112630626D02*
X170758225Y-112916341D01*
X170758225Y-112916341D02*
X170758225Y-113273484D01*
X170758225Y-113273484D02*
X170686796Y-113559198D01*
X170686796Y-113559198D02*
X170615368Y-113702055D01*
X170615368Y-113702055D02*
X170543939Y-113773484D01*
X170543939Y-113773484D02*
X170401082Y-113844912D01*
X170401082Y-113844912D02*
X170258225Y-113844912D01*
X170258225Y-113844912D02*
X170115368Y-113773484D01*
X170115368Y-113773484D02*
X170043939Y-113702055D01*
X170043939Y-113702055D02*
X169972510Y-113559198D01*
X169972510Y-113559198D02*
X169901082Y-113273484D01*
X169901082Y-113273484D02*
X169901082Y-112916341D01*
X169901082Y-112916341D02*
X169972510Y-112630626D01*
X169972510Y-112630626D02*
X170043939Y-112487769D01*
X170043939Y-112487769D02*
X170115368Y-112416341D01*
X170115368Y-112416341D02*
X170258225Y-112344912D01*
X171258224Y-112344912D02*
X172186796Y-112344912D01*
X172186796Y-112344912D02*
X171686796Y-112916341D01*
X171686796Y-112916341D02*
X171901081Y-112916341D01*
X171901081Y-112916341D02*
X172043939Y-112987769D01*
X172043939Y-112987769D02*
X172115367Y-113059198D01*
X172115367Y-113059198D02*
X172186796Y-113202055D01*
X172186796Y-113202055D02*
X172186796Y-113559198D01*
X172186796Y-113559198D02*
X172115367Y-113702055D01*
X172115367Y-113702055D02*
X172043939Y-113773484D01*
X172043939Y-113773484D02*
X171901081Y-113844912D01*
X171901081Y-113844912D02*
X171472510Y-113844912D01*
X171472510Y-113844912D02*
X171329653Y-113773484D01*
X171329653Y-113773484D02*
X171258224Y-113702055D01*
X172829652Y-113273484D02*
X173972510Y-113273484D01*
X174972510Y-112344912D02*
X175115367Y-112344912D01*
X175115367Y-112344912D02*
X175258224Y-112416341D01*
X175258224Y-112416341D02*
X175329653Y-112487769D01*
X175329653Y-112487769D02*
X175401081Y-112630626D01*
X175401081Y-112630626D02*
X175472510Y-112916341D01*
X175472510Y-112916341D02*
X175472510Y-113273484D01*
X175472510Y-113273484D02*
X175401081Y-113559198D01*
X175401081Y-113559198D02*
X175329653Y-113702055D01*
X175329653Y-113702055D02*
X175258224Y-113773484D01*
X175258224Y-113773484D02*
X175115367Y-113844912D01*
X175115367Y-113844912D02*
X174972510Y-113844912D01*
X174972510Y-113844912D02*
X174829653Y-113773484D01*
X174829653Y-113773484D02*
X174758224Y-113702055D01*
X174758224Y-113702055D02*
X174686795Y-113559198D01*
X174686795Y-113559198D02*
X174615367Y-113273484D01*
X174615367Y-113273484D02*
X174615367Y-112916341D01*
X174615367Y-112916341D02*
X174686795Y-112630626D01*
X174686795Y-112630626D02*
X174758224Y-112487769D01*
X174758224Y-112487769D02*
X174829653Y-112416341D01*
X174829653Y-112416341D02*
X174972510Y-112344912D01*
X175972509Y-112344912D02*
X176901081Y-112344912D01*
X176901081Y-112344912D02*
X176401081Y-112916341D01*
X176401081Y-112916341D02*
X176615366Y-112916341D01*
X176615366Y-112916341D02*
X176758224Y-112987769D01*
X176758224Y-112987769D02*
X176829652Y-113059198D01*
X176829652Y-113059198D02*
X176901081Y-113202055D01*
X176901081Y-113202055D02*
X176901081Y-113559198D01*
X176901081Y-113559198D02*
X176829652Y-113702055D01*
X176829652Y-113702055D02*
X176758224Y-113773484D01*
X176758224Y-113773484D02*
X176615366Y-113844912D01*
X176615366Y-113844912D02*
X176186795Y-113844912D01*
X176186795Y-113844912D02*
X176043938Y-113773484D01*
X176043938Y-113773484D02*
X175972509Y-113702055D01*
X177543937Y-113273484D02*
X178686795Y-113273484D01*
X179329652Y-112487769D02*
X179401080Y-112416341D01*
X179401080Y-112416341D02*
X179543938Y-112344912D01*
X179543938Y-112344912D02*
X179901080Y-112344912D01*
X179901080Y-112344912D02*
X180043938Y-112416341D01*
X180043938Y-112416341D02*
X180115366Y-112487769D01*
X180115366Y-112487769D02*
X180186795Y-112630626D01*
X180186795Y-112630626D02*
X180186795Y-112773484D01*
X180186795Y-112773484D02*
X180115366Y-112987769D01*
X180115366Y-112987769D02*
X179258223Y-113844912D01*
X179258223Y-113844912D02*
X180186795Y-113844912D01*
X181115366Y-112344912D02*
X181258223Y-112344912D01*
X181258223Y-112344912D02*
X181401080Y-112416341D01*
X181401080Y-112416341D02*
X181472509Y-112487769D01*
X181472509Y-112487769D02*
X181543937Y-112630626D01*
X181543937Y-112630626D02*
X181615366Y-112916341D01*
X181615366Y-112916341D02*
X181615366Y-113273484D01*
X181615366Y-113273484D02*
X181543937Y-113559198D01*
X181543937Y-113559198D02*
X181472509Y-113702055D01*
X181472509Y-113702055D02*
X181401080Y-113773484D01*
X181401080Y-113773484D02*
X181258223Y-113844912D01*
X181258223Y-113844912D02*
X181115366Y-113844912D01*
X181115366Y-113844912D02*
X180972509Y-113773484D01*
X180972509Y-113773484D02*
X180901080Y-113702055D01*
X180901080Y-113702055D02*
X180829651Y-113559198D01*
X180829651Y-113559198D02*
X180758223Y-113273484D01*
X180758223Y-113273484D02*
X180758223Y-112916341D01*
X180758223Y-112916341D02*
X180829651Y-112630626D01*
X180829651Y-112630626D02*
X180901080Y-112487769D01*
X180901080Y-112487769D02*
X180972509Y-112416341D01*
X180972509Y-112416341D02*
X181115366Y-112344912D01*
X182186794Y-112487769D02*
X182258222Y-112416341D01*
X182258222Y-112416341D02*
X182401080Y-112344912D01*
X182401080Y-112344912D02*
X182758222Y-112344912D01*
X182758222Y-112344912D02*
X182901080Y-112416341D01*
X182901080Y-112416341D02*
X182972508Y-112487769D01*
X182972508Y-112487769D02*
X183043937Y-112630626D01*
X183043937Y-112630626D02*
X183043937Y-112773484D01*
X183043937Y-112773484D02*
X182972508Y-112987769D01*
X182972508Y-112987769D02*
X182115365Y-113844912D01*
X182115365Y-113844912D02*
X183043937Y-113844912D01*
X184401079Y-112344912D02*
X183686793Y-112344912D01*
X183686793Y-112344912D02*
X183615365Y-113059198D01*
X183615365Y-113059198D02*
X183686793Y-112987769D01*
X183686793Y-112987769D02*
X183829651Y-112916341D01*
X183829651Y-112916341D02*
X184186793Y-112916341D01*
X184186793Y-112916341D02*
X184329651Y-112987769D01*
X184329651Y-112987769D02*
X184401079Y-113059198D01*
X184401079Y-113059198D02*
X184472508Y-113202055D01*
X184472508Y-113202055D02*
X184472508Y-113559198D01*
X184472508Y-113559198D02*
X184401079Y-113702055D01*
X184401079Y-113702055D02*
X184329651Y-113773484D01*
X184329651Y-113773484D02*
X184186793Y-113844912D01*
X184186793Y-113844912D02*
X183829651Y-113844912D01*
X183829651Y-113844912D02*
X183686793Y-113773484D01*
X183686793Y-113773484D02*
X183615365Y-113702055D01*
X170758225Y-114831257D02*
X170615368Y-114759828D01*
X170615368Y-114759828D02*
X170401082Y-114759828D01*
X170401082Y-114759828D02*
X170186796Y-114831257D01*
X170186796Y-114831257D02*
X170043939Y-114974114D01*
X170043939Y-114974114D02*
X169972510Y-115116971D01*
X169972510Y-115116971D02*
X169901082Y-115402685D01*
X169901082Y-115402685D02*
X169901082Y-115616971D01*
X169901082Y-115616971D02*
X169972510Y-115902685D01*
X169972510Y-115902685D02*
X170043939Y-116045542D01*
X170043939Y-116045542D02*
X170186796Y-116188400D01*
X170186796Y-116188400D02*
X170401082Y-116259828D01*
X170401082Y-116259828D02*
X170543939Y-116259828D01*
X170543939Y-116259828D02*
X170758225Y-116188400D01*
X170758225Y-116188400D02*
X170829653Y-116116971D01*
X170829653Y-116116971D02*
X170829653Y-115616971D01*
X170829653Y-115616971D02*
X170543939Y-115616971D01*
X171472510Y-116259828D02*
X171472510Y-115259828D01*
X171472510Y-115545542D02*
X171543939Y-115402685D01*
X171543939Y-115402685D02*
X171615368Y-115331257D01*
X171615368Y-115331257D02*
X171758225Y-115259828D01*
X171758225Y-115259828D02*
X171901082Y-115259828D01*
X172615367Y-116259828D02*
X172472510Y-116188400D01*
X172472510Y-116188400D02*
X172401081Y-116116971D01*
X172401081Y-116116971D02*
X172329653Y-115974114D01*
X172329653Y-115974114D02*
X172329653Y-115545542D01*
X172329653Y-115545542D02*
X172401081Y-115402685D01*
X172401081Y-115402685D02*
X172472510Y-115331257D01*
X172472510Y-115331257D02*
X172615367Y-115259828D01*
X172615367Y-115259828D02*
X172829653Y-115259828D01*
X172829653Y-115259828D02*
X172972510Y-115331257D01*
X172972510Y-115331257D02*
X173043939Y-115402685D01*
X173043939Y-115402685D02*
X173115367Y-115545542D01*
X173115367Y-115545542D02*
X173115367Y-115974114D01*
X173115367Y-115974114D02*
X173043939Y-116116971D01*
X173043939Y-116116971D02*
X172972510Y-116188400D01*
X172972510Y-116188400D02*
X172829653Y-116259828D01*
X172829653Y-116259828D02*
X172615367Y-116259828D01*
X174401082Y-115259828D02*
X174401082Y-116259828D01*
X173758224Y-115259828D02*
X173758224Y-116045542D01*
X173758224Y-116045542D02*
X173829653Y-116188400D01*
X173829653Y-116188400D02*
X173972510Y-116259828D01*
X173972510Y-116259828D02*
X174186796Y-116259828D01*
X174186796Y-116259828D02*
X174329653Y-116188400D01*
X174329653Y-116188400D02*
X174401082Y-116116971D01*
X175115367Y-115259828D02*
X175115367Y-116759828D01*
X175115367Y-115331257D02*
X175258225Y-115259828D01*
X175258225Y-115259828D02*
X175543939Y-115259828D01*
X175543939Y-115259828D02*
X175686796Y-115331257D01*
X175686796Y-115331257D02*
X175758225Y-115402685D01*
X175758225Y-115402685D02*
X175829653Y-115545542D01*
X175829653Y-115545542D02*
X175829653Y-115974114D01*
X175829653Y-115974114D02*
X175758225Y-116116971D01*
X175758225Y-116116971D02*
X175686796Y-116188400D01*
X175686796Y-116188400D02*
X175543939Y-116259828D01*
X175543939Y-116259828D02*
X175258225Y-116259828D01*
X175258225Y-116259828D02*
X175115367Y-116188400D01*
X178329653Y-114759828D02*
X177615367Y-114759828D01*
X177615367Y-114759828D02*
X177543939Y-115474114D01*
X177543939Y-115474114D02*
X177615367Y-115402685D01*
X177615367Y-115402685D02*
X177758225Y-115331257D01*
X177758225Y-115331257D02*
X178115367Y-115331257D01*
X178115367Y-115331257D02*
X178258225Y-115402685D01*
X178258225Y-115402685D02*
X178329653Y-115474114D01*
X178329653Y-115474114D02*
X178401082Y-115616971D01*
X178401082Y-115616971D02*
X178401082Y-115974114D01*
X178401082Y-115974114D02*
X178329653Y-116116971D01*
X178329653Y-116116971D02*
X178258225Y-116188400D01*
X178258225Y-116188400D02*
X178115367Y-116259828D01*
X178115367Y-116259828D02*
X177758225Y-116259828D01*
X177758225Y-116259828D02*
X177615367Y-116188400D01*
X177615367Y-116188400D02*
X177543939Y-116116971D01*
X178972510Y-114902685D02*
X179043938Y-114831257D01*
X179043938Y-114831257D02*
X179186796Y-114759828D01*
X179186796Y-114759828D02*
X179543938Y-114759828D01*
X179543938Y-114759828D02*
X179686796Y-114831257D01*
X179686796Y-114831257D02*
X179758224Y-114902685D01*
X179758224Y-114902685D02*
X179829653Y-115045542D01*
X179829653Y-115045542D02*
X179829653Y-115188400D01*
X179829653Y-115188400D02*
X179758224Y-115402685D01*
X179758224Y-115402685D02*
X178901081Y-116259828D01*
X178901081Y-116259828D02*
X179829653Y-116259828D01*
D11*
X127206476Y-122644819D02*
X127206476Y-123359104D01*
X127206476Y-123359104D02*
X127158857Y-123501961D01*
X127158857Y-123501961D02*
X127063619Y-123597200D01*
X127063619Y-123597200D02*
X126920762Y-123644819D01*
X126920762Y-123644819D02*
X126825524Y-123644819D01*
X128206476Y-123644819D02*
X127635048Y-123644819D01*
X127920762Y-123644819D02*
X127920762Y-122644819D01*
X127920762Y-122644819D02*
X127825524Y-122787676D01*
X127825524Y-122787676D02*
X127730286Y-122882914D01*
X127730286Y-122882914D02*
X127635048Y-122930533D01*
X129158857Y-123644819D02*
X128587429Y-123644819D01*
X128873143Y-123644819D02*
X128873143Y-122644819D01*
X128873143Y-122644819D02*
X128777905Y-122787676D01*
X128777905Y-122787676D02*
X128682667Y-122882914D01*
X128682667Y-122882914D02*
X128587429Y-122930533D01*
X124293809Y-77877200D02*
X124436666Y-77924819D01*
X124436666Y-77924819D02*
X124674761Y-77924819D01*
X124674761Y-77924819D02*
X124769999Y-77877200D01*
X124769999Y-77877200D02*
X124817618Y-77829580D01*
X124817618Y-77829580D02*
X124865237Y-77734342D01*
X124865237Y-77734342D02*
X124865237Y-77639104D01*
X124865237Y-77639104D02*
X124817618Y-77543866D01*
X124817618Y-77543866D02*
X124769999Y-77496247D01*
X124769999Y-77496247D02*
X124674761Y-77448628D01*
X124674761Y-77448628D02*
X124484285Y-77401009D01*
X124484285Y-77401009D02*
X124389047Y-77353390D01*
X124389047Y-77353390D02*
X124341428Y-77305771D01*
X124341428Y-77305771D02*
X124293809Y-77210533D01*
X124293809Y-77210533D02*
X124293809Y-77115295D01*
X124293809Y-77115295D02*
X124341428Y-77020057D01*
X124341428Y-77020057D02*
X124389047Y-76972438D01*
X124389047Y-76972438D02*
X124484285Y-76924819D01*
X124484285Y-76924819D02*
X124722380Y-76924819D01*
X124722380Y-76924819D02*
X124865237Y-76972438D01*
X125674761Y-77877200D02*
X125579523Y-77924819D01*
X125579523Y-77924819D02*
X125389047Y-77924819D01*
X125389047Y-77924819D02*
X125293809Y-77877200D01*
X125293809Y-77877200D02*
X125246190Y-77781961D01*
X125246190Y-77781961D02*
X125246190Y-77401009D01*
X125246190Y-77401009D02*
X125293809Y-77305771D01*
X125293809Y-77305771D02*
X125389047Y-77258152D01*
X125389047Y-77258152D02*
X125579523Y-77258152D01*
X125579523Y-77258152D02*
X125674761Y-77305771D01*
X125674761Y-77305771D02*
X125722380Y-77401009D01*
X125722380Y-77401009D02*
X125722380Y-77496247D01*
X125722380Y-77496247D02*
X125246190Y-77591485D01*
X126150952Y-77258152D02*
X126150952Y-77924819D01*
X126150952Y-77353390D02*
X126198571Y-77305771D01*
X126198571Y-77305771D02*
X126293809Y-77258152D01*
X126293809Y-77258152D02*
X126436666Y-77258152D01*
X126436666Y-77258152D02*
X126531904Y-77305771D01*
X126531904Y-77305771D02*
X126579523Y-77401009D01*
X126579523Y-77401009D02*
X126579523Y-77924819D01*
X127008095Y-77877200D02*
X127103333Y-77924819D01*
X127103333Y-77924819D02*
X127293809Y-77924819D01*
X127293809Y-77924819D02*
X127389047Y-77877200D01*
X127389047Y-77877200D02*
X127436666Y-77781961D01*
X127436666Y-77781961D02*
X127436666Y-77734342D01*
X127436666Y-77734342D02*
X127389047Y-77639104D01*
X127389047Y-77639104D02*
X127293809Y-77591485D01*
X127293809Y-77591485D02*
X127150952Y-77591485D01*
X127150952Y-77591485D02*
X127055714Y-77543866D01*
X127055714Y-77543866D02*
X127008095Y-77448628D01*
X127008095Y-77448628D02*
X127008095Y-77401009D01*
X127008095Y-77401009D02*
X127055714Y-77305771D01*
X127055714Y-77305771D02*
X127150952Y-77258152D01*
X127150952Y-77258152D02*
X127293809Y-77258152D01*
X127293809Y-77258152D02*
X127389047Y-77305771D01*
X128008095Y-77924819D02*
X127912857Y-77877200D01*
X127912857Y-77877200D02*
X127865238Y-77829580D01*
X127865238Y-77829580D02*
X127817619Y-77734342D01*
X127817619Y-77734342D02*
X127817619Y-77448628D01*
X127817619Y-77448628D02*
X127865238Y-77353390D01*
X127865238Y-77353390D02*
X127912857Y-77305771D01*
X127912857Y-77305771D02*
X128008095Y-77258152D01*
X128008095Y-77258152D02*
X128150952Y-77258152D01*
X128150952Y-77258152D02*
X128246190Y-77305771D01*
X128246190Y-77305771D02*
X128293809Y-77353390D01*
X128293809Y-77353390D02*
X128341428Y-77448628D01*
X128341428Y-77448628D02*
X128341428Y-77734342D01*
X128341428Y-77734342D02*
X128293809Y-77829580D01*
X128293809Y-77829580D02*
X128246190Y-77877200D01*
X128246190Y-77877200D02*
X128150952Y-77924819D01*
X128150952Y-77924819D02*
X128008095Y-77924819D01*
X128770000Y-77924819D02*
X128770000Y-77258152D01*
X128770000Y-77448628D02*
X128817619Y-77353390D01*
X128817619Y-77353390D02*
X128865238Y-77305771D01*
X128865238Y-77305771D02*
X128960476Y-77258152D01*
X128960476Y-77258152D02*
X129055714Y-77258152D01*
X129960476Y-77924819D02*
X129627143Y-77448628D01*
X129389048Y-77924819D02*
X129389048Y-76924819D01*
X129389048Y-76924819D02*
X129770000Y-76924819D01*
X129770000Y-76924819D02*
X129865238Y-76972438D01*
X129865238Y-76972438D02*
X129912857Y-77020057D01*
X129912857Y-77020057D02*
X129960476Y-77115295D01*
X129960476Y-77115295D02*
X129960476Y-77258152D01*
X129960476Y-77258152D02*
X129912857Y-77353390D01*
X129912857Y-77353390D02*
X129865238Y-77401009D01*
X129865238Y-77401009D02*
X129770000Y-77448628D01*
X129770000Y-77448628D02*
X129389048Y-77448628D01*
X130817619Y-77924819D02*
X130817619Y-77401009D01*
X130817619Y-77401009D02*
X130770000Y-77305771D01*
X130770000Y-77305771D02*
X130674762Y-77258152D01*
X130674762Y-77258152D02*
X130484286Y-77258152D01*
X130484286Y-77258152D02*
X130389048Y-77305771D01*
X130817619Y-77877200D02*
X130722381Y-77924819D01*
X130722381Y-77924819D02*
X130484286Y-77924819D01*
X130484286Y-77924819D02*
X130389048Y-77877200D01*
X130389048Y-77877200D02*
X130341429Y-77781961D01*
X130341429Y-77781961D02*
X130341429Y-77686723D01*
X130341429Y-77686723D02*
X130389048Y-77591485D01*
X130389048Y-77591485D02*
X130484286Y-77543866D01*
X130484286Y-77543866D02*
X130722381Y-77543866D01*
X130722381Y-77543866D02*
X130817619Y-77496247D01*
X131293810Y-77924819D02*
X131293810Y-77258152D01*
X131293810Y-76924819D02*
X131246191Y-76972438D01*
X131246191Y-76972438D02*
X131293810Y-77020057D01*
X131293810Y-77020057D02*
X131341429Y-76972438D01*
X131341429Y-76972438D02*
X131293810Y-76924819D01*
X131293810Y-76924819D02*
X131293810Y-77020057D01*
X131770000Y-77258152D02*
X131770000Y-77924819D01*
X131770000Y-77353390D02*
X131817619Y-77305771D01*
X131817619Y-77305771D02*
X131912857Y-77258152D01*
X131912857Y-77258152D02*
X132055714Y-77258152D01*
X132055714Y-77258152D02*
X132150952Y-77305771D01*
X132150952Y-77305771D02*
X132198571Y-77401009D01*
X132198571Y-77401009D02*
X132198571Y-77924819D01*
X159853333Y-92784819D02*
X159520000Y-92308628D01*
X159281905Y-92784819D02*
X159281905Y-91784819D01*
X159281905Y-91784819D02*
X159662857Y-91784819D01*
X159662857Y-91784819D02*
X159758095Y-91832438D01*
X159758095Y-91832438D02*
X159805714Y-91880057D01*
X159805714Y-91880057D02*
X159853333Y-91975295D01*
X159853333Y-91975295D02*
X159853333Y-92118152D01*
X159853333Y-92118152D02*
X159805714Y-92213390D01*
X159805714Y-92213390D02*
X159758095Y-92261009D01*
X159758095Y-92261009D02*
X159662857Y-92308628D01*
X159662857Y-92308628D02*
X159281905Y-92308628D01*
X160234286Y-91880057D02*
X160281905Y-91832438D01*
X160281905Y-91832438D02*
X160377143Y-91784819D01*
X160377143Y-91784819D02*
X160615238Y-91784819D01*
X160615238Y-91784819D02*
X160710476Y-91832438D01*
X160710476Y-91832438D02*
X160758095Y-91880057D01*
X160758095Y-91880057D02*
X160805714Y-91975295D01*
X160805714Y-91975295D02*
X160805714Y-92070533D01*
X160805714Y-92070533D02*
X160758095Y-92213390D01*
X160758095Y-92213390D02*
X160186667Y-92784819D01*
X160186667Y-92784819D02*
X160805714Y-92784819D01*
X127936666Y-101364819D02*
X127936666Y-102079104D01*
X127936666Y-102079104D02*
X127889047Y-102221961D01*
X127889047Y-102221961D02*
X127793809Y-102317200D01*
X127793809Y-102317200D02*
X127650952Y-102364819D01*
X127650952Y-102364819D02*
X127555714Y-102364819D01*
X128317619Y-101364819D02*
X128984285Y-101364819D01*
X128984285Y-101364819D02*
X128555714Y-102364819D01*
X125984285Y-94434819D02*
X125508095Y-94434819D01*
X125508095Y-94434819D02*
X125508095Y-93434819D01*
X126317619Y-93911009D02*
X126650952Y-93911009D01*
X126793809Y-94434819D02*
X126317619Y-94434819D01*
X126317619Y-94434819D02*
X126317619Y-93434819D01*
X126317619Y-93434819D02*
X126793809Y-93434819D01*
X127222381Y-94434819D02*
X127222381Y-93434819D01*
X127222381Y-93434819D02*
X127460476Y-93434819D01*
X127460476Y-93434819D02*
X127603333Y-93482438D01*
X127603333Y-93482438D02*
X127698571Y-93577676D01*
X127698571Y-93577676D02*
X127746190Y-93672914D01*
X127746190Y-93672914D02*
X127793809Y-93863390D01*
X127793809Y-93863390D02*
X127793809Y-94006247D01*
X127793809Y-94006247D02*
X127746190Y-94196723D01*
X127746190Y-94196723D02*
X127698571Y-94291961D01*
X127698571Y-94291961D02*
X127603333Y-94387200D01*
X127603333Y-94387200D02*
X127460476Y-94434819D01*
X127460476Y-94434819D02*
X127222381Y-94434819D01*
X128793809Y-94434819D02*
X128460476Y-93958628D01*
X128222381Y-94434819D02*
X128222381Y-93434819D01*
X128222381Y-93434819D02*
X128603333Y-93434819D01*
X128603333Y-93434819D02*
X128698571Y-93482438D01*
X128698571Y-93482438D02*
X128746190Y-93530057D01*
X128746190Y-93530057D02*
X128793809Y-93625295D01*
X128793809Y-93625295D02*
X128793809Y-93768152D01*
X128793809Y-93768152D02*
X128746190Y-93863390D01*
X128746190Y-93863390D02*
X128698571Y-93911009D01*
X128698571Y-93911009D02*
X128603333Y-93958628D01*
X128603333Y-93958628D02*
X128222381Y-93958628D01*
X129650952Y-94434819D02*
X129650952Y-93911009D01*
X129650952Y-93911009D02*
X129603333Y-93815771D01*
X129603333Y-93815771D02*
X129508095Y-93768152D01*
X129508095Y-93768152D02*
X129317619Y-93768152D01*
X129317619Y-93768152D02*
X129222381Y-93815771D01*
X129650952Y-94387200D02*
X129555714Y-94434819D01*
X129555714Y-94434819D02*
X129317619Y-94434819D01*
X129317619Y-94434819D02*
X129222381Y-94387200D01*
X129222381Y-94387200D02*
X129174762Y-94291961D01*
X129174762Y-94291961D02*
X129174762Y-94196723D01*
X129174762Y-94196723D02*
X129222381Y-94101485D01*
X129222381Y-94101485D02*
X129317619Y-94053866D01*
X129317619Y-94053866D02*
X129555714Y-94053866D01*
X129555714Y-94053866D02*
X129650952Y-94006247D01*
X130127143Y-94434819D02*
X130127143Y-93768152D01*
X130127143Y-93434819D02*
X130079524Y-93482438D01*
X130079524Y-93482438D02*
X130127143Y-93530057D01*
X130127143Y-93530057D02*
X130174762Y-93482438D01*
X130174762Y-93482438D02*
X130127143Y-93434819D01*
X130127143Y-93434819D02*
X130127143Y-93530057D01*
X130603333Y-93768152D02*
X130603333Y-94434819D01*
X130603333Y-93863390D02*
X130650952Y-93815771D01*
X130650952Y-93815771D02*
X130746190Y-93768152D01*
X130746190Y-93768152D02*
X130889047Y-93768152D01*
X130889047Y-93768152D02*
X130984285Y-93815771D01*
X130984285Y-93815771D02*
X131031904Y-93911009D01*
X131031904Y-93911009D02*
X131031904Y-94434819D01*
X129159048Y-101673866D02*
X129920953Y-101673866D01*
X129540000Y-102054819D02*
X129540000Y-101292914D01*
X126619048Y-101673866D02*
X127380953Y-101673866D01*
X181374819Y-90503333D02*
X182089104Y-90503333D01*
X182089104Y-90503333D02*
X182231961Y-90550952D01*
X182231961Y-90550952D02*
X182327200Y-90646190D01*
X182327200Y-90646190D02*
X182374819Y-90789047D01*
X182374819Y-90789047D02*
X182374819Y-90884285D01*
X181374819Y-90122380D02*
X181374819Y-89503333D01*
X181374819Y-89503333D02*
X181755771Y-89836666D01*
X181755771Y-89836666D02*
X181755771Y-89693809D01*
X181755771Y-89693809D02*
X181803390Y-89598571D01*
X181803390Y-89598571D02*
X181851009Y-89550952D01*
X181851009Y-89550952D02*
X181946247Y-89503333D01*
X181946247Y-89503333D02*
X182184342Y-89503333D01*
X182184342Y-89503333D02*
X182279580Y-89550952D01*
X182279580Y-89550952D02*
X182327200Y-89598571D01*
X182327200Y-89598571D02*
X182374819Y-89693809D01*
X182374819Y-89693809D02*
X182374819Y-89979523D01*
X182374819Y-89979523D02*
X182327200Y-90074761D01*
X182327200Y-90074761D02*
X182279580Y-90122380D01*
X173244761Y-85497200D02*
X173387618Y-85544819D01*
X173387618Y-85544819D02*
X173625713Y-85544819D01*
X173625713Y-85544819D02*
X173720951Y-85497200D01*
X173720951Y-85497200D02*
X173768570Y-85449580D01*
X173768570Y-85449580D02*
X173816189Y-85354342D01*
X173816189Y-85354342D02*
X173816189Y-85259104D01*
X173816189Y-85259104D02*
X173768570Y-85163866D01*
X173768570Y-85163866D02*
X173720951Y-85116247D01*
X173720951Y-85116247D02*
X173625713Y-85068628D01*
X173625713Y-85068628D02*
X173435237Y-85021009D01*
X173435237Y-85021009D02*
X173339999Y-84973390D01*
X173339999Y-84973390D02*
X173292380Y-84925771D01*
X173292380Y-84925771D02*
X173244761Y-84830533D01*
X173244761Y-84830533D02*
X173244761Y-84735295D01*
X173244761Y-84735295D02*
X173292380Y-84640057D01*
X173292380Y-84640057D02*
X173339999Y-84592438D01*
X173339999Y-84592438D02*
X173435237Y-84544819D01*
X173435237Y-84544819D02*
X173673332Y-84544819D01*
X173673332Y-84544819D02*
X173816189Y-84592438D01*
X174625713Y-85497200D02*
X174530475Y-85544819D01*
X174530475Y-85544819D02*
X174339999Y-85544819D01*
X174339999Y-85544819D02*
X174244761Y-85497200D01*
X174244761Y-85497200D02*
X174197142Y-85401961D01*
X174197142Y-85401961D02*
X174197142Y-85021009D01*
X174197142Y-85021009D02*
X174244761Y-84925771D01*
X174244761Y-84925771D02*
X174339999Y-84878152D01*
X174339999Y-84878152D02*
X174530475Y-84878152D01*
X174530475Y-84878152D02*
X174625713Y-84925771D01*
X174625713Y-84925771D02*
X174673332Y-85021009D01*
X174673332Y-85021009D02*
X174673332Y-85116247D01*
X174673332Y-85116247D02*
X174197142Y-85211485D01*
X175101904Y-84878152D02*
X175101904Y-85544819D01*
X175101904Y-84973390D02*
X175149523Y-84925771D01*
X175149523Y-84925771D02*
X175244761Y-84878152D01*
X175244761Y-84878152D02*
X175387618Y-84878152D01*
X175387618Y-84878152D02*
X175482856Y-84925771D01*
X175482856Y-84925771D02*
X175530475Y-85021009D01*
X175530475Y-85021009D02*
X175530475Y-85544819D01*
X175959047Y-85497200D02*
X176054285Y-85544819D01*
X176054285Y-85544819D02*
X176244761Y-85544819D01*
X176244761Y-85544819D02*
X176339999Y-85497200D01*
X176339999Y-85497200D02*
X176387618Y-85401961D01*
X176387618Y-85401961D02*
X176387618Y-85354342D01*
X176387618Y-85354342D02*
X176339999Y-85259104D01*
X176339999Y-85259104D02*
X176244761Y-85211485D01*
X176244761Y-85211485D02*
X176101904Y-85211485D01*
X176101904Y-85211485D02*
X176006666Y-85163866D01*
X176006666Y-85163866D02*
X175959047Y-85068628D01*
X175959047Y-85068628D02*
X175959047Y-85021009D01*
X175959047Y-85021009D02*
X176006666Y-84925771D01*
X176006666Y-84925771D02*
X176101904Y-84878152D01*
X176101904Y-84878152D02*
X176244761Y-84878152D01*
X176244761Y-84878152D02*
X176339999Y-84925771D01*
X176959047Y-85544819D02*
X176863809Y-85497200D01*
X176863809Y-85497200D02*
X176816190Y-85449580D01*
X176816190Y-85449580D02*
X176768571Y-85354342D01*
X176768571Y-85354342D02*
X176768571Y-85068628D01*
X176768571Y-85068628D02*
X176816190Y-84973390D01*
X176816190Y-84973390D02*
X176863809Y-84925771D01*
X176863809Y-84925771D02*
X176959047Y-84878152D01*
X176959047Y-84878152D02*
X177101904Y-84878152D01*
X177101904Y-84878152D02*
X177197142Y-84925771D01*
X177197142Y-84925771D02*
X177244761Y-84973390D01*
X177244761Y-84973390D02*
X177292380Y-85068628D01*
X177292380Y-85068628D02*
X177292380Y-85354342D01*
X177292380Y-85354342D02*
X177244761Y-85449580D01*
X177244761Y-85449580D02*
X177197142Y-85497200D01*
X177197142Y-85497200D02*
X177101904Y-85544819D01*
X177101904Y-85544819D02*
X176959047Y-85544819D01*
X177720952Y-85544819D02*
X177720952Y-84878152D01*
X177720952Y-85068628D02*
X177768571Y-84973390D01*
X177768571Y-84973390D02*
X177816190Y-84925771D01*
X177816190Y-84925771D02*
X177911428Y-84878152D01*
X177911428Y-84878152D02*
X178006666Y-84878152D01*
X178292381Y-85497200D02*
X178435238Y-85544819D01*
X178435238Y-85544819D02*
X178673333Y-85544819D01*
X178673333Y-85544819D02*
X178768571Y-85497200D01*
X178768571Y-85497200D02*
X178816190Y-85449580D01*
X178816190Y-85449580D02*
X178863809Y-85354342D01*
X178863809Y-85354342D02*
X178863809Y-85259104D01*
X178863809Y-85259104D02*
X178816190Y-85163866D01*
X178816190Y-85163866D02*
X178768571Y-85116247D01*
X178768571Y-85116247D02*
X178673333Y-85068628D01*
X178673333Y-85068628D02*
X178482857Y-85021009D01*
X178482857Y-85021009D02*
X178387619Y-84973390D01*
X178387619Y-84973390D02*
X178340000Y-84925771D01*
X178340000Y-84925771D02*
X178292381Y-84830533D01*
X178292381Y-84830533D02*
X178292381Y-84735295D01*
X178292381Y-84735295D02*
X178340000Y-84640057D01*
X178340000Y-84640057D02*
X178387619Y-84592438D01*
X178387619Y-84592438D02*
X178482857Y-84544819D01*
X178482857Y-84544819D02*
X178720952Y-84544819D01*
X178720952Y-84544819D02*
X178863809Y-84592438D01*
X179720952Y-84878152D02*
X179720952Y-85544819D01*
X179292381Y-84878152D02*
X179292381Y-85401961D01*
X179292381Y-85401961D02*
X179340000Y-85497200D01*
X179340000Y-85497200D02*
X179435238Y-85544819D01*
X179435238Y-85544819D02*
X179578095Y-85544819D01*
X179578095Y-85544819D02*
X179673333Y-85497200D01*
X179673333Y-85497200D02*
X179720952Y-85449580D01*
X180197143Y-85544819D02*
X180197143Y-84878152D01*
X180197143Y-85068628D02*
X180244762Y-84973390D01*
X180244762Y-84973390D02*
X180292381Y-84925771D01*
X180292381Y-84925771D02*
X180387619Y-84878152D01*
X180387619Y-84878152D02*
X180482857Y-84878152D01*
X180673334Y-84878152D02*
X181054286Y-84878152D01*
X180816191Y-85544819D02*
X180816191Y-84687676D01*
X180816191Y-84687676D02*
X180863810Y-84592438D01*
X180863810Y-84592438D02*
X180959048Y-84544819D01*
X180959048Y-84544819D02*
X181054286Y-84544819D01*
X181816191Y-85544819D02*
X181816191Y-85021009D01*
X181816191Y-85021009D02*
X181768572Y-84925771D01*
X181768572Y-84925771D02*
X181673334Y-84878152D01*
X181673334Y-84878152D02*
X181482858Y-84878152D01*
X181482858Y-84878152D02*
X181387620Y-84925771D01*
X181816191Y-85497200D02*
X181720953Y-85544819D01*
X181720953Y-85544819D02*
X181482858Y-85544819D01*
X181482858Y-85544819D02*
X181387620Y-85497200D01*
X181387620Y-85497200D02*
X181340001Y-85401961D01*
X181340001Y-85401961D02*
X181340001Y-85306723D01*
X181340001Y-85306723D02*
X181387620Y-85211485D01*
X181387620Y-85211485D02*
X181482858Y-85163866D01*
X181482858Y-85163866D02*
X181720953Y-85163866D01*
X181720953Y-85163866D02*
X181816191Y-85116247D01*
X182720953Y-85497200D02*
X182625715Y-85544819D01*
X182625715Y-85544819D02*
X182435239Y-85544819D01*
X182435239Y-85544819D02*
X182340001Y-85497200D01*
X182340001Y-85497200D02*
X182292382Y-85449580D01*
X182292382Y-85449580D02*
X182244763Y-85354342D01*
X182244763Y-85354342D02*
X182244763Y-85068628D01*
X182244763Y-85068628D02*
X182292382Y-84973390D01*
X182292382Y-84973390D02*
X182340001Y-84925771D01*
X182340001Y-84925771D02*
X182435239Y-84878152D01*
X182435239Y-84878152D02*
X182625715Y-84878152D01*
X182625715Y-84878152D02*
X182720953Y-84925771D01*
X183530477Y-85497200D02*
X183435239Y-85544819D01*
X183435239Y-85544819D02*
X183244763Y-85544819D01*
X183244763Y-85544819D02*
X183149525Y-85497200D01*
X183149525Y-85497200D02*
X183101906Y-85401961D01*
X183101906Y-85401961D02*
X183101906Y-85021009D01*
X183101906Y-85021009D02*
X183149525Y-84925771D01*
X183149525Y-84925771D02*
X183244763Y-84878152D01*
X183244763Y-84878152D02*
X183435239Y-84878152D01*
X183435239Y-84878152D02*
X183530477Y-84925771D01*
X183530477Y-84925771D02*
X183578096Y-85021009D01*
X183578096Y-85021009D02*
X183578096Y-85116247D01*
X183578096Y-85116247D02*
X183101906Y-85211485D01*
X183863811Y-84544819D02*
X184435239Y-84544819D01*
X184149525Y-85544819D02*
X184149525Y-84544819D01*
X185149525Y-85497200D02*
X185054287Y-85544819D01*
X185054287Y-85544819D02*
X184863811Y-85544819D01*
X184863811Y-85544819D02*
X184768573Y-85497200D01*
X184768573Y-85497200D02*
X184720954Y-85401961D01*
X184720954Y-85401961D02*
X184720954Y-85021009D01*
X184720954Y-85021009D02*
X184768573Y-84925771D01*
X184768573Y-84925771D02*
X184863811Y-84878152D01*
X184863811Y-84878152D02*
X185054287Y-84878152D01*
X185054287Y-84878152D02*
X185149525Y-84925771D01*
X185149525Y-84925771D02*
X185197144Y-85021009D01*
X185197144Y-85021009D02*
X185197144Y-85116247D01*
X185197144Y-85116247D02*
X184720954Y-85211485D01*
X185625716Y-85544819D02*
X185625716Y-84878152D01*
X185625716Y-84973390D02*
X185673335Y-84925771D01*
X185673335Y-84925771D02*
X185768573Y-84878152D01*
X185768573Y-84878152D02*
X185911430Y-84878152D01*
X185911430Y-84878152D02*
X186006668Y-84925771D01*
X186006668Y-84925771D02*
X186054287Y-85021009D01*
X186054287Y-85021009D02*
X186054287Y-85544819D01*
X186054287Y-85021009D02*
X186101906Y-84925771D01*
X186101906Y-84925771D02*
X186197144Y-84878152D01*
X186197144Y-84878152D02*
X186340001Y-84878152D01*
X186340001Y-84878152D02*
X186435240Y-84925771D01*
X186435240Y-84925771D02*
X186482859Y-85021009D01*
X186482859Y-85021009D02*
X186482859Y-85544819D01*
X186959049Y-84878152D02*
X186959049Y-85878152D01*
X186959049Y-84925771D02*
X187054287Y-84878152D01*
X187054287Y-84878152D02*
X187244763Y-84878152D01*
X187244763Y-84878152D02*
X187340001Y-84925771D01*
X187340001Y-84925771D02*
X187387620Y-84973390D01*
X187387620Y-84973390D02*
X187435239Y-85068628D01*
X187435239Y-85068628D02*
X187435239Y-85354342D01*
X187435239Y-85354342D02*
X187387620Y-85449580D01*
X187387620Y-85449580D02*
X187340001Y-85497200D01*
X187340001Y-85497200D02*
X187244763Y-85544819D01*
X187244763Y-85544819D02*
X187054287Y-85544819D01*
X187054287Y-85544819D02*
X186959049Y-85497200D01*
X109285833Y-69799580D02*
X109238214Y-69847200D01*
X109238214Y-69847200D02*
X109095357Y-69894819D01*
X109095357Y-69894819D02*
X109000119Y-69894819D01*
X109000119Y-69894819D02*
X108857262Y-69847200D01*
X108857262Y-69847200D02*
X108762024Y-69751961D01*
X108762024Y-69751961D02*
X108714405Y-69656723D01*
X108714405Y-69656723D02*
X108666786Y-69466247D01*
X108666786Y-69466247D02*
X108666786Y-69323390D01*
X108666786Y-69323390D02*
X108714405Y-69132914D01*
X108714405Y-69132914D02*
X108762024Y-69037676D01*
X108762024Y-69037676D02*
X108857262Y-68942438D01*
X108857262Y-68942438D02*
X109000119Y-68894819D01*
X109000119Y-68894819D02*
X109095357Y-68894819D01*
X109095357Y-68894819D02*
X109238214Y-68942438D01*
X109238214Y-68942438D02*
X109285833Y-68990057D01*
X110238214Y-69894819D02*
X109666786Y-69894819D01*
X109952500Y-69894819D02*
X109952500Y-68894819D01*
X109952500Y-68894819D02*
X109857262Y-69037676D01*
X109857262Y-69037676D02*
X109762024Y-69132914D01*
X109762024Y-69132914D02*
X109666786Y-69180533D01*
X115914819Y-71286666D02*
X115438628Y-71619999D01*
X115914819Y-71858094D02*
X114914819Y-71858094D01*
X114914819Y-71858094D02*
X114914819Y-71477142D01*
X114914819Y-71477142D02*
X114962438Y-71381904D01*
X114962438Y-71381904D02*
X115010057Y-71334285D01*
X115010057Y-71334285D02*
X115105295Y-71286666D01*
X115105295Y-71286666D02*
X115248152Y-71286666D01*
X115248152Y-71286666D02*
X115343390Y-71334285D01*
X115343390Y-71334285D02*
X115391009Y-71381904D01*
X115391009Y-71381904D02*
X115438628Y-71477142D01*
X115438628Y-71477142D02*
X115438628Y-71858094D01*
X115914819Y-70334285D02*
X115914819Y-70905713D01*
X115914819Y-70619999D02*
X114914819Y-70619999D01*
X114914819Y-70619999D02*
X115057676Y-70715237D01*
X115057676Y-70715237D02*
X115152914Y-70810475D01*
X115152914Y-70810475D02*
X115200533Y-70905713D01*
X107981905Y-105319819D02*
X107981905Y-104319819D01*
X107981905Y-104319819D02*
X108220000Y-104319819D01*
X108220000Y-104319819D02*
X108362857Y-104367438D01*
X108362857Y-104367438D02*
X108458095Y-104462676D01*
X108458095Y-104462676D02*
X108505714Y-104557914D01*
X108505714Y-104557914D02*
X108553333Y-104748390D01*
X108553333Y-104748390D02*
X108553333Y-104891247D01*
X108553333Y-104891247D02*
X108505714Y-105081723D01*
X108505714Y-105081723D02*
X108458095Y-105176961D01*
X108458095Y-105176961D02*
X108362857Y-105272200D01*
X108362857Y-105272200D02*
X108220000Y-105319819D01*
X108220000Y-105319819D02*
X107981905Y-105319819D01*
X109505714Y-105319819D02*
X108934286Y-105319819D01*
X109220000Y-105319819D02*
X109220000Y-104319819D01*
X109220000Y-104319819D02*
X109124762Y-104462676D01*
X109124762Y-104462676D02*
X109029524Y-104557914D01*
X109029524Y-104557914D02*
X108934286Y-104605533D01*
X111252048Y-104594866D02*
X112013953Y-104594866D01*
X111633000Y-104975819D02*
X111633000Y-104213914D01*
X105410048Y-104594866D02*
X106171953Y-104594866D01*
X106553095Y-111639819D02*
X106553095Y-110639819D01*
X107124523Y-111639819D02*
X106695952Y-111068390D01*
X107124523Y-110639819D02*
X106553095Y-111211247D01*
X164092380Y-76654819D02*
X163616190Y-76654819D01*
X163616190Y-76654819D02*
X163616190Y-75654819D01*
X164425714Y-76131009D02*
X164759047Y-76131009D01*
X164901904Y-76654819D02*
X164425714Y-76654819D01*
X164425714Y-76654819D02*
X164425714Y-75654819D01*
X164425714Y-75654819D02*
X164901904Y-75654819D01*
X165330476Y-76654819D02*
X165330476Y-75654819D01*
X165330476Y-75654819D02*
X165568571Y-75654819D01*
X165568571Y-75654819D02*
X165711428Y-75702438D01*
X165711428Y-75702438D02*
X165806666Y-75797676D01*
X165806666Y-75797676D02*
X165854285Y-75892914D01*
X165854285Y-75892914D02*
X165901904Y-76083390D01*
X165901904Y-76083390D02*
X165901904Y-76226247D01*
X165901904Y-76226247D02*
X165854285Y-76416723D01*
X165854285Y-76416723D02*
X165806666Y-76511961D01*
X165806666Y-76511961D02*
X165711428Y-76607200D01*
X165711428Y-76607200D02*
X165568571Y-76654819D01*
X165568571Y-76654819D02*
X165330476Y-76654819D01*
X166282857Y-76369104D02*
X166759047Y-76369104D01*
X166187619Y-76654819D02*
X166520952Y-75654819D01*
X166520952Y-75654819D02*
X166854285Y-76654819D01*
X167187619Y-76654819D02*
X167187619Y-75988152D01*
X167187619Y-75654819D02*
X167140000Y-75702438D01*
X167140000Y-75702438D02*
X167187619Y-75750057D01*
X167187619Y-75750057D02*
X167235238Y-75702438D01*
X167235238Y-75702438D02*
X167187619Y-75654819D01*
X167187619Y-75654819D02*
X167187619Y-75750057D01*
X167663809Y-76654819D02*
X167663809Y-75988152D01*
X167663809Y-76178628D02*
X167711428Y-76083390D01*
X167711428Y-76083390D02*
X167759047Y-76035771D01*
X167759047Y-76035771D02*
X167854285Y-75988152D01*
X167854285Y-75988152D02*
X167949523Y-75988152D01*
X168140000Y-75654819D02*
X168711428Y-75654819D01*
X168425714Y-76654819D02*
X168425714Y-75654819D01*
X169425714Y-76607200D02*
X169330476Y-76654819D01*
X169330476Y-76654819D02*
X169140000Y-76654819D01*
X169140000Y-76654819D02*
X169044762Y-76607200D01*
X169044762Y-76607200D02*
X168997143Y-76511961D01*
X168997143Y-76511961D02*
X168997143Y-76131009D01*
X168997143Y-76131009D02*
X169044762Y-76035771D01*
X169044762Y-76035771D02*
X169140000Y-75988152D01*
X169140000Y-75988152D02*
X169330476Y-75988152D01*
X169330476Y-75988152D02*
X169425714Y-76035771D01*
X169425714Y-76035771D02*
X169473333Y-76131009D01*
X169473333Y-76131009D02*
X169473333Y-76226247D01*
X169473333Y-76226247D02*
X168997143Y-76321485D01*
X169901905Y-76654819D02*
X169901905Y-75988152D01*
X169901905Y-76083390D02*
X169949524Y-76035771D01*
X169949524Y-76035771D02*
X170044762Y-75988152D01*
X170044762Y-75988152D02*
X170187619Y-75988152D01*
X170187619Y-75988152D02*
X170282857Y-76035771D01*
X170282857Y-76035771D02*
X170330476Y-76131009D01*
X170330476Y-76131009D02*
X170330476Y-76654819D01*
X170330476Y-76131009D02*
X170378095Y-76035771D01*
X170378095Y-76035771D02*
X170473333Y-75988152D01*
X170473333Y-75988152D02*
X170616190Y-75988152D01*
X170616190Y-75988152D02*
X170711429Y-76035771D01*
X170711429Y-76035771D02*
X170759048Y-76131009D01*
X170759048Y-76131009D02*
X170759048Y-76654819D01*
X171235238Y-75988152D02*
X171235238Y-76988152D01*
X171235238Y-76035771D02*
X171330476Y-75988152D01*
X171330476Y-75988152D02*
X171520952Y-75988152D01*
X171520952Y-75988152D02*
X171616190Y-76035771D01*
X171616190Y-76035771D02*
X171663809Y-76083390D01*
X171663809Y-76083390D02*
X171711428Y-76178628D01*
X171711428Y-76178628D02*
X171711428Y-76464342D01*
X171711428Y-76464342D02*
X171663809Y-76559580D01*
X171663809Y-76559580D02*
X171616190Y-76607200D01*
X171616190Y-76607200D02*
X171520952Y-76654819D01*
X171520952Y-76654819D02*
X171330476Y-76654819D01*
X171330476Y-76654819D02*
X171235238Y-76607200D01*
X165989048Y-83893866D02*
X166750953Y-83893866D01*
X166370000Y-84274819D02*
X166370000Y-83512914D01*
X168529048Y-83893866D02*
X169290953Y-83893866D01*
X144613333Y-91894819D02*
X144280000Y-91418628D01*
X144041905Y-91894819D02*
X144041905Y-90894819D01*
X144041905Y-90894819D02*
X144422857Y-90894819D01*
X144422857Y-90894819D02*
X144518095Y-90942438D01*
X144518095Y-90942438D02*
X144565714Y-90990057D01*
X144565714Y-90990057D02*
X144613333Y-91085295D01*
X144613333Y-91085295D02*
X144613333Y-91228152D01*
X144613333Y-91228152D02*
X144565714Y-91323390D01*
X144565714Y-91323390D02*
X144518095Y-91371009D01*
X144518095Y-91371009D02*
X144422857Y-91418628D01*
X144422857Y-91418628D02*
X144041905Y-91418628D01*
X145518095Y-90894819D02*
X145041905Y-90894819D01*
X145041905Y-90894819D02*
X144994286Y-91371009D01*
X144994286Y-91371009D02*
X145041905Y-91323390D01*
X145041905Y-91323390D02*
X145137143Y-91275771D01*
X145137143Y-91275771D02*
X145375238Y-91275771D01*
X145375238Y-91275771D02*
X145470476Y-91323390D01*
X145470476Y-91323390D02*
X145518095Y-91371009D01*
X145518095Y-91371009D02*
X145565714Y-91466247D01*
X145565714Y-91466247D02*
X145565714Y-91704342D01*
X145565714Y-91704342D02*
X145518095Y-91799580D01*
X145518095Y-91799580D02*
X145470476Y-91847200D01*
X145470476Y-91847200D02*
X145375238Y-91894819D01*
X145375238Y-91894819D02*
X145137143Y-91894819D01*
X145137143Y-91894819D02*
X145041905Y-91847200D01*
X145041905Y-91847200D02*
X144994286Y-91799580D01*
X130643333Y-116408580D02*
X130595714Y-116456200D01*
X130595714Y-116456200D02*
X130452857Y-116503819D01*
X130452857Y-116503819D02*
X130357619Y-116503819D01*
X130357619Y-116503819D02*
X130214762Y-116456200D01*
X130214762Y-116456200D02*
X130119524Y-116360961D01*
X130119524Y-116360961D02*
X130071905Y-116265723D01*
X130071905Y-116265723D02*
X130024286Y-116075247D01*
X130024286Y-116075247D02*
X130024286Y-115932390D01*
X130024286Y-115932390D02*
X130071905Y-115741914D01*
X130071905Y-115741914D02*
X130119524Y-115646676D01*
X130119524Y-115646676D02*
X130214762Y-115551438D01*
X130214762Y-115551438D02*
X130357619Y-115503819D01*
X130357619Y-115503819D02*
X130452857Y-115503819D01*
X130452857Y-115503819D02*
X130595714Y-115551438D01*
X130595714Y-115551438D02*
X130643333Y-115599057D01*
X131500476Y-115503819D02*
X131310000Y-115503819D01*
X131310000Y-115503819D02*
X131214762Y-115551438D01*
X131214762Y-115551438D02*
X131167143Y-115599057D01*
X131167143Y-115599057D02*
X131071905Y-115741914D01*
X131071905Y-115741914D02*
X131024286Y-115932390D01*
X131024286Y-115932390D02*
X131024286Y-116313342D01*
X131024286Y-116313342D02*
X131071905Y-116408580D01*
X131071905Y-116408580D02*
X131119524Y-116456200D01*
X131119524Y-116456200D02*
X131214762Y-116503819D01*
X131214762Y-116503819D02*
X131405238Y-116503819D01*
X131405238Y-116503819D02*
X131500476Y-116456200D01*
X131500476Y-116456200D02*
X131548095Y-116408580D01*
X131548095Y-116408580D02*
X131595714Y-116313342D01*
X131595714Y-116313342D02*
X131595714Y-116075247D01*
X131595714Y-116075247D02*
X131548095Y-115980009D01*
X131548095Y-115980009D02*
X131500476Y-115932390D01*
X131500476Y-115932390D02*
X131405238Y-115884771D01*
X131405238Y-115884771D02*
X131214762Y-115884771D01*
X131214762Y-115884771D02*
X131119524Y-115932390D01*
X131119524Y-115932390D02*
X131071905Y-115980009D01*
X131071905Y-115980009D02*
X131024286Y-116075247D01*
X162235237Y-86814819D02*
X161759047Y-86814819D01*
X161759047Y-86814819D02*
X161759047Y-85814819D01*
X162568571Y-86291009D02*
X162901904Y-86291009D01*
X163044761Y-86814819D02*
X162568571Y-86814819D01*
X162568571Y-86814819D02*
X162568571Y-85814819D01*
X162568571Y-85814819D02*
X163044761Y-85814819D01*
X163473333Y-86814819D02*
X163473333Y-85814819D01*
X163473333Y-85814819D02*
X163711428Y-85814819D01*
X163711428Y-85814819D02*
X163854285Y-85862438D01*
X163854285Y-85862438D02*
X163949523Y-85957676D01*
X163949523Y-85957676D02*
X163997142Y-86052914D01*
X163997142Y-86052914D02*
X164044761Y-86243390D01*
X164044761Y-86243390D02*
X164044761Y-86386247D01*
X164044761Y-86386247D02*
X163997142Y-86576723D01*
X163997142Y-86576723D02*
X163949523Y-86671961D01*
X163949523Y-86671961D02*
X163854285Y-86767200D01*
X163854285Y-86767200D02*
X163711428Y-86814819D01*
X163711428Y-86814819D02*
X163473333Y-86814819D01*
X164425714Y-86767200D02*
X164568571Y-86814819D01*
X164568571Y-86814819D02*
X164806666Y-86814819D01*
X164806666Y-86814819D02*
X164901904Y-86767200D01*
X164901904Y-86767200D02*
X164949523Y-86719580D01*
X164949523Y-86719580D02*
X164997142Y-86624342D01*
X164997142Y-86624342D02*
X164997142Y-86529104D01*
X164997142Y-86529104D02*
X164949523Y-86433866D01*
X164949523Y-86433866D02*
X164901904Y-86386247D01*
X164901904Y-86386247D02*
X164806666Y-86338628D01*
X164806666Y-86338628D02*
X164616190Y-86291009D01*
X164616190Y-86291009D02*
X164520952Y-86243390D01*
X164520952Y-86243390D02*
X164473333Y-86195771D01*
X164473333Y-86195771D02*
X164425714Y-86100533D01*
X164425714Y-86100533D02*
X164425714Y-86005295D01*
X164425714Y-86005295D02*
X164473333Y-85910057D01*
X164473333Y-85910057D02*
X164520952Y-85862438D01*
X164520952Y-85862438D02*
X164616190Y-85814819D01*
X164616190Y-85814819D02*
X164854285Y-85814819D01*
X164854285Y-85814819D02*
X164997142Y-85862438D01*
X165854285Y-86148152D02*
X165854285Y-86814819D01*
X165425714Y-86148152D02*
X165425714Y-86671961D01*
X165425714Y-86671961D02*
X165473333Y-86767200D01*
X165473333Y-86767200D02*
X165568571Y-86814819D01*
X165568571Y-86814819D02*
X165711428Y-86814819D01*
X165711428Y-86814819D02*
X165806666Y-86767200D01*
X165806666Y-86767200D02*
X165854285Y-86719580D01*
X166330476Y-86814819D02*
X166330476Y-86148152D01*
X166330476Y-86338628D02*
X166378095Y-86243390D01*
X166378095Y-86243390D02*
X166425714Y-86195771D01*
X166425714Y-86195771D02*
X166520952Y-86148152D01*
X166520952Y-86148152D02*
X166616190Y-86148152D01*
X166806667Y-86148152D02*
X167187619Y-86148152D01*
X166949524Y-86814819D02*
X166949524Y-85957676D01*
X166949524Y-85957676D02*
X166997143Y-85862438D01*
X166997143Y-85862438D02*
X167092381Y-85814819D01*
X167092381Y-85814819D02*
X167187619Y-85814819D01*
X167949524Y-86814819D02*
X167949524Y-86291009D01*
X167949524Y-86291009D02*
X167901905Y-86195771D01*
X167901905Y-86195771D02*
X167806667Y-86148152D01*
X167806667Y-86148152D02*
X167616191Y-86148152D01*
X167616191Y-86148152D02*
X167520953Y-86195771D01*
X167949524Y-86767200D02*
X167854286Y-86814819D01*
X167854286Y-86814819D02*
X167616191Y-86814819D01*
X167616191Y-86814819D02*
X167520953Y-86767200D01*
X167520953Y-86767200D02*
X167473334Y-86671961D01*
X167473334Y-86671961D02*
X167473334Y-86576723D01*
X167473334Y-86576723D02*
X167520953Y-86481485D01*
X167520953Y-86481485D02*
X167616191Y-86433866D01*
X167616191Y-86433866D02*
X167854286Y-86433866D01*
X167854286Y-86433866D02*
X167949524Y-86386247D01*
X168854286Y-86767200D02*
X168759048Y-86814819D01*
X168759048Y-86814819D02*
X168568572Y-86814819D01*
X168568572Y-86814819D02*
X168473334Y-86767200D01*
X168473334Y-86767200D02*
X168425715Y-86719580D01*
X168425715Y-86719580D02*
X168378096Y-86624342D01*
X168378096Y-86624342D02*
X168378096Y-86338628D01*
X168378096Y-86338628D02*
X168425715Y-86243390D01*
X168425715Y-86243390D02*
X168473334Y-86195771D01*
X168473334Y-86195771D02*
X168568572Y-86148152D01*
X168568572Y-86148152D02*
X168759048Y-86148152D01*
X168759048Y-86148152D02*
X168854286Y-86195771D01*
X169663810Y-86767200D02*
X169568572Y-86814819D01*
X169568572Y-86814819D02*
X169378096Y-86814819D01*
X169378096Y-86814819D02*
X169282858Y-86767200D01*
X169282858Y-86767200D02*
X169235239Y-86671961D01*
X169235239Y-86671961D02*
X169235239Y-86291009D01*
X169235239Y-86291009D02*
X169282858Y-86195771D01*
X169282858Y-86195771D02*
X169378096Y-86148152D01*
X169378096Y-86148152D02*
X169568572Y-86148152D01*
X169568572Y-86148152D02*
X169663810Y-86195771D01*
X169663810Y-86195771D02*
X169711429Y-86291009D01*
X169711429Y-86291009D02*
X169711429Y-86386247D01*
X169711429Y-86386247D02*
X169235239Y-86481485D01*
X169997144Y-85814819D02*
X170568572Y-85814819D01*
X170282858Y-86814819D02*
X170282858Y-85814819D01*
X171282858Y-86767200D02*
X171187620Y-86814819D01*
X171187620Y-86814819D02*
X170997144Y-86814819D01*
X170997144Y-86814819D02*
X170901906Y-86767200D01*
X170901906Y-86767200D02*
X170854287Y-86671961D01*
X170854287Y-86671961D02*
X170854287Y-86291009D01*
X170854287Y-86291009D02*
X170901906Y-86195771D01*
X170901906Y-86195771D02*
X170997144Y-86148152D01*
X170997144Y-86148152D02*
X171187620Y-86148152D01*
X171187620Y-86148152D02*
X171282858Y-86195771D01*
X171282858Y-86195771D02*
X171330477Y-86291009D01*
X171330477Y-86291009D02*
X171330477Y-86386247D01*
X171330477Y-86386247D02*
X170854287Y-86481485D01*
X171759049Y-86814819D02*
X171759049Y-86148152D01*
X171759049Y-86243390D02*
X171806668Y-86195771D01*
X171806668Y-86195771D02*
X171901906Y-86148152D01*
X171901906Y-86148152D02*
X172044763Y-86148152D01*
X172044763Y-86148152D02*
X172140001Y-86195771D01*
X172140001Y-86195771D02*
X172187620Y-86291009D01*
X172187620Y-86291009D02*
X172187620Y-86814819D01*
X172187620Y-86291009D02*
X172235239Y-86195771D01*
X172235239Y-86195771D02*
X172330477Y-86148152D01*
X172330477Y-86148152D02*
X172473334Y-86148152D01*
X172473334Y-86148152D02*
X172568573Y-86195771D01*
X172568573Y-86195771D02*
X172616192Y-86291009D01*
X172616192Y-86291009D02*
X172616192Y-86814819D01*
X173092382Y-86148152D02*
X173092382Y-87148152D01*
X173092382Y-86195771D02*
X173187620Y-86148152D01*
X173187620Y-86148152D02*
X173378096Y-86148152D01*
X173378096Y-86148152D02*
X173473334Y-86195771D01*
X173473334Y-86195771D02*
X173520953Y-86243390D01*
X173520953Y-86243390D02*
X173568572Y-86338628D01*
X173568572Y-86338628D02*
X173568572Y-86624342D01*
X173568572Y-86624342D02*
X173520953Y-86719580D01*
X173520953Y-86719580D02*
X173473334Y-86767200D01*
X173473334Y-86767200D02*
X173378096Y-86814819D01*
X173378096Y-86814819D02*
X173187620Y-86814819D01*
X173187620Y-86814819D02*
X173092382Y-86767200D01*
X165989048Y-94053866D02*
X166750953Y-94053866D01*
X166370000Y-94434819D02*
X166370000Y-93672914D01*
X168529048Y-94053866D02*
X169290953Y-94053866D01*
X108418333Y-117039819D02*
X107942143Y-117039819D01*
X107942143Y-117039819D02*
X107942143Y-116039819D01*
X109275476Y-117039819D02*
X108704048Y-117039819D01*
X108989762Y-117039819D02*
X108989762Y-116039819D01*
X108989762Y-116039819D02*
X108894524Y-116182676D01*
X108894524Y-116182676D02*
X108799286Y-116277914D01*
X108799286Y-116277914D02*
X108704048Y-116325533D01*
X142994142Y-131265819D02*
X142660809Y-130789628D01*
X142422714Y-131265819D02*
X142422714Y-130265819D01*
X142422714Y-130265819D02*
X142803666Y-130265819D01*
X142803666Y-130265819D02*
X142898904Y-130313438D01*
X142898904Y-130313438D02*
X142946523Y-130361057D01*
X142946523Y-130361057D02*
X142994142Y-130456295D01*
X142994142Y-130456295D02*
X142994142Y-130599152D01*
X142994142Y-130599152D02*
X142946523Y-130694390D01*
X142946523Y-130694390D02*
X142898904Y-130742009D01*
X142898904Y-130742009D02*
X142803666Y-130789628D01*
X142803666Y-130789628D02*
X142422714Y-130789628D01*
X143946523Y-131265819D02*
X143375095Y-131265819D01*
X143660809Y-131265819D02*
X143660809Y-130265819D01*
X143660809Y-130265819D02*
X143565571Y-130408676D01*
X143565571Y-130408676D02*
X143470333Y-130503914D01*
X143470333Y-130503914D02*
X143375095Y-130551533D01*
X144898904Y-131265819D02*
X144327476Y-131265819D01*
X144613190Y-131265819D02*
X144613190Y-130265819D01*
X144613190Y-130265819D02*
X144517952Y-130408676D01*
X144517952Y-130408676D02*
X144422714Y-130503914D01*
X144422714Y-130503914D02*
X144327476Y-130551533D01*
X180084819Y-79073333D02*
X180799104Y-79073333D01*
X180799104Y-79073333D02*
X180941961Y-79120952D01*
X180941961Y-79120952D02*
X181037200Y-79216190D01*
X181037200Y-79216190D02*
X181084819Y-79359047D01*
X181084819Y-79359047D02*
X181084819Y-79454285D01*
X180418152Y-78168571D02*
X181084819Y-78168571D01*
X180037200Y-78406666D02*
X180751485Y-78644761D01*
X180751485Y-78644761D02*
X180751485Y-78025714D01*
X173831904Y-74067200D02*
X173974761Y-74114819D01*
X173974761Y-74114819D02*
X174212856Y-74114819D01*
X174212856Y-74114819D02*
X174308094Y-74067200D01*
X174308094Y-74067200D02*
X174355713Y-74019580D01*
X174355713Y-74019580D02*
X174403332Y-73924342D01*
X174403332Y-73924342D02*
X174403332Y-73829104D01*
X174403332Y-73829104D02*
X174355713Y-73733866D01*
X174355713Y-73733866D02*
X174308094Y-73686247D01*
X174308094Y-73686247D02*
X174212856Y-73638628D01*
X174212856Y-73638628D02*
X174022380Y-73591009D01*
X174022380Y-73591009D02*
X173927142Y-73543390D01*
X173927142Y-73543390D02*
X173879523Y-73495771D01*
X173879523Y-73495771D02*
X173831904Y-73400533D01*
X173831904Y-73400533D02*
X173831904Y-73305295D01*
X173831904Y-73305295D02*
X173879523Y-73210057D01*
X173879523Y-73210057D02*
X173927142Y-73162438D01*
X173927142Y-73162438D02*
X174022380Y-73114819D01*
X174022380Y-73114819D02*
X174260475Y-73114819D01*
X174260475Y-73114819D02*
X174403332Y-73162438D01*
X175212856Y-74067200D02*
X175117618Y-74114819D01*
X175117618Y-74114819D02*
X174927142Y-74114819D01*
X174927142Y-74114819D02*
X174831904Y-74067200D01*
X174831904Y-74067200D02*
X174784285Y-73971961D01*
X174784285Y-73971961D02*
X174784285Y-73591009D01*
X174784285Y-73591009D02*
X174831904Y-73495771D01*
X174831904Y-73495771D02*
X174927142Y-73448152D01*
X174927142Y-73448152D02*
X175117618Y-73448152D01*
X175117618Y-73448152D02*
X175212856Y-73495771D01*
X175212856Y-73495771D02*
X175260475Y-73591009D01*
X175260475Y-73591009D02*
X175260475Y-73686247D01*
X175260475Y-73686247D02*
X174784285Y-73781485D01*
X175689047Y-73448152D02*
X175689047Y-74114819D01*
X175689047Y-73543390D02*
X175736666Y-73495771D01*
X175736666Y-73495771D02*
X175831904Y-73448152D01*
X175831904Y-73448152D02*
X175974761Y-73448152D01*
X175974761Y-73448152D02*
X176069999Y-73495771D01*
X176069999Y-73495771D02*
X176117618Y-73591009D01*
X176117618Y-73591009D02*
X176117618Y-74114819D01*
X176546190Y-74067200D02*
X176641428Y-74114819D01*
X176641428Y-74114819D02*
X176831904Y-74114819D01*
X176831904Y-74114819D02*
X176927142Y-74067200D01*
X176927142Y-74067200D02*
X176974761Y-73971961D01*
X176974761Y-73971961D02*
X176974761Y-73924342D01*
X176974761Y-73924342D02*
X176927142Y-73829104D01*
X176927142Y-73829104D02*
X176831904Y-73781485D01*
X176831904Y-73781485D02*
X176689047Y-73781485D01*
X176689047Y-73781485D02*
X176593809Y-73733866D01*
X176593809Y-73733866D02*
X176546190Y-73638628D01*
X176546190Y-73638628D02*
X176546190Y-73591009D01*
X176546190Y-73591009D02*
X176593809Y-73495771D01*
X176593809Y-73495771D02*
X176689047Y-73448152D01*
X176689047Y-73448152D02*
X176831904Y-73448152D01*
X176831904Y-73448152D02*
X176927142Y-73495771D01*
X177546190Y-74114819D02*
X177450952Y-74067200D01*
X177450952Y-74067200D02*
X177403333Y-74019580D01*
X177403333Y-74019580D02*
X177355714Y-73924342D01*
X177355714Y-73924342D02*
X177355714Y-73638628D01*
X177355714Y-73638628D02*
X177403333Y-73543390D01*
X177403333Y-73543390D02*
X177450952Y-73495771D01*
X177450952Y-73495771D02*
X177546190Y-73448152D01*
X177546190Y-73448152D02*
X177689047Y-73448152D01*
X177689047Y-73448152D02*
X177784285Y-73495771D01*
X177784285Y-73495771D02*
X177831904Y-73543390D01*
X177831904Y-73543390D02*
X177879523Y-73638628D01*
X177879523Y-73638628D02*
X177879523Y-73924342D01*
X177879523Y-73924342D02*
X177831904Y-74019580D01*
X177831904Y-74019580D02*
X177784285Y-74067200D01*
X177784285Y-74067200D02*
X177689047Y-74114819D01*
X177689047Y-74114819D02*
X177546190Y-74114819D01*
X178308095Y-74114819D02*
X178308095Y-73448152D01*
X178308095Y-73638628D02*
X178355714Y-73543390D01*
X178355714Y-73543390D02*
X178403333Y-73495771D01*
X178403333Y-73495771D02*
X178498571Y-73448152D01*
X178498571Y-73448152D02*
X178593809Y-73448152D01*
X178879524Y-73829104D02*
X179355714Y-73829104D01*
X178784286Y-74114819D02*
X179117619Y-73114819D01*
X179117619Y-73114819D02*
X179450952Y-74114819D01*
X179784286Y-74114819D02*
X179784286Y-73448152D01*
X179784286Y-73114819D02*
X179736667Y-73162438D01*
X179736667Y-73162438D02*
X179784286Y-73210057D01*
X179784286Y-73210057D02*
X179831905Y-73162438D01*
X179831905Y-73162438D02*
X179784286Y-73114819D01*
X179784286Y-73114819D02*
X179784286Y-73210057D01*
X180260476Y-74114819D02*
X180260476Y-73448152D01*
X180260476Y-73638628D02*
X180308095Y-73543390D01*
X180308095Y-73543390D02*
X180355714Y-73495771D01*
X180355714Y-73495771D02*
X180450952Y-73448152D01*
X180450952Y-73448152D02*
X180546190Y-73448152D01*
X180736667Y-73114819D02*
X181308095Y-73114819D01*
X181022381Y-74114819D02*
X181022381Y-73114819D01*
X182022381Y-74067200D02*
X181927143Y-74114819D01*
X181927143Y-74114819D02*
X181736667Y-74114819D01*
X181736667Y-74114819D02*
X181641429Y-74067200D01*
X181641429Y-74067200D02*
X181593810Y-73971961D01*
X181593810Y-73971961D02*
X181593810Y-73591009D01*
X181593810Y-73591009D02*
X181641429Y-73495771D01*
X181641429Y-73495771D02*
X181736667Y-73448152D01*
X181736667Y-73448152D02*
X181927143Y-73448152D01*
X181927143Y-73448152D02*
X182022381Y-73495771D01*
X182022381Y-73495771D02*
X182070000Y-73591009D01*
X182070000Y-73591009D02*
X182070000Y-73686247D01*
X182070000Y-73686247D02*
X181593810Y-73781485D01*
X182498572Y-74114819D02*
X182498572Y-73448152D01*
X182498572Y-73543390D02*
X182546191Y-73495771D01*
X182546191Y-73495771D02*
X182641429Y-73448152D01*
X182641429Y-73448152D02*
X182784286Y-73448152D01*
X182784286Y-73448152D02*
X182879524Y-73495771D01*
X182879524Y-73495771D02*
X182927143Y-73591009D01*
X182927143Y-73591009D02*
X182927143Y-74114819D01*
X182927143Y-73591009D02*
X182974762Y-73495771D01*
X182974762Y-73495771D02*
X183070000Y-73448152D01*
X183070000Y-73448152D02*
X183212857Y-73448152D01*
X183212857Y-73448152D02*
X183308096Y-73495771D01*
X183308096Y-73495771D02*
X183355715Y-73591009D01*
X183355715Y-73591009D02*
X183355715Y-74114819D01*
X183831905Y-73448152D02*
X183831905Y-74448152D01*
X183831905Y-73495771D02*
X183927143Y-73448152D01*
X183927143Y-73448152D02*
X184117619Y-73448152D01*
X184117619Y-73448152D02*
X184212857Y-73495771D01*
X184212857Y-73495771D02*
X184260476Y-73543390D01*
X184260476Y-73543390D02*
X184308095Y-73638628D01*
X184308095Y-73638628D02*
X184308095Y-73924342D01*
X184308095Y-73924342D02*
X184260476Y-74019580D01*
X184260476Y-74019580D02*
X184212857Y-74067200D01*
X184212857Y-74067200D02*
X184117619Y-74114819D01*
X184117619Y-74114819D02*
X183927143Y-74114819D01*
X183927143Y-74114819D02*
X183831905Y-74067200D01*
X132056666Y-73114819D02*
X132056666Y-73829104D01*
X132056666Y-73829104D02*
X132009047Y-73971961D01*
X132009047Y-73971961D02*
X131913809Y-74067200D01*
X131913809Y-74067200D02*
X131770952Y-74114819D01*
X131770952Y-74114819D02*
X131675714Y-74114819D01*
X132675714Y-73543390D02*
X132580476Y-73495771D01*
X132580476Y-73495771D02*
X132532857Y-73448152D01*
X132532857Y-73448152D02*
X132485238Y-73352914D01*
X132485238Y-73352914D02*
X132485238Y-73305295D01*
X132485238Y-73305295D02*
X132532857Y-73210057D01*
X132532857Y-73210057D02*
X132580476Y-73162438D01*
X132580476Y-73162438D02*
X132675714Y-73114819D01*
X132675714Y-73114819D02*
X132866190Y-73114819D01*
X132866190Y-73114819D02*
X132961428Y-73162438D01*
X132961428Y-73162438D02*
X133009047Y-73210057D01*
X133009047Y-73210057D02*
X133056666Y-73305295D01*
X133056666Y-73305295D02*
X133056666Y-73352914D01*
X133056666Y-73352914D02*
X133009047Y-73448152D01*
X133009047Y-73448152D02*
X132961428Y-73495771D01*
X132961428Y-73495771D02*
X132866190Y-73543390D01*
X132866190Y-73543390D02*
X132675714Y-73543390D01*
X132675714Y-73543390D02*
X132580476Y-73591009D01*
X132580476Y-73591009D02*
X132532857Y-73638628D01*
X132532857Y-73638628D02*
X132485238Y-73733866D01*
X132485238Y-73733866D02*
X132485238Y-73924342D01*
X132485238Y-73924342D02*
X132532857Y-74019580D01*
X132532857Y-74019580D02*
X132580476Y-74067200D01*
X132580476Y-74067200D02*
X132675714Y-74114819D01*
X132675714Y-74114819D02*
X132866190Y-74114819D01*
X132866190Y-74114819D02*
X132961428Y-74067200D01*
X132961428Y-74067200D02*
X133009047Y-74019580D01*
X133009047Y-74019580D02*
X133056666Y-73924342D01*
X133056666Y-73924342D02*
X133056666Y-73733866D01*
X133056666Y-73733866D02*
X133009047Y-73638628D01*
X133009047Y-73638628D02*
X132961428Y-73591009D01*
X132961428Y-73591009D02*
X132866190Y-73543390D01*
X127531905Y-69781009D02*
X127865238Y-69781009D01*
X128008095Y-70304819D02*
X127531905Y-70304819D01*
X127531905Y-70304819D02*
X127531905Y-69304819D01*
X127531905Y-69304819D02*
X128008095Y-69304819D01*
X128436667Y-70304819D02*
X128436667Y-69304819D01*
X128436667Y-69304819D02*
X129008095Y-70304819D01*
X129008095Y-70304819D02*
X129008095Y-69304819D01*
X139533333Y-91894819D02*
X139200000Y-91418628D01*
X138961905Y-91894819D02*
X138961905Y-90894819D01*
X138961905Y-90894819D02*
X139342857Y-90894819D01*
X139342857Y-90894819D02*
X139438095Y-90942438D01*
X139438095Y-90942438D02*
X139485714Y-90990057D01*
X139485714Y-90990057D02*
X139533333Y-91085295D01*
X139533333Y-91085295D02*
X139533333Y-91228152D01*
X139533333Y-91228152D02*
X139485714Y-91323390D01*
X139485714Y-91323390D02*
X139438095Y-91371009D01*
X139438095Y-91371009D02*
X139342857Y-91418628D01*
X139342857Y-91418628D02*
X138961905Y-91418628D01*
X139866667Y-90894819D02*
X140533333Y-90894819D01*
X140533333Y-90894819D02*
X140104762Y-91894819D01*
X159853333Y-77544819D02*
X159520000Y-77068628D01*
X159281905Y-77544819D02*
X159281905Y-76544819D01*
X159281905Y-76544819D02*
X159662857Y-76544819D01*
X159662857Y-76544819D02*
X159758095Y-76592438D01*
X159758095Y-76592438D02*
X159805714Y-76640057D01*
X159805714Y-76640057D02*
X159853333Y-76735295D01*
X159853333Y-76735295D02*
X159853333Y-76878152D01*
X159853333Y-76878152D02*
X159805714Y-76973390D01*
X159805714Y-76973390D02*
X159758095Y-77021009D01*
X159758095Y-77021009D02*
X159662857Y-77068628D01*
X159662857Y-77068628D02*
X159281905Y-77068628D01*
X160329524Y-77544819D02*
X160520000Y-77544819D01*
X160520000Y-77544819D02*
X160615238Y-77497200D01*
X160615238Y-77497200D02*
X160662857Y-77449580D01*
X160662857Y-77449580D02*
X160758095Y-77306723D01*
X160758095Y-77306723D02*
X160805714Y-77116247D01*
X160805714Y-77116247D02*
X160805714Y-76735295D01*
X160805714Y-76735295D02*
X160758095Y-76640057D01*
X160758095Y-76640057D02*
X160710476Y-76592438D01*
X160710476Y-76592438D02*
X160615238Y-76544819D01*
X160615238Y-76544819D02*
X160424762Y-76544819D01*
X160424762Y-76544819D02*
X160329524Y-76592438D01*
X160329524Y-76592438D02*
X160281905Y-76640057D01*
X160281905Y-76640057D02*
X160234286Y-76735295D01*
X160234286Y-76735295D02*
X160234286Y-76973390D01*
X160234286Y-76973390D02*
X160281905Y-77068628D01*
X160281905Y-77068628D02*
X160329524Y-77116247D01*
X160329524Y-77116247D02*
X160424762Y-77163866D01*
X160424762Y-77163866D02*
X160615238Y-77163866D01*
X160615238Y-77163866D02*
X160710476Y-77116247D01*
X160710476Y-77116247D02*
X160758095Y-77068628D01*
X160758095Y-77068628D02*
X160805714Y-76973390D01*
X135034819Y-83481904D02*
X135844342Y-83481904D01*
X135844342Y-83481904D02*
X135939580Y-83434285D01*
X135939580Y-83434285D02*
X135987200Y-83386666D01*
X135987200Y-83386666D02*
X136034819Y-83291428D01*
X136034819Y-83291428D02*
X136034819Y-83100952D01*
X136034819Y-83100952D02*
X135987200Y-83005714D01*
X135987200Y-83005714D02*
X135939580Y-82958095D01*
X135939580Y-82958095D02*
X135844342Y-82910476D01*
X135844342Y-82910476D02*
X135034819Y-82910476D01*
X136034819Y-81910476D02*
X136034819Y-82481904D01*
X136034819Y-82196190D02*
X135034819Y-82196190D01*
X135034819Y-82196190D02*
X135177676Y-82291428D01*
X135177676Y-82291428D02*
X135272914Y-82386666D01*
X135272914Y-82386666D02*
X135320533Y-82481904D01*
X141073333Y-96974819D02*
X141073333Y-97689104D01*
X141073333Y-97689104D02*
X141025714Y-97831961D01*
X141025714Y-97831961D02*
X140930476Y-97927200D01*
X140930476Y-97927200D02*
X140787619Y-97974819D01*
X140787619Y-97974819D02*
X140692381Y-97974819D01*
X141406667Y-96974819D02*
X141978095Y-96974819D01*
X141692381Y-97974819D02*
X141692381Y-96974819D01*
X142263810Y-97689104D02*
X142740000Y-97689104D01*
X142168572Y-97974819D02*
X142501905Y-96974819D01*
X142501905Y-96974819D02*
X142835238Y-97974819D01*
X143692381Y-97022438D02*
X143597143Y-96974819D01*
X143597143Y-96974819D02*
X143454286Y-96974819D01*
X143454286Y-96974819D02*
X143311429Y-97022438D01*
X143311429Y-97022438D02*
X143216191Y-97117676D01*
X143216191Y-97117676D02*
X143168572Y-97212914D01*
X143168572Y-97212914D02*
X143120953Y-97403390D01*
X143120953Y-97403390D02*
X143120953Y-97546247D01*
X143120953Y-97546247D02*
X143168572Y-97736723D01*
X143168572Y-97736723D02*
X143216191Y-97831961D01*
X143216191Y-97831961D02*
X143311429Y-97927200D01*
X143311429Y-97927200D02*
X143454286Y-97974819D01*
X143454286Y-97974819D02*
X143549524Y-97974819D01*
X143549524Y-97974819D02*
X143692381Y-97927200D01*
X143692381Y-97927200D02*
X143740000Y-97879580D01*
X143740000Y-97879580D02*
X143740000Y-97546247D01*
X143740000Y-97546247D02*
X143549524Y-97546247D01*
X136993333Y-91894819D02*
X136660000Y-91418628D01*
X136421905Y-91894819D02*
X136421905Y-90894819D01*
X136421905Y-90894819D02*
X136802857Y-90894819D01*
X136802857Y-90894819D02*
X136898095Y-90942438D01*
X136898095Y-90942438D02*
X136945714Y-90990057D01*
X136945714Y-90990057D02*
X136993333Y-91085295D01*
X136993333Y-91085295D02*
X136993333Y-91228152D01*
X136993333Y-91228152D02*
X136945714Y-91323390D01*
X136945714Y-91323390D02*
X136898095Y-91371009D01*
X136898095Y-91371009D02*
X136802857Y-91418628D01*
X136802857Y-91418628D02*
X136421905Y-91418628D01*
X137564762Y-91323390D02*
X137469524Y-91275771D01*
X137469524Y-91275771D02*
X137421905Y-91228152D01*
X137421905Y-91228152D02*
X137374286Y-91132914D01*
X137374286Y-91132914D02*
X137374286Y-91085295D01*
X137374286Y-91085295D02*
X137421905Y-90990057D01*
X137421905Y-90990057D02*
X137469524Y-90942438D01*
X137469524Y-90942438D02*
X137564762Y-90894819D01*
X137564762Y-90894819D02*
X137755238Y-90894819D01*
X137755238Y-90894819D02*
X137850476Y-90942438D01*
X137850476Y-90942438D02*
X137898095Y-90990057D01*
X137898095Y-90990057D02*
X137945714Y-91085295D01*
X137945714Y-91085295D02*
X137945714Y-91132914D01*
X137945714Y-91132914D02*
X137898095Y-91228152D01*
X137898095Y-91228152D02*
X137850476Y-91275771D01*
X137850476Y-91275771D02*
X137755238Y-91323390D01*
X137755238Y-91323390D02*
X137564762Y-91323390D01*
X137564762Y-91323390D02*
X137469524Y-91371009D01*
X137469524Y-91371009D02*
X137421905Y-91418628D01*
X137421905Y-91418628D02*
X137374286Y-91513866D01*
X137374286Y-91513866D02*
X137374286Y-91704342D01*
X137374286Y-91704342D02*
X137421905Y-91799580D01*
X137421905Y-91799580D02*
X137469524Y-91847200D01*
X137469524Y-91847200D02*
X137564762Y-91894819D01*
X137564762Y-91894819D02*
X137755238Y-91894819D01*
X137755238Y-91894819D02*
X137850476Y-91847200D01*
X137850476Y-91847200D02*
X137898095Y-91799580D01*
X137898095Y-91799580D02*
X137945714Y-91704342D01*
X137945714Y-91704342D02*
X137945714Y-91513866D01*
X137945714Y-91513866D02*
X137898095Y-91418628D01*
X137898095Y-91418628D02*
X137850476Y-91371009D01*
X137850476Y-91371009D02*
X137755238Y-91323390D01*
X155829095Y-132690519D02*
X155829095Y-133500042D01*
X155829095Y-133500042D02*
X155876714Y-133595280D01*
X155876714Y-133595280D02*
X155924333Y-133642900D01*
X155924333Y-133642900D02*
X156019571Y-133690519D01*
X156019571Y-133690519D02*
X156210047Y-133690519D01*
X156210047Y-133690519D02*
X156305285Y-133642900D01*
X156305285Y-133642900D02*
X156352904Y-133595280D01*
X156352904Y-133595280D02*
X156400523Y-133500042D01*
X156400523Y-133500042D02*
X156400523Y-132690519D01*
X156781476Y-132690519D02*
X157400523Y-132690519D01*
X157400523Y-132690519D02*
X157067190Y-133071471D01*
X157067190Y-133071471D02*
X157210047Y-133071471D01*
X157210047Y-133071471D02*
X157305285Y-133119090D01*
X157305285Y-133119090D02*
X157352904Y-133166709D01*
X157352904Y-133166709D02*
X157400523Y-133261947D01*
X157400523Y-133261947D02*
X157400523Y-133500042D01*
X157400523Y-133500042D02*
X157352904Y-133595280D01*
X157352904Y-133595280D02*
X157305285Y-133642900D01*
X157305285Y-133642900D02*
X157210047Y-133690519D01*
X157210047Y-133690519D02*
X156924333Y-133690519D01*
X156924333Y-133690519D02*
X156829095Y-133642900D01*
X156829095Y-133642900D02*
X156781476Y-133595280D01*
X153995762Y-130502819D02*
X153995762Y-129502819D01*
X153995762Y-129502819D02*
X154329095Y-130217104D01*
X154329095Y-130217104D02*
X154662428Y-129502819D01*
X154662428Y-129502819D02*
X154662428Y-130502819D01*
X155329095Y-129502819D02*
X155519571Y-129502819D01*
X155519571Y-129502819D02*
X155614809Y-129550438D01*
X155614809Y-129550438D02*
X155710047Y-129645676D01*
X155710047Y-129645676D02*
X155757666Y-129836152D01*
X155757666Y-129836152D02*
X155757666Y-130169485D01*
X155757666Y-130169485D02*
X155710047Y-130359961D01*
X155710047Y-130359961D02*
X155614809Y-130455200D01*
X155614809Y-130455200D02*
X155519571Y-130502819D01*
X155519571Y-130502819D02*
X155329095Y-130502819D01*
X155329095Y-130502819D02*
X155233857Y-130455200D01*
X155233857Y-130455200D02*
X155138619Y-130359961D01*
X155138619Y-130359961D02*
X155091000Y-130169485D01*
X155091000Y-130169485D02*
X155091000Y-129836152D01*
X155091000Y-129836152D02*
X155138619Y-129645676D01*
X155138619Y-129645676D02*
X155233857Y-129550438D01*
X155233857Y-129550438D02*
X155329095Y-129502819D01*
X156138619Y-130455200D02*
X156281476Y-130502819D01*
X156281476Y-130502819D02*
X156519571Y-130502819D01*
X156519571Y-130502819D02*
X156614809Y-130455200D01*
X156614809Y-130455200D02*
X156662428Y-130407580D01*
X156662428Y-130407580D02*
X156710047Y-130312342D01*
X156710047Y-130312342D02*
X156710047Y-130217104D01*
X156710047Y-130217104D02*
X156662428Y-130121866D01*
X156662428Y-130121866D02*
X156614809Y-130074247D01*
X156614809Y-130074247D02*
X156519571Y-130026628D01*
X156519571Y-130026628D02*
X156329095Y-129979009D01*
X156329095Y-129979009D02*
X156233857Y-129931390D01*
X156233857Y-129931390D02*
X156186238Y-129883771D01*
X156186238Y-129883771D02*
X156138619Y-129788533D01*
X156138619Y-129788533D02*
X156138619Y-129693295D01*
X156138619Y-129693295D02*
X156186238Y-129598057D01*
X156186238Y-129598057D02*
X156233857Y-129550438D01*
X156233857Y-129550438D02*
X156329095Y-129502819D01*
X156329095Y-129502819D02*
X156567190Y-129502819D01*
X156567190Y-129502819D02*
X156710047Y-129550438D01*
X157471952Y-129979009D02*
X157138619Y-129979009D01*
X157138619Y-130502819D02*
X157138619Y-129502819D01*
X157138619Y-129502819D02*
X157614809Y-129502819D01*
X157995762Y-129979009D02*
X158329095Y-129979009D01*
X158471952Y-130502819D02*
X157995762Y-130502819D01*
X157995762Y-130502819D02*
X157995762Y-129502819D01*
X157995762Y-129502819D02*
X158471952Y-129502819D01*
X158757667Y-129502819D02*
X159329095Y-129502819D01*
X159043381Y-130502819D02*
X159043381Y-129502819D01*
X153503333Y-101549580D02*
X153455714Y-101597200D01*
X153455714Y-101597200D02*
X153312857Y-101644819D01*
X153312857Y-101644819D02*
X153217619Y-101644819D01*
X153217619Y-101644819D02*
X153074762Y-101597200D01*
X153074762Y-101597200D02*
X152979524Y-101501961D01*
X152979524Y-101501961D02*
X152931905Y-101406723D01*
X152931905Y-101406723D02*
X152884286Y-101216247D01*
X152884286Y-101216247D02*
X152884286Y-101073390D01*
X152884286Y-101073390D02*
X152931905Y-100882914D01*
X152931905Y-100882914D02*
X152979524Y-100787676D01*
X152979524Y-100787676D02*
X153074762Y-100692438D01*
X153074762Y-100692438D02*
X153217619Y-100644819D01*
X153217619Y-100644819D02*
X153312857Y-100644819D01*
X153312857Y-100644819D02*
X153455714Y-100692438D01*
X153455714Y-100692438D02*
X153503333Y-100740057D01*
X153836667Y-100644819D02*
X154455714Y-100644819D01*
X154455714Y-100644819D02*
X154122381Y-101025771D01*
X154122381Y-101025771D02*
X154265238Y-101025771D01*
X154265238Y-101025771D02*
X154360476Y-101073390D01*
X154360476Y-101073390D02*
X154408095Y-101121009D01*
X154408095Y-101121009D02*
X154455714Y-101216247D01*
X154455714Y-101216247D02*
X154455714Y-101454342D01*
X154455714Y-101454342D02*
X154408095Y-101549580D01*
X154408095Y-101549580D02*
X154360476Y-101597200D01*
X154360476Y-101597200D02*
X154265238Y-101644819D01*
X154265238Y-101644819D02*
X153979524Y-101644819D01*
X153979524Y-101644819D02*
X153884286Y-101597200D01*
X153884286Y-101597200D02*
X153836667Y-101549580D01*
X155019476Y-118016819D02*
X155019476Y-118731104D01*
X155019476Y-118731104D02*
X154971857Y-118873961D01*
X154971857Y-118873961D02*
X154876619Y-118969200D01*
X154876619Y-118969200D02*
X154733762Y-119016819D01*
X154733762Y-119016819D02*
X154638524Y-119016819D01*
X156019476Y-119016819D02*
X155448048Y-119016819D01*
X155733762Y-119016819D02*
X155733762Y-118016819D01*
X155733762Y-118016819D02*
X155638524Y-118159676D01*
X155638524Y-118159676D02*
X155543286Y-118254914D01*
X155543286Y-118254914D02*
X155448048Y-118302533D01*
X156352810Y-118016819D02*
X156971857Y-118016819D01*
X156971857Y-118016819D02*
X156638524Y-118397771D01*
X156638524Y-118397771D02*
X156781381Y-118397771D01*
X156781381Y-118397771D02*
X156876619Y-118445390D01*
X156876619Y-118445390D02*
X156924238Y-118493009D01*
X156924238Y-118493009D02*
X156971857Y-118588247D01*
X156971857Y-118588247D02*
X156971857Y-118826342D01*
X156971857Y-118826342D02*
X156924238Y-118921580D01*
X156924238Y-118921580D02*
X156876619Y-118969200D01*
X156876619Y-118969200D02*
X156781381Y-119016819D01*
X156781381Y-119016819D02*
X156495667Y-119016819D01*
X156495667Y-119016819D02*
X156400429Y-118969200D01*
X156400429Y-118969200D02*
X156352810Y-118921580D01*
X153924048Y-126418866D02*
X154685953Y-126418866D01*
X154305000Y-126799819D02*
X154305000Y-126037914D01*
X156845048Y-126418866D02*
X157606953Y-126418866D01*
X159712819Y-125328666D02*
X158712819Y-125328666D01*
X159189009Y-125328666D02*
X159189009Y-124757238D01*
X159712819Y-124757238D02*
X158712819Y-124757238D01*
X159665200Y-123900095D02*
X159712819Y-123995333D01*
X159712819Y-123995333D02*
X159712819Y-124185809D01*
X159712819Y-124185809D02*
X159665200Y-124281047D01*
X159665200Y-124281047D02*
X159569961Y-124328666D01*
X159569961Y-124328666D02*
X159189009Y-124328666D01*
X159189009Y-124328666D02*
X159093771Y-124281047D01*
X159093771Y-124281047D02*
X159046152Y-124185809D01*
X159046152Y-124185809D02*
X159046152Y-123995333D01*
X159046152Y-123995333D02*
X159093771Y-123900095D01*
X159093771Y-123900095D02*
X159189009Y-123852476D01*
X159189009Y-123852476D02*
X159284247Y-123852476D01*
X159284247Y-123852476D02*
X159379485Y-124328666D01*
X159712819Y-122995333D02*
X159189009Y-122995333D01*
X159189009Y-122995333D02*
X159093771Y-123042952D01*
X159093771Y-123042952D02*
X159046152Y-123138190D01*
X159046152Y-123138190D02*
X159046152Y-123328666D01*
X159046152Y-123328666D02*
X159093771Y-123423904D01*
X159665200Y-122995333D02*
X159712819Y-123090571D01*
X159712819Y-123090571D02*
X159712819Y-123328666D01*
X159712819Y-123328666D02*
X159665200Y-123423904D01*
X159665200Y-123423904D02*
X159569961Y-123471523D01*
X159569961Y-123471523D02*
X159474723Y-123471523D01*
X159474723Y-123471523D02*
X159379485Y-123423904D01*
X159379485Y-123423904D02*
X159331866Y-123328666D01*
X159331866Y-123328666D02*
X159331866Y-123090571D01*
X159331866Y-123090571D02*
X159284247Y-122995333D01*
X159046152Y-122661999D02*
X159046152Y-122281047D01*
X158712819Y-122519142D02*
X159569961Y-122519142D01*
X159569961Y-122519142D02*
X159665200Y-122471523D01*
X159665200Y-122471523D02*
X159712819Y-122376285D01*
X159712819Y-122376285D02*
X159712819Y-122281047D01*
X159665200Y-121566761D02*
X159712819Y-121661999D01*
X159712819Y-121661999D02*
X159712819Y-121852475D01*
X159712819Y-121852475D02*
X159665200Y-121947713D01*
X159665200Y-121947713D02*
X159569961Y-121995332D01*
X159569961Y-121995332D02*
X159189009Y-121995332D01*
X159189009Y-121995332D02*
X159093771Y-121947713D01*
X159093771Y-121947713D02*
X159046152Y-121852475D01*
X159046152Y-121852475D02*
X159046152Y-121661999D01*
X159046152Y-121661999D02*
X159093771Y-121566761D01*
X159093771Y-121566761D02*
X159189009Y-121519142D01*
X159189009Y-121519142D02*
X159284247Y-121519142D01*
X159284247Y-121519142D02*
X159379485Y-121995332D01*
X159712819Y-121090570D02*
X159046152Y-121090570D01*
X159236628Y-121090570D02*
X159141390Y-121042951D01*
X159141390Y-121042951D02*
X159093771Y-120995332D01*
X159093771Y-120995332D02*
X159046152Y-120900094D01*
X159046152Y-120900094D02*
X159046152Y-120804856D01*
X159712819Y-119947713D02*
X159712819Y-120519141D01*
X159712819Y-120233427D02*
X158712819Y-120233427D01*
X158712819Y-120233427D02*
X158855676Y-120328665D01*
X158855676Y-120328665D02*
X158950914Y-120423903D01*
X158950914Y-120423903D02*
X158998533Y-120519141D01*
X159853333Y-82624819D02*
X159520000Y-82148628D01*
X159281905Y-82624819D02*
X159281905Y-81624819D01*
X159281905Y-81624819D02*
X159662857Y-81624819D01*
X159662857Y-81624819D02*
X159758095Y-81672438D01*
X159758095Y-81672438D02*
X159805714Y-81720057D01*
X159805714Y-81720057D02*
X159853333Y-81815295D01*
X159853333Y-81815295D02*
X159853333Y-81958152D01*
X159853333Y-81958152D02*
X159805714Y-82053390D01*
X159805714Y-82053390D02*
X159758095Y-82101009D01*
X159758095Y-82101009D02*
X159662857Y-82148628D01*
X159662857Y-82148628D02*
X159281905Y-82148628D01*
X160186667Y-81624819D02*
X160805714Y-81624819D01*
X160805714Y-81624819D02*
X160472381Y-82005771D01*
X160472381Y-82005771D02*
X160615238Y-82005771D01*
X160615238Y-82005771D02*
X160710476Y-82053390D01*
X160710476Y-82053390D02*
X160758095Y-82101009D01*
X160758095Y-82101009D02*
X160805714Y-82196247D01*
X160805714Y-82196247D02*
X160805714Y-82434342D01*
X160805714Y-82434342D02*
X160758095Y-82529580D01*
X160758095Y-82529580D02*
X160710476Y-82577200D01*
X160710476Y-82577200D02*
X160615238Y-82624819D01*
X160615238Y-82624819D02*
X160329524Y-82624819D01*
X160329524Y-82624819D02*
X160234286Y-82577200D01*
X160234286Y-82577200D02*
X160186667Y-82529580D01*
X116800333Y-111709580D02*
X116752714Y-111757200D01*
X116752714Y-111757200D02*
X116609857Y-111804819D01*
X116609857Y-111804819D02*
X116514619Y-111804819D01*
X116514619Y-111804819D02*
X116371762Y-111757200D01*
X116371762Y-111757200D02*
X116276524Y-111661961D01*
X116276524Y-111661961D02*
X116228905Y-111566723D01*
X116228905Y-111566723D02*
X116181286Y-111376247D01*
X116181286Y-111376247D02*
X116181286Y-111233390D01*
X116181286Y-111233390D02*
X116228905Y-111042914D01*
X116228905Y-111042914D02*
X116276524Y-110947676D01*
X116276524Y-110947676D02*
X116371762Y-110852438D01*
X116371762Y-110852438D02*
X116514619Y-110804819D01*
X116514619Y-110804819D02*
X116609857Y-110804819D01*
X116609857Y-110804819D02*
X116752714Y-110852438D01*
X116752714Y-110852438D02*
X116800333Y-110900057D01*
X117705095Y-110804819D02*
X117228905Y-110804819D01*
X117228905Y-110804819D02*
X117181286Y-111281009D01*
X117181286Y-111281009D02*
X117228905Y-111233390D01*
X117228905Y-111233390D02*
X117324143Y-111185771D01*
X117324143Y-111185771D02*
X117562238Y-111185771D01*
X117562238Y-111185771D02*
X117657476Y-111233390D01*
X117657476Y-111233390D02*
X117705095Y-111281009D01*
X117705095Y-111281009D02*
X117752714Y-111376247D01*
X117752714Y-111376247D02*
X117752714Y-111614342D01*
X117752714Y-111614342D02*
X117705095Y-111709580D01*
X117705095Y-111709580D02*
X117657476Y-111757200D01*
X117657476Y-111757200D02*
X117562238Y-111804819D01*
X117562238Y-111804819D02*
X117324143Y-111804819D01*
X117324143Y-111804819D02*
X117228905Y-111757200D01*
X117228905Y-111757200D02*
X117181286Y-111709580D01*
X142073333Y-91894819D02*
X141740000Y-91418628D01*
X141501905Y-91894819D02*
X141501905Y-90894819D01*
X141501905Y-90894819D02*
X141882857Y-90894819D01*
X141882857Y-90894819D02*
X141978095Y-90942438D01*
X141978095Y-90942438D02*
X142025714Y-90990057D01*
X142025714Y-90990057D02*
X142073333Y-91085295D01*
X142073333Y-91085295D02*
X142073333Y-91228152D01*
X142073333Y-91228152D02*
X142025714Y-91323390D01*
X142025714Y-91323390D02*
X141978095Y-91371009D01*
X141978095Y-91371009D02*
X141882857Y-91418628D01*
X141882857Y-91418628D02*
X141501905Y-91418628D01*
X142930476Y-90894819D02*
X142740000Y-90894819D01*
X142740000Y-90894819D02*
X142644762Y-90942438D01*
X142644762Y-90942438D02*
X142597143Y-90990057D01*
X142597143Y-90990057D02*
X142501905Y-91132914D01*
X142501905Y-91132914D02*
X142454286Y-91323390D01*
X142454286Y-91323390D02*
X142454286Y-91704342D01*
X142454286Y-91704342D02*
X142501905Y-91799580D01*
X142501905Y-91799580D02*
X142549524Y-91847200D01*
X142549524Y-91847200D02*
X142644762Y-91894819D01*
X142644762Y-91894819D02*
X142835238Y-91894819D01*
X142835238Y-91894819D02*
X142930476Y-91847200D01*
X142930476Y-91847200D02*
X142978095Y-91799580D01*
X142978095Y-91799580D02*
X143025714Y-91704342D01*
X143025714Y-91704342D02*
X143025714Y-91466247D01*
X143025714Y-91466247D02*
X142978095Y-91371009D01*
X142978095Y-91371009D02*
X142930476Y-91323390D01*
X142930476Y-91323390D02*
X142835238Y-91275771D01*
X142835238Y-91275771D02*
X142644762Y-91275771D01*
X142644762Y-91275771D02*
X142549524Y-91323390D01*
X142549524Y-91323390D02*
X142501905Y-91371009D01*
X142501905Y-91371009D02*
X142454286Y-91466247D01*
X130770333Y-120472580D02*
X130722714Y-120520200D01*
X130722714Y-120520200D02*
X130579857Y-120567819D01*
X130579857Y-120567819D02*
X130484619Y-120567819D01*
X130484619Y-120567819D02*
X130341762Y-120520200D01*
X130341762Y-120520200D02*
X130246524Y-120424961D01*
X130246524Y-120424961D02*
X130198905Y-120329723D01*
X130198905Y-120329723D02*
X130151286Y-120139247D01*
X130151286Y-120139247D02*
X130151286Y-119996390D01*
X130151286Y-119996390D02*
X130198905Y-119805914D01*
X130198905Y-119805914D02*
X130246524Y-119710676D01*
X130246524Y-119710676D02*
X130341762Y-119615438D01*
X130341762Y-119615438D02*
X130484619Y-119567819D01*
X130484619Y-119567819D02*
X130579857Y-119567819D01*
X130579857Y-119567819D02*
X130722714Y-119615438D01*
X130722714Y-119615438D02*
X130770333Y-119663057D01*
X131627476Y-119901152D02*
X131627476Y-120567819D01*
X131389381Y-119520200D02*
X131151286Y-120234485D01*
X131151286Y-120234485D02*
X131770333Y-120234485D01*
X109285833Y-73609580D02*
X109238214Y-73657200D01*
X109238214Y-73657200D02*
X109095357Y-73704819D01*
X109095357Y-73704819D02*
X109000119Y-73704819D01*
X109000119Y-73704819D02*
X108857262Y-73657200D01*
X108857262Y-73657200D02*
X108762024Y-73561961D01*
X108762024Y-73561961D02*
X108714405Y-73466723D01*
X108714405Y-73466723D02*
X108666786Y-73276247D01*
X108666786Y-73276247D02*
X108666786Y-73133390D01*
X108666786Y-73133390D02*
X108714405Y-72942914D01*
X108714405Y-72942914D02*
X108762024Y-72847676D01*
X108762024Y-72847676D02*
X108857262Y-72752438D01*
X108857262Y-72752438D02*
X109000119Y-72704819D01*
X109000119Y-72704819D02*
X109095357Y-72704819D01*
X109095357Y-72704819D02*
X109238214Y-72752438D01*
X109238214Y-72752438D02*
X109285833Y-72800057D01*
X109666786Y-72800057D02*
X109714405Y-72752438D01*
X109714405Y-72752438D02*
X109809643Y-72704819D01*
X109809643Y-72704819D02*
X110047738Y-72704819D01*
X110047738Y-72704819D02*
X110142976Y-72752438D01*
X110142976Y-72752438D02*
X110190595Y-72800057D01*
X110190595Y-72800057D02*
X110238214Y-72895295D01*
X110238214Y-72895295D02*
X110238214Y-72990533D01*
X110238214Y-72990533D02*
X110190595Y-73133390D01*
X110190595Y-73133390D02*
X109619167Y-73704819D01*
X109619167Y-73704819D02*
X110238214Y-73704819D01*
X152312857Y-91371009D02*
X152455714Y-91418628D01*
X152455714Y-91418628D02*
X152503333Y-91466247D01*
X152503333Y-91466247D02*
X152550952Y-91561485D01*
X152550952Y-91561485D02*
X152550952Y-91704342D01*
X152550952Y-91704342D02*
X152503333Y-91799580D01*
X152503333Y-91799580D02*
X152455714Y-91847200D01*
X152455714Y-91847200D02*
X152360476Y-91894819D01*
X152360476Y-91894819D02*
X151979524Y-91894819D01*
X151979524Y-91894819D02*
X151979524Y-90894819D01*
X151979524Y-90894819D02*
X152312857Y-90894819D01*
X152312857Y-90894819D02*
X152408095Y-90942438D01*
X152408095Y-90942438D02*
X152455714Y-90990057D01*
X152455714Y-90990057D02*
X152503333Y-91085295D01*
X152503333Y-91085295D02*
X152503333Y-91180533D01*
X152503333Y-91180533D02*
X152455714Y-91275771D01*
X152455714Y-91275771D02*
X152408095Y-91323390D01*
X152408095Y-91323390D02*
X152312857Y-91371009D01*
X152312857Y-91371009D02*
X151979524Y-91371009D01*
X153170000Y-90894819D02*
X153360476Y-90894819D01*
X153360476Y-90894819D02*
X153455714Y-90942438D01*
X153455714Y-90942438D02*
X153550952Y-91037676D01*
X153550952Y-91037676D02*
X153598571Y-91228152D01*
X153598571Y-91228152D02*
X153598571Y-91561485D01*
X153598571Y-91561485D02*
X153550952Y-91751961D01*
X153550952Y-91751961D02*
X153455714Y-91847200D01*
X153455714Y-91847200D02*
X153360476Y-91894819D01*
X153360476Y-91894819D02*
X153170000Y-91894819D01*
X153170000Y-91894819D02*
X153074762Y-91847200D01*
X153074762Y-91847200D02*
X152979524Y-91751961D01*
X152979524Y-91751961D02*
X152931905Y-91561485D01*
X152931905Y-91561485D02*
X152931905Y-91228152D01*
X152931905Y-91228152D02*
X152979524Y-91037676D01*
X152979524Y-91037676D02*
X153074762Y-90942438D01*
X153074762Y-90942438D02*
X153170000Y-90894819D01*
X154217619Y-90894819D02*
X154408095Y-90894819D01*
X154408095Y-90894819D02*
X154503333Y-90942438D01*
X154503333Y-90942438D02*
X154598571Y-91037676D01*
X154598571Y-91037676D02*
X154646190Y-91228152D01*
X154646190Y-91228152D02*
X154646190Y-91561485D01*
X154646190Y-91561485D02*
X154598571Y-91751961D01*
X154598571Y-91751961D02*
X154503333Y-91847200D01*
X154503333Y-91847200D02*
X154408095Y-91894819D01*
X154408095Y-91894819D02*
X154217619Y-91894819D01*
X154217619Y-91894819D02*
X154122381Y-91847200D01*
X154122381Y-91847200D02*
X154027143Y-91751961D01*
X154027143Y-91751961D02*
X153979524Y-91561485D01*
X153979524Y-91561485D02*
X153979524Y-91228152D01*
X153979524Y-91228152D02*
X154027143Y-91037676D01*
X154027143Y-91037676D02*
X154122381Y-90942438D01*
X154122381Y-90942438D02*
X154217619Y-90894819D01*
X154931905Y-90894819D02*
X155503333Y-90894819D01*
X155217619Y-91894819D02*
X155217619Y-90894819D01*
X146843905Y-123353819D02*
X146843905Y-122353819D01*
X146843905Y-122353819D02*
X147082000Y-122353819D01*
X147082000Y-122353819D02*
X147224857Y-122401438D01*
X147224857Y-122401438D02*
X147320095Y-122496676D01*
X147320095Y-122496676D02*
X147367714Y-122591914D01*
X147367714Y-122591914D02*
X147415333Y-122782390D01*
X147415333Y-122782390D02*
X147415333Y-122925247D01*
X147415333Y-122925247D02*
X147367714Y-123115723D01*
X147367714Y-123115723D02*
X147320095Y-123210961D01*
X147320095Y-123210961D02*
X147224857Y-123306200D01*
X147224857Y-123306200D02*
X147082000Y-123353819D01*
X147082000Y-123353819D02*
X146843905Y-123353819D01*
X147796286Y-122449057D02*
X147843905Y-122401438D01*
X147843905Y-122401438D02*
X147939143Y-122353819D01*
X147939143Y-122353819D02*
X148177238Y-122353819D01*
X148177238Y-122353819D02*
X148272476Y-122401438D01*
X148272476Y-122401438D02*
X148320095Y-122449057D01*
X148320095Y-122449057D02*
X148367714Y-122544295D01*
X148367714Y-122544295D02*
X148367714Y-122639533D01*
X148367714Y-122639533D02*
X148320095Y-122782390D01*
X148320095Y-122782390D02*
X147748667Y-123353819D01*
X147748667Y-123353819D02*
X148367714Y-123353819D01*
X149479048Y-123009866D02*
X150240953Y-123009866D01*
X149860000Y-123390819D02*
X149860000Y-122628914D01*
X145034048Y-123105057D02*
X145795952Y-123105057D01*
X145415095Y-129673819D02*
X145415095Y-128673819D01*
X145986523Y-129673819D02*
X145557952Y-129102390D01*
X145986523Y-128673819D02*
X145415095Y-129245247D01*
X112649095Y-121149819D02*
X112649095Y-121959342D01*
X112649095Y-121959342D02*
X112696714Y-122054580D01*
X112696714Y-122054580D02*
X112744333Y-122102200D01*
X112744333Y-122102200D02*
X112839571Y-122149819D01*
X112839571Y-122149819D02*
X113030047Y-122149819D01*
X113030047Y-122149819D02*
X113125285Y-122102200D01*
X113125285Y-122102200D02*
X113172904Y-122054580D01*
X113172904Y-122054580D02*
X113220523Y-121959342D01*
X113220523Y-121959342D02*
X113220523Y-121149819D01*
X113649095Y-121245057D02*
X113696714Y-121197438D01*
X113696714Y-121197438D02*
X113791952Y-121149819D01*
X113791952Y-121149819D02*
X114030047Y-121149819D01*
X114030047Y-121149819D02*
X114125285Y-121197438D01*
X114125285Y-121197438D02*
X114172904Y-121245057D01*
X114172904Y-121245057D02*
X114220523Y-121340295D01*
X114220523Y-121340295D02*
X114220523Y-121435533D01*
X114220523Y-121435533D02*
X114172904Y-121578390D01*
X114172904Y-121578390D02*
X113601476Y-122149819D01*
X113601476Y-122149819D02*
X114220523Y-122149819D01*
X110030047Y-128455009D02*
X110172904Y-128502628D01*
X110172904Y-128502628D02*
X110220523Y-128550247D01*
X110220523Y-128550247D02*
X110268142Y-128645485D01*
X110268142Y-128645485D02*
X110268142Y-128788342D01*
X110268142Y-128788342D02*
X110220523Y-128883580D01*
X110220523Y-128883580D02*
X110172904Y-128931200D01*
X110172904Y-128931200D02*
X110077666Y-128978819D01*
X110077666Y-128978819D02*
X109696714Y-128978819D01*
X109696714Y-128978819D02*
X109696714Y-127978819D01*
X109696714Y-127978819D02*
X110030047Y-127978819D01*
X110030047Y-127978819D02*
X110125285Y-128026438D01*
X110125285Y-128026438D02*
X110172904Y-128074057D01*
X110172904Y-128074057D02*
X110220523Y-128169295D01*
X110220523Y-128169295D02*
X110220523Y-128264533D01*
X110220523Y-128264533D02*
X110172904Y-128359771D01*
X110172904Y-128359771D02*
X110125285Y-128407390D01*
X110125285Y-128407390D02*
X110030047Y-128455009D01*
X110030047Y-128455009D02*
X109696714Y-128455009D01*
X111125285Y-128312152D02*
X111125285Y-128978819D01*
X110696714Y-128312152D02*
X110696714Y-128835961D01*
X110696714Y-128835961D02*
X110744333Y-128931200D01*
X110744333Y-128931200D02*
X110839571Y-128978819D01*
X110839571Y-128978819D02*
X110982428Y-128978819D01*
X110982428Y-128978819D02*
X111077666Y-128931200D01*
X111077666Y-128931200D02*
X111125285Y-128883580D01*
X112030047Y-128931200D02*
X111934809Y-128978819D01*
X111934809Y-128978819D02*
X111744333Y-128978819D01*
X111744333Y-128978819D02*
X111649095Y-128931200D01*
X111649095Y-128931200D02*
X111601476Y-128883580D01*
X111601476Y-128883580D02*
X111553857Y-128788342D01*
X111553857Y-128788342D02*
X111553857Y-128502628D01*
X111553857Y-128502628D02*
X111601476Y-128407390D01*
X111601476Y-128407390D02*
X111649095Y-128359771D01*
X111649095Y-128359771D02*
X111744333Y-128312152D01*
X111744333Y-128312152D02*
X111934809Y-128312152D01*
X111934809Y-128312152D02*
X112030047Y-128359771D01*
X112458619Y-128978819D02*
X112458619Y-127978819D01*
X112553857Y-128597866D02*
X112839571Y-128978819D01*
X112839571Y-128312152D02*
X112458619Y-128693104D01*
X114601476Y-128883580D02*
X114553857Y-128931200D01*
X114553857Y-128931200D02*
X114411000Y-128978819D01*
X114411000Y-128978819D02*
X114315762Y-128978819D01*
X114315762Y-128978819D02*
X114172905Y-128931200D01*
X114172905Y-128931200D02*
X114077667Y-128835961D01*
X114077667Y-128835961D02*
X114030048Y-128740723D01*
X114030048Y-128740723D02*
X113982429Y-128550247D01*
X113982429Y-128550247D02*
X113982429Y-128407390D01*
X113982429Y-128407390D02*
X114030048Y-128216914D01*
X114030048Y-128216914D02*
X114077667Y-128121676D01*
X114077667Y-128121676D02*
X114172905Y-128026438D01*
X114172905Y-128026438D02*
X114315762Y-127978819D01*
X114315762Y-127978819D02*
X114411000Y-127978819D01*
X114411000Y-127978819D02*
X114553857Y-128026438D01*
X114553857Y-128026438D02*
X114601476Y-128074057D01*
X115172905Y-128978819D02*
X115077667Y-128931200D01*
X115077667Y-128931200D02*
X115030048Y-128883580D01*
X115030048Y-128883580D02*
X114982429Y-128788342D01*
X114982429Y-128788342D02*
X114982429Y-128502628D01*
X114982429Y-128502628D02*
X115030048Y-128407390D01*
X115030048Y-128407390D02*
X115077667Y-128359771D01*
X115077667Y-128359771D02*
X115172905Y-128312152D01*
X115172905Y-128312152D02*
X115315762Y-128312152D01*
X115315762Y-128312152D02*
X115411000Y-128359771D01*
X115411000Y-128359771D02*
X115458619Y-128407390D01*
X115458619Y-128407390D02*
X115506238Y-128502628D01*
X115506238Y-128502628D02*
X115506238Y-128788342D01*
X115506238Y-128788342D02*
X115458619Y-128883580D01*
X115458619Y-128883580D02*
X115411000Y-128931200D01*
X115411000Y-128931200D02*
X115315762Y-128978819D01*
X115315762Y-128978819D02*
X115172905Y-128978819D01*
X115934810Y-128312152D02*
X115934810Y-128978819D01*
X115934810Y-128407390D02*
X115982429Y-128359771D01*
X115982429Y-128359771D02*
X116077667Y-128312152D01*
X116077667Y-128312152D02*
X116220524Y-128312152D01*
X116220524Y-128312152D02*
X116315762Y-128359771D01*
X116315762Y-128359771D02*
X116363381Y-128455009D01*
X116363381Y-128455009D02*
X116363381Y-128978819D01*
X116744334Y-128312152D02*
X116982429Y-128978819D01*
X116982429Y-128978819D02*
X117220524Y-128312152D01*
X171124762Y-69304819D02*
X171124762Y-70114342D01*
X171124762Y-70114342D02*
X171172381Y-70209580D01*
X171172381Y-70209580D02*
X171220000Y-70257200D01*
X171220000Y-70257200D02*
X171315238Y-70304819D01*
X171315238Y-70304819D02*
X171505714Y-70304819D01*
X171505714Y-70304819D02*
X171600952Y-70257200D01*
X171600952Y-70257200D02*
X171648571Y-70209580D01*
X171648571Y-70209580D02*
X171696190Y-70114342D01*
X171696190Y-70114342D02*
X171696190Y-69304819D01*
X172124762Y-70019104D02*
X172600952Y-70019104D01*
X172029524Y-70304819D02*
X172362857Y-69304819D01*
X172362857Y-69304819D02*
X172696190Y-70304819D01*
X173600952Y-70304819D02*
X173267619Y-69828628D01*
X173029524Y-70304819D02*
X173029524Y-69304819D01*
X173029524Y-69304819D02*
X173410476Y-69304819D01*
X173410476Y-69304819D02*
X173505714Y-69352438D01*
X173505714Y-69352438D02*
X173553333Y-69400057D01*
X173553333Y-69400057D02*
X173600952Y-69495295D01*
X173600952Y-69495295D02*
X173600952Y-69638152D01*
X173600952Y-69638152D02*
X173553333Y-69733390D01*
X173553333Y-69733390D02*
X173505714Y-69781009D01*
X173505714Y-69781009D02*
X173410476Y-69828628D01*
X173410476Y-69828628D02*
X173029524Y-69828628D01*
X173886667Y-69304819D02*
X174458095Y-69304819D01*
X174172381Y-70304819D02*
X174172381Y-69304819D01*
X132803333Y-89354819D02*
X132470000Y-88878628D01*
X132231905Y-89354819D02*
X132231905Y-88354819D01*
X132231905Y-88354819D02*
X132612857Y-88354819D01*
X132612857Y-88354819D02*
X132708095Y-88402438D01*
X132708095Y-88402438D02*
X132755714Y-88450057D01*
X132755714Y-88450057D02*
X132803333Y-88545295D01*
X132803333Y-88545295D02*
X132803333Y-88688152D01*
X132803333Y-88688152D02*
X132755714Y-88783390D01*
X132755714Y-88783390D02*
X132708095Y-88831009D01*
X132708095Y-88831009D02*
X132612857Y-88878628D01*
X132612857Y-88878628D02*
X132231905Y-88878628D01*
X133660476Y-88688152D02*
X133660476Y-89354819D01*
X133422381Y-88307200D02*
X133184286Y-89021485D01*
X133184286Y-89021485D02*
X133803333Y-89021485D01*
X152987476Y-107749819D02*
X152987476Y-108464104D01*
X152987476Y-108464104D02*
X152939857Y-108606961D01*
X152939857Y-108606961D02*
X152844619Y-108702200D01*
X152844619Y-108702200D02*
X152701762Y-108749819D01*
X152701762Y-108749819D02*
X152606524Y-108749819D01*
X153987476Y-108749819D02*
X153416048Y-108749819D01*
X153701762Y-108749819D02*
X153701762Y-107749819D01*
X153701762Y-107749819D02*
X153606524Y-107892676D01*
X153606524Y-107892676D02*
X153511286Y-107987914D01*
X153511286Y-107987914D02*
X153416048Y-108035533D01*
X154844619Y-108083152D02*
X154844619Y-108749819D01*
X154606524Y-107702200D02*
X154368429Y-108416485D01*
X154368429Y-108416485D02*
X154987476Y-108416485D01*
X151954048Y-116185866D02*
X152715953Y-116185866D01*
X152335000Y-116566819D02*
X152335000Y-115804914D01*
X154875048Y-116185866D02*
X155636953Y-116185866D01*
X157807819Y-114934666D02*
X156807819Y-114934666D01*
X157284009Y-114934666D02*
X157284009Y-114363238D01*
X157807819Y-114363238D02*
X156807819Y-114363238D01*
X157760200Y-113506095D02*
X157807819Y-113601333D01*
X157807819Y-113601333D02*
X157807819Y-113791809D01*
X157807819Y-113791809D02*
X157760200Y-113887047D01*
X157760200Y-113887047D02*
X157664961Y-113934666D01*
X157664961Y-113934666D02*
X157284009Y-113934666D01*
X157284009Y-113934666D02*
X157188771Y-113887047D01*
X157188771Y-113887047D02*
X157141152Y-113791809D01*
X157141152Y-113791809D02*
X157141152Y-113601333D01*
X157141152Y-113601333D02*
X157188771Y-113506095D01*
X157188771Y-113506095D02*
X157284009Y-113458476D01*
X157284009Y-113458476D02*
X157379247Y-113458476D01*
X157379247Y-113458476D02*
X157474485Y-113934666D01*
X157807819Y-112601333D02*
X157284009Y-112601333D01*
X157284009Y-112601333D02*
X157188771Y-112648952D01*
X157188771Y-112648952D02*
X157141152Y-112744190D01*
X157141152Y-112744190D02*
X157141152Y-112934666D01*
X157141152Y-112934666D02*
X157188771Y-113029904D01*
X157760200Y-112601333D02*
X157807819Y-112696571D01*
X157807819Y-112696571D02*
X157807819Y-112934666D01*
X157807819Y-112934666D02*
X157760200Y-113029904D01*
X157760200Y-113029904D02*
X157664961Y-113077523D01*
X157664961Y-113077523D02*
X157569723Y-113077523D01*
X157569723Y-113077523D02*
X157474485Y-113029904D01*
X157474485Y-113029904D02*
X157426866Y-112934666D01*
X157426866Y-112934666D02*
X157426866Y-112696571D01*
X157426866Y-112696571D02*
X157379247Y-112601333D01*
X157141152Y-112267999D02*
X157141152Y-111887047D01*
X156807819Y-112125142D02*
X157664961Y-112125142D01*
X157664961Y-112125142D02*
X157760200Y-112077523D01*
X157760200Y-112077523D02*
X157807819Y-111982285D01*
X157807819Y-111982285D02*
X157807819Y-111887047D01*
X157760200Y-111172761D02*
X157807819Y-111267999D01*
X157807819Y-111267999D02*
X157807819Y-111458475D01*
X157807819Y-111458475D02*
X157760200Y-111553713D01*
X157760200Y-111553713D02*
X157664961Y-111601332D01*
X157664961Y-111601332D02*
X157284009Y-111601332D01*
X157284009Y-111601332D02*
X157188771Y-111553713D01*
X157188771Y-111553713D02*
X157141152Y-111458475D01*
X157141152Y-111458475D02*
X157141152Y-111267999D01*
X157141152Y-111267999D02*
X157188771Y-111172761D01*
X157188771Y-111172761D02*
X157284009Y-111125142D01*
X157284009Y-111125142D02*
X157379247Y-111125142D01*
X157379247Y-111125142D02*
X157474485Y-111601332D01*
X157807819Y-110696570D02*
X157141152Y-110696570D01*
X157331628Y-110696570D02*
X157236390Y-110648951D01*
X157236390Y-110648951D02*
X157188771Y-110601332D01*
X157188771Y-110601332D02*
X157141152Y-110506094D01*
X157141152Y-110506094D02*
X157141152Y-110410856D01*
X156903057Y-110125141D02*
X156855438Y-110077522D01*
X156855438Y-110077522D02*
X156807819Y-109982284D01*
X156807819Y-109982284D02*
X156807819Y-109744189D01*
X156807819Y-109744189D02*
X156855438Y-109648951D01*
X156855438Y-109648951D02*
X156903057Y-109601332D01*
X156903057Y-109601332D02*
X156998295Y-109553713D01*
X156998295Y-109553713D02*
X157093533Y-109553713D01*
X157093533Y-109553713D02*
X157236390Y-109601332D01*
X157236390Y-109601332D02*
X157807819Y-110172760D01*
X157807819Y-110172760D02*
X157807819Y-109553713D01*
X141978142Y-135964819D02*
X141644809Y-135488628D01*
X141406714Y-135964819D02*
X141406714Y-134964819D01*
X141406714Y-134964819D02*
X141787666Y-134964819D01*
X141787666Y-134964819D02*
X141882904Y-135012438D01*
X141882904Y-135012438D02*
X141930523Y-135060057D01*
X141930523Y-135060057D02*
X141978142Y-135155295D01*
X141978142Y-135155295D02*
X141978142Y-135298152D01*
X141978142Y-135298152D02*
X141930523Y-135393390D01*
X141930523Y-135393390D02*
X141882904Y-135441009D01*
X141882904Y-135441009D02*
X141787666Y-135488628D01*
X141787666Y-135488628D02*
X141406714Y-135488628D01*
X142930523Y-135964819D02*
X142359095Y-135964819D01*
X142644809Y-135964819D02*
X142644809Y-134964819D01*
X142644809Y-134964819D02*
X142549571Y-135107676D01*
X142549571Y-135107676D02*
X142454333Y-135202914D01*
X142454333Y-135202914D02*
X142359095Y-135250533D01*
X143549571Y-134964819D02*
X143644809Y-134964819D01*
X143644809Y-134964819D02*
X143740047Y-135012438D01*
X143740047Y-135012438D02*
X143787666Y-135060057D01*
X143787666Y-135060057D02*
X143835285Y-135155295D01*
X143835285Y-135155295D02*
X143882904Y-135345771D01*
X143882904Y-135345771D02*
X143882904Y-135583866D01*
X143882904Y-135583866D02*
X143835285Y-135774342D01*
X143835285Y-135774342D02*
X143787666Y-135869580D01*
X143787666Y-135869580D02*
X143740047Y-135917200D01*
X143740047Y-135917200D02*
X143644809Y-135964819D01*
X143644809Y-135964819D02*
X143549571Y-135964819D01*
X143549571Y-135964819D02*
X143454333Y-135917200D01*
X143454333Y-135917200D02*
X143406714Y-135869580D01*
X143406714Y-135869580D02*
X143359095Y-135774342D01*
X143359095Y-135774342D02*
X143311476Y-135583866D01*
X143311476Y-135583866D02*
X143311476Y-135345771D01*
X143311476Y-135345771D02*
X143359095Y-135155295D01*
X143359095Y-135155295D02*
X143406714Y-135060057D01*
X143406714Y-135060057D02*
X143454333Y-135012438D01*
X143454333Y-135012438D02*
X143549571Y-134964819D01*
D12*
G04 #@! TO.C,J11*
X129513000Y-124149000D02*
G75*
G02*
X129313000Y-124149000I-100000J0D01*
G01*
X129313000Y-124149000D02*
G75*
G02*
X129513000Y-124149000I100000J0D01*
G01*
D13*
X124913000Y-139099000D02*
X124913000Y-124799000D01*
X133913000Y-139099000D02*
X124913000Y-139099000D01*
X133913000Y-139099000D02*
X133913000Y-130469000D01*
X133913000Y-124799000D02*
X133913000Y-126229000D01*
X131533000Y-124799000D02*
X133913000Y-124799000D01*
X124913000Y-124799000D02*
X127293000Y-124799000D01*
D14*
G04 #@! TO.C,J2*
X125280000Y-78630000D02*
X125280000Y-89010000D01*
X125280000Y-80010000D02*
X126280000Y-80010000D01*
X125280000Y-80260000D02*
X126280000Y-80260000D01*
X125280000Y-87380000D02*
X126280000Y-87380000D01*
X125280000Y-89010000D02*
X131300000Y-89010000D01*
X126280000Y-80010000D02*
X126280000Y-87630000D01*
X126280000Y-80010000D02*
X126810000Y-80260000D01*
X126280000Y-87630000D02*
X125280000Y-87630000D01*
X126810000Y-80260000D02*
X126810000Y-87380000D01*
X126810000Y-87380000D02*
X126280000Y-87630000D01*
X130270000Y-78340000D02*
X126270000Y-78340000D01*
X130700000Y-79210000D02*
X130700000Y-80810000D01*
X130700000Y-80810000D02*
X131300000Y-80810000D01*
X130700000Y-81750000D02*
X130700000Y-83350000D01*
X130700000Y-83350000D02*
X131300000Y-83350000D01*
X130700000Y-84290000D02*
X130700000Y-85890000D01*
X130700000Y-85890000D02*
X131300000Y-85890000D01*
X130700000Y-86830000D02*
X130700000Y-88430000D01*
X130700000Y-88430000D02*
X131300000Y-88430000D01*
X131300000Y-78630000D02*
X125280000Y-78630000D01*
X131300000Y-79210000D02*
X130700000Y-79210000D01*
X131300000Y-81750000D02*
X130700000Y-81750000D01*
X131300000Y-84290000D02*
X130700000Y-84290000D01*
X131300000Y-86830000D02*
X130700000Y-86830000D01*
X131300000Y-89010000D02*
X131300000Y-78630000D01*
G04 #@! TO.C,R2*
X159792936Y-93245000D02*
X160247064Y-93245000D01*
X159792936Y-94715000D02*
X160247064Y-94715000D01*
G04 #@! TO.C,J7*
X125620000Y-94800000D02*
X125620000Y-100820000D01*
X125620000Y-100820000D02*
X130920000Y-100820000D01*
X126200000Y-100220000D02*
X126200000Y-100820000D01*
X127000000Y-95800000D02*
X127000000Y-94800000D01*
X127250000Y-94800000D02*
X127250000Y-95800000D01*
X127250000Y-96330000D02*
X127000000Y-95800000D01*
X127800000Y-100220000D02*
X126200000Y-100220000D01*
X127800000Y-100820000D02*
X127800000Y-100220000D01*
X128740000Y-100220000D02*
X128740000Y-100820000D01*
X129290000Y-94800000D02*
X129290000Y-95800000D01*
X129290000Y-96330000D02*
X127250000Y-96330000D01*
X129540000Y-94800000D02*
X129540000Y-95800000D01*
X129540000Y-95800000D02*
X127000000Y-95800000D01*
X129540000Y-95800000D02*
X129290000Y-96330000D01*
X130340000Y-100220000D02*
X128740000Y-100220000D01*
X130340000Y-100820000D02*
X130340000Y-100220000D01*
X130920000Y-94800000D02*
X125620000Y-94800000D01*
X130920000Y-100820000D02*
X130920000Y-94800000D01*
X131210000Y-99790000D02*
X131210000Y-95790000D01*
G04 #@! TO.C,J3*
X174810000Y-86250000D02*
X174810000Y-94090000D01*
X174810000Y-87630000D02*
X175810000Y-87630000D01*
X174810000Y-87880000D02*
X175810000Y-87880000D01*
X174810000Y-92460000D02*
X175810000Y-92460000D01*
X174810000Y-94090000D02*
X180830000Y-94090000D01*
X175810000Y-87630000D02*
X175810000Y-92710000D01*
X175810000Y-87630000D02*
X176340000Y-87880000D01*
X175810000Y-92710000D02*
X174810000Y-92710000D01*
X176340000Y-87880000D02*
X176340000Y-92460000D01*
X176340000Y-92460000D02*
X175810000Y-92710000D01*
X179800000Y-85960000D02*
X175800000Y-85960000D01*
X180230000Y-86830000D02*
X180230000Y-88430000D01*
X180230000Y-88430000D02*
X180830000Y-88430000D01*
X180230000Y-89370000D02*
X180230000Y-90970000D01*
X180230000Y-90970000D02*
X180830000Y-90970000D01*
X180230000Y-91910000D02*
X180230000Y-93510000D01*
X180230000Y-93510000D02*
X180830000Y-93510000D01*
X180830000Y-86250000D02*
X174810000Y-86250000D01*
X180830000Y-86830000D02*
X180230000Y-86830000D01*
X180830000Y-89370000D02*
X180230000Y-89370000D01*
X180830000Y-91910000D02*
X180230000Y-91910000D01*
X180830000Y-94090000D02*
X180830000Y-86250000D01*
G04 #@! TO.C,C1*
X109191248Y-70385000D02*
X109713752Y-70385000D01*
X109191248Y-71855000D02*
X109713752Y-71855000D01*
G04 #@! TO.C,R1*
X116375000Y-71347064D02*
X116375000Y-70892936D01*
X117845000Y-71347064D02*
X117845000Y-70892936D01*
G04 #@! TO.C,D1*
X108470284Y-106985000D02*
G75*
G02*
X108528364Y-110260386I2154716J-1600000D01*
G01*
G04 #@! TO.C,J10*
X164700000Y-78010000D02*
X164700000Y-82010000D01*
X164990000Y-76980000D02*
X164990000Y-83000000D01*
X164990000Y-83000000D02*
X170290000Y-83000000D01*
X165570000Y-76980000D02*
X165570000Y-77580000D01*
X165570000Y-77580000D02*
X167170000Y-77580000D01*
X166370000Y-82000000D02*
X166620000Y-81470000D01*
X166370000Y-82000000D02*
X168910000Y-82000000D01*
X166370000Y-83000000D02*
X166370000Y-82000000D01*
X166620000Y-81470000D02*
X168660000Y-81470000D01*
X166620000Y-83000000D02*
X166620000Y-82000000D01*
X167170000Y-77580000D02*
X167170000Y-76980000D01*
X168110000Y-76980000D02*
X168110000Y-77580000D01*
X168110000Y-77580000D02*
X169710000Y-77580000D01*
X168660000Y-81470000D02*
X168910000Y-82000000D01*
X168660000Y-83000000D02*
X168660000Y-82000000D01*
X168910000Y-82000000D02*
X168910000Y-83000000D01*
X169710000Y-77580000D02*
X169710000Y-76980000D01*
X170290000Y-76980000D02*
X164990000Y-76980000D01*
X170290000Y-83000000D02*
X170290000Y-76980000D01*
G04 #@! TO.C,R5*
X145315000Y-94207064D02*
X145315000Y-93752936D01*
X146785000Y-94207064D02*
X146785000Y-93752936D01*
G04 #@! TO.C,C6*
X130548748Y-116994000D02*
X131071252Y-116994000D01*
X130548748Y-118464000D02*
X131071252Y-118464000D01*
G04 #@! TO.C,J6*
X164700000Y-88170000D02*
X164700000Y-92170000D01*
X164990000Y-87140000D02*
X164990000Y-93160000D01*
X164990000Y-93160000D02*
X170290000Y-93160000D01*
X165570000Y-87140000D02*
X165570000Y-87740000D01*
X165570000Y-87740000D02*
X167170000Y-87740000D01*
X166370000Y-92160000D02*
X166620000Y-91630000D01*
X166370000Y-92160000D02*
X168910000Y-92160000D01*
X166370000Y-93160000D02*
X166370000Y-92160000D01*
X166620000Y-91630000D02*
X168660000Y-91630000D01*
X166620000Y-93160000D02*
X166620000Y-92160000D01*
X167170000Y-87740000D02*
X167170000Y-87140000D01*
X168110000Y-87140000D02*
X168110000Y-87740000D01*
X168110000Y-87740000D02*
X169710000Y-87740000D01*
X168660000Y-91630000D02*
X168910000Y-92160000D01*
X168660000Y-93160000D02*
X168660000Y-92160000D01*
X168910000Y-92160000D02*
X168910000Y-93160000D01*
X169710000Y-87740000D02*
X169710000Y-87140000D01*
X170290000Y-87140000D02*
X164990000Y-87140000D01*
X170290000Y-93160000D02*
X170290000Y-87140000D01*
G04 #@! TO.C,L1*
X108846252Y-114225000D02*
X108323748Y-114225000D01*
X108846252Y-115645000D02*
X108323748Y-115645000D01*
G04 #@! TO.C,R11*
X143409936Y-131726000D02*
X143864064Y-131726000D01*
X143409936Y-133196000D02*
X143864064Y-133196000D01*
G04 #@! TO.C,J4*
X173520000Y-74820000D02*
X173520000Y-82660000D01*
X173520000Y-76200000D02*
X174520000Y-76200000D01*
X173520000Y-76450000D02*
X174520000Y-76450000D01*
X173520000Y-81030000D02*
X174520000Y-81030000D01*
X173520000Y-82660000D02*
X179540000Y-82660000D01*
X174520000Y-76200000D02*
X174520000Y-81280000D01*
X174520000Y-76200000D02*
X175050000Y-76450000D01*
X174520000Y-81280000D02*
X173520000Y-81280000D01*
X175050000Y-76450000D02*
X175050000Y-81030000D01*
X175050000Y-81030000D02*
X174520000Y-81280000D01*
X178510000Y-74530000D02*
X174510000Y-74530000D01*
X178940000Y-75400000D02*
X178940000Y-77000000D01*
X178940000Y-77000000D02*
X179540000Y-77000000D01*
X178940000Y-77940000D02*
X178940000Y-79540000D01*
X178940000Y-79540000D02*
X179540000Y-79540000D01*
X178940000Y-80480000D02*
X178940000Y-82080000D01*
X178940000Y-82080000D02*
X179540000Y-82080000D01*
X179540000Y-74820000D02*
X173520000Y-74820000D01*
X179540000Y-75400000D02*
X178940000Y-75400000D01*
X179540000Y-77940000D02*
X178940000Y-77940000D01*
X179540000Y-80480000D02*
X178940000Y-80480000D01*
X179540000Y-82660000D02*
X179540000Y-74820000D01*
G04 #@! TO.C,J8*
X125280000Y-71010000D02*
X125280000Y-76310000D01*
X125280000Y-72390000D02*
X126280000Y-72390000D01*
X125280000Y-72640000D02*
X126280000Y-72640000D01*
X125280000Y-74680000D02*
X126280000Y-74680000D01*
X125280000Y-76310000D02*
X131300000Y-76310000D01*
X126280000Y-72390000D02*
X126280000Y-74930000D01*
X126280000Y-72390000D02*
X126810000Y-72640000D01*
X126280000Y-74930000D02*
X125280000Y-74930000D01*
X126810000Y-72640000D02*
X126810000Y-74680000D01*
X126810000Y-74680000D02*
X126280000Y-74930000D01*
X130270000Y-70720000D02*
X126270000Y-70720000D01*
X130700000Y-71590000D02*
X130700000Y-73190000D01*
X130700000Y-73190000D02*
X131300000Y-73190000D01*
X130700000Y-74130000D02*
X130700000Y-75730000D01*
X130700000Y-75730000D02*
X131300000Y-75730000D01*
X131300000Y-71010000D02*
X125280000Y-71010000D01*
X131300000Y-71590000D02*
X130700000Y-71590000D01*
X131300000Y-74130000D02*
X130700000Y-74130000D01*
X131300000Y-76310000D02*
X131300000Y-71010000D01*
G04 #@! TO.C,R7*
X140235000Y-94207064D02*
X140235000Y-93752936D01*
X141705000Y-94207064D02*
X141705000Y-93752936D01*
G04 #@! TO.C,R9*
X159792936Y-78005000D02*
X160247064Y-78005000D01*
X159792936Y-79475000D02*
X160247064Y-79475000D01*
G04 #@! TO.C,U1*
X137070000Y-58430000D02*
X137070000Y-64590000D01*
X137070000Y-58430000D02*
X155310000Y-58430000D01*
X137070000Y-83390000D02*
X137070000Y-84170000D01*
X137070000Y-84170000D02*
X138070000Y-84170000D01*
X155310000Y-58430000D02*
X155310000Y-64845000D01*
X155310000Y-83390000D02*
X155310000Y-84170000D01*
X155310000Y-84170000D02*
X154310000Y-84170000D01*
X137065000Y-65315000D02*
X136565000Y-65315000D01*
X137065000Y-64815000D01*
X137065000Y-65315000D01*
G36*
X137065000Y-65315000D02*
G01*
X136565000Y-65315000D01*
X137065000Y-64815000D01*
X137065000Y-65315000D01*
G37*
G04 #@! TO.C,J5*
X137050000Y-98610000D02*
X137050000Y-104630000D01*
X137050000Y-104630000D02*
X147430000Y-104630000D01*
X137630000Y-104030000D02*
X137630000Y-104630000D01*
X138430000Y-99610000D02*
X138430000Y-98610000D01*
X138680000Y-98610000D02*
X138680000Y-99610000D01*
X138680000Y-100140000D02*
X138430000Y-99610000D01*
X139230000Y-104030000D02*
X137630000Y-104030000D01*
X139230000Y-104630000D02*
X139230000Y-104030000D01*
X140170000Y-104030000D02*
X140170000Y-104630000D01*
X141770000Y-104030000D02*
X140170000Y-104030000D01*
X141770000Y-104630000D02*
X141770000Y-104030000D01*
X142710000Y-104030000D02*
X142710000Y-104630000D01*
X144310000Y-104030000D02*
X142710000Y-104030000D01*
X144310000Y-104630000D02*
X144310000Y-104030000D01*
X145250000Y-104030000D02*
X145250000Y-104630000D01*
X145800000Y-98610000D02*
X145800000Y-99610000D01*
X145800000Y-100140000D02*
X138680000Y-100140000D01*
X146050000Y-98610000D02*
X146050000Y-99610000D01*
X146050000Y-99610000D02*
X138430000Y-99610000D01*
X146050000Y-99610000D02*
X145800000Y-100140000D01*
X146850000Y-104030000D02*
X145250000Y-104030000D01*
X146850000Y-104630000D02*
X146850000Y-104030000D01*
X147430000Y-98610000D02*
X137050000Y-98610000D01*
X147430000Y-104630000D02*
X147430000Y-98610000D01*
X147720000Y-103600000D02*
X147720000Y-99600000D01*
G04 #@! TO.C,R8*
X137695000Y-94207064D02*
X137695000Y-93752936D01*
X139165000Y-94207064D02*
X139165000Y-93752936D01*
D15*
G04 #@! TO.C,U3*
X151358600Y-130911600D02*
X151358600Y-135559800D01*
X151358600Y-135559800D02*
X161823400Y-135559800D01*
X151485600Y-132181600D02*
X161696400Y-132181600D01*
X161823400Y-130911600D02*
X151358600Y-130911600D01*
X161823400Y-135559800D02*
X161823400Y-130911600D01*
X149783800Y-133858000D02*
G75*
G02*
X149377400Y-133858000I-203200J0D01*
G01*
X149377400Y-133858000D02*
G75*
G02*
X149783800Y-133858000I203200J0D01*
G01*
D14*
G04 #@! TO.C,C3*
X153408748Y-102135000D02*
X153931252Y-102135000D01*
X153408748Y-103605000D02*
X153931252Y-103605000D01*
G04 #@! TO.C,J13*
X152889000Y-120682000D02*
X152889000Y-124682000D01*
X153179000Y-119652000D02*
X153179000Y-125672000D01*
X153179000Y-125672000D02*
X158479000Y-125672000D01*
X153759000Y-119652000D02*
X153759000Y-120252000D01*
X153759000Y-120252000D02*
X155359000Y-120252000D01*
X154559000Y-124672000D02*
X154809000Y-124142000D01*
X154559000Y-124672000D02*
X157099000Y-124672000D01*
X154559000Y-125672000D02*
X154559000Y-124672000D01*
X154809000Y-124142000D02*
X156849000Y-124142000D01*
X154809000Y-125672000D02*
X154809000Y-124672000D01*
X155359000Y-120252000D02*
X155359000Y-119652000D01*
X156299000Y-119652000D02*
X156299000Y-120252000D01*
X156299000Y-120252000D02*
X157899000Y-120252000D01*
X156849000Y-124142000D02*
X157099000Y-124672000D01*
X156849000Y-125672000D02*
X156849000Y-124672000D01*
X157099000Y-124672000D02*
X157099000Y-125672000D01*
X157899000Y-120252000D02*
X157899000Y-119652000D01*
X158479000Y-119652000D02*
X153179000Y-119652000D01*
X158479000Y-125672000D02*
X158479000Y-119652000D01*
G04 #@! TO.C,R3*
X159792936Y-83085000D02*
X160247064Y-83085000D01*
X159792936Y-84555000D02*
X160247064Y-84555000D01*
G04 #@! TO.C,C5*
X116705748Y-112295000D02*
X117228252Y-112295000D01*
X116705748Y-113765000D02*
X117228252Y-113765000D01*
G04 #@! TO.C,R6*
X142775000Y-94207064D02*
X142775000Y-93752936D01*
X144245000Y-94207064D02*
X144245000Y-93752936D01*
G04 #@! TO.C,C4*
X130675748Y-121058000D02*
X131198252Y-121058000D01*
X130675748Y-122528000D02*
X131198252Y-122528000D01*
G04 #@! TO.C,C2*
X109191248Y-74195000D02*
X109713752Y-74195000D01*
X109191248Y-75665000D02*
X109713752Y-75665000D01*
G04 #@! TO.C,J9*
X150730000Y-93250000D02*
X150730000Y-97250000D01*
X151020000Y-92220000D02*
X151020000Y-98240000D01*
X151020000Y-98240000D02*
X156320000Y-98240000D01*
X151600000Y-92220000D02*
X151600000Y-92820000D01*
X151600000Y-92820000D02*
X153200000Y-92820000D01*
X152400000Y-97240000D02*
X152650000Y-96710000D01*
X152400000Y-97240000D02*
X154940000Y-97240000D01*
X152400000Y-98240000D02*
X152400000Y-97240000D01*
X152650000Y-96710000D02*
X154690000Y-96710000D01*
X152650000Y-98240000D02*
X152650000Y-97240000D01*
X153200000Y-92820000D02*
X153200000Y-92220000D01*
X154140000Y-92220000D02*
X154140000Y-92820000D01*
X154140000Y-92820000D02*
X155740000Y-92820000D01*
X154690000Y-96710000D02*
X154940000Y-97240000D01*
X154690000Y-98240000D02*
X154690000Y-97240000D01*
X154940000Y-97240000D02*
X154940000Y-98240000D01*
X155740000Y-92820000D02*
X155740000Y-92220000D01*
X156320000Y-92220000D02*
X151020000Y-92220000D01*
X156320000Y-98240000D02*
X156320000Y-92220000D01*
G04 #@! TO.C,D2*
X147332284Y-125019000D02*
G75*
G02*
X147390364Y-128294386I2154716J-1600000D01*
G01*
G04 #@! TO.C,U2*
X113411000Y-122535000D02*
X111461000Y-122535000D01*
X113411000Y-122535000D02*
X115361000Y-122535000D01*
X113411000Y-127655000D02*
X111461000Y-127655000D01*
X113411000Y-127655000D02*
X115361000Y-127655000D01*
X110711000Y-122630000D02*
X110471000Y-122300000D01*
X110951000Y-122300000D01*
X110711000Y-122630000D01*
G36*
X110711000Y-122630000D02*
G01*
X110471000Y-122300000D01*
X110951000Y-122300000D01*
X110711000Y-122630000D01*
G37*
G04 #@! TO.C,J1*
X164630000Y-65930000D02*
X164630000Y-73770000D01*
X164630000Y-67310000D02*
X165630000Y-67310000D01*
X164630000Y-67560000D02*
X165630000Y-67560000D01*
X164630000Y-72140000D02*
X165630000Y-72140000D01*
X164630000Y-73770000D02*
X170650000Y-73770000D01*
X165630000Y-67310000D02*
X165630000Y-72390000D01*
X165630000Y-67310000D02*
X166160000Y-67560000D01*
X165630000Y-72390000D02*
X164630000Y-72390000D01*
X166160000Y-67560000D02*
X166160000Y-72140000D01*
X166160000Y-72140000D02*
X165630000Y-72390000D01*
X169620000Y-65640000D02*
X165620000Y-65640000D01*
X170050000Y-66510000D02*
X170050000Y-68110000D01*
X170050000Y-68110000D02*
X170650000Y-68110000D01*
X170050000Y-69050000D02*
X170050000Y-70650000D01*
X170050000Y-70650000D02*
X170650000Y-70650000D01*
X170050000Y-71590000D02*
X170050000Y-73190000D01*
X170050000Y-73190000D02*
X170650000Y-73190000D01*
X170650000Y-65930000D02*
X164630000Y-65930000D01*
X170650000Y-66510000D02*
X170050000Y-66510000D01*
X170650000Y-69050000D02*
X170050000Y-69050000D01*
X170650000Y-71590000D02*
X170050000Y-71590000D01*
X170650000Y-73770000D02*
X170650000Y-65930000D01*
G04 #@! TO.C,R4*
X133885000Y-91667064D02*
X133885000Y-91212936D01*
X135355000Y-91667064D02*
X135355000Y-91212936D01*
G04 #@! TO.C,J14*
X150857000Y-110415000D02*
X150857000Y-114415000D01*
X151147000Y-109385000D02*
X151147000Y-115405000D01*
X151147000Y-115405000D02*
X156447000Y-115405000D01*
X151727000Y-109385000D02*
X151727000Y-109985000D01*
X151727000Y-109985000D02*
X153327000Y-109985000D01*
X152527000Y-114405000D02*
X152777000Y-113875000D01*
X152527000Y-114405000D02*
X155067000Y-114405000D01*
X152527000Y-115405000D02*
X152527000Y-114405000D01*
X152777000Y-113875000D02*
X154817000Y-113875000D01*
X152777000Y-115405000D02*
X152777000Y-114405000D01*
X153327000Y-109985000D02*
X153327000Y-109385000D01*
X154267000Y-109385000D02*
X154267000Y-109985000D01*
X154267000Y-109985000D02*
X155867000Y-109985000D01*
X154817000Y-113875000D02*
X155067000Y-114405000D01*
X154817000Y-115405000D02*
X154817000Y-114405000D01*
X155067000Y-114405000D02*
X155067000Y-115405000D01*
X155867000Y-109985000D02*
X155867000Y-109385000D01*
X156447000Y-109385000D02*
X151147000Y-109385000D01*
X156447000Y-115405000D02*
X156447000Y-109385000D01*
G04 #@! TO.C,R10*
X142393936Y-136425000D02*
X142848064Y-136425000D01*
X142393936Y-137895000D02*
X142848064Y-137895000D01*
G04 #@! TD*
M02*
