G04 #@! TF.GenerationSoftware,KiCad,Pcbnew,9.0.0*
G04 #@! TF.CreationDate,2025-03-03T16:58:55-06:00*
G04 #@! TF.ProjectId,Group52HeatedBridge,47726f75-7035-4324-9865-617465644272,rev?*
G04 #@! TF.SameCoordinates,Original*
G04 #@! TF.FileFunction,Copper,L2,Bot*
G04 #@! TF.FilePolarity,Positive*
%FSLAX46Y46*%
G04 Gerber Fmt 4.6, Leading zero omitted, Abs format (unit mm)*
G04 Created by KiCad (PCBNEW 9.0.0) date 2025-03-03 16:58:55*
%MOMM*%
%LPD*%
G01*
G04 APERTURE LIST*
G04 Aperture macros list*
%AMRoundRect*
0 Rectangle with rounded corners*
0 $1 Rounding radius*
0 $2 $3 $4 $5 $6 $7 $8 $9 X,Y pos of 4 corners*
0 Add a 4 corners polygon primitive as box body*
4,1,4,$2,$3,$4,$5,$6,$7,$8,$9,$2,$3,0*
0 Add four circle primitives for the rounded corners*
1,1,$1+$1,$2,$3*
1,1,$1+$1,$4,$5*
1,1,$1+$1,$6,$7*
1,1,$1+$1,$8,$9*
0 Add four rect primitives between the rounded corners*
20,1,$1+$1,$2,$3,$4,$5,0*
20,1,$1+$1,$4,$5,$6,$7,0*
20,1,$1+$1,$6,$7,$8,$9,0*
20,1,$1+$1,$8,$9,$2,$3,0*%
G04 Aperture macros list end*
G04 #@! TA.AperFunction,ComponentPad*
%ADD10O,1.400000X3.600000*%
G04 #@! TD*
G04 #@! TA.AperFunction,ComponentPad*
%ADD11O,3.600000X1.400000*%
G04 #@! TD*
G04 #@! TA.AperFunction,ComponentPad*
%ADD12RoundRect,0.250000X-0.845000X0.620000X-0.845000X-0.620000X0.845000X-0.620000X0.845000X0.620000X0*%
G04 #@! TD*
G04 #@! TA.AperFunction,ComponentPad*
%ADD13O,2.190000X1.740000*%
G04 #@! TD*
G04 #@! TA.AperFunction,ComponentPad*
%ADD14RoundRect,0.250000X0.620000X0.845000X-0.620000X0.845000X-0.620000X-0.845000X0.620000X-0.845000X0*%
G04 #@! TD*
G04 #@! TA.AperFunction,ComponentPad*
%ADD15O,1.740000X2.190000*%
G04 #@! TD*
G04 #@! TA.AperFunction,ComponentPad*
%ADD16R,3.200000X3.200000*%
G04 #@! TD*
G04 #@! TA.AperFunction,ComponentPad*
%ADD17O,3.200000X3.200000*%
G04 #@! TD*
G04 #@! TA.AperFunction,ComponentPad*
%ADD18RoundRect,0.250000X-0.620000X-0.845000X0.620000X-0.845000X0.620000X0.845000X-0.620000X0.845000X0*%
G04 #@! TD*
G04 #@! TA.AperFunction,ComponentPad*
%ADD19R,1.625600X1.625600*%
G04 #@! TD*
G04 #@! TA.AperFunction,ComponentPad*
%ADD20C,1.625600*%
G04 #@! TD*
G04 #@! TA.AperFunction,ViaPad*
%ADD21C,0.800000*%
G04 #@! TD*
G04 #@! TA.AperFunction,Conductor*
%ADD22C,0.254000*%
G04 #@! TD*
G04 APERTURE END LIST*
D10*
G04 #@! TO.P,J11,C*
G04 #@! TO.N,unconnected-(J11-PadC)*
X134213000Y-128349000D03*
D11*
G04 #@! TO.P,J11,B*
G04 #@! TO.N,GND*
X129413000Y-131599000D03*
G04 #@! TO.P,J11,A*
G04 #@! TO.N,+24V*
X129413000Y-125349000D03*
G04 #@! TD*
D12*
G04 #@! TO.P,J2,1,Pin_1*
G04 #@! TO.N,+3.3V*
X128270000Y-80010000D03*
D13*
G04 #@! TO.P,J2,2,Pin_2*
G04 #@! TO.N,/DigitalRain*
X128270000Y-82550000D03*
G04 #@! TO.P,J2,3,Pin_3*
G04 #@! TO.N,/AnalogRain*
X128270000Y-85090000D03*
G04 #@! TO.P,J2,4,Pin_4*
G04 #@! TO.N,GND*
X128270000Y-87630000D03*
G04 #@! TD*
D14*
G04 #@! TO.P,J7,1,Pin_1*
G04 #@! TO.N,Net-(J7-Pin_1)*
X129540000Y-97790000D03*
D15*
G04 #@! TO.P,J7,2,Pin_2*
G04 #@! TO.N,GND*
X127000000Y-97790000D03*
G04 #@! TD*
D12*
G04 #@! TO.P,J3,1,Pin_1*
G04 #@! TO.N,+3.3V*
X177800000Y-87630000D03*
D13*
G04 #@! TO.P,J3,2,Pin_2*
G04 #@! TO.N,/GPIOTempSurface*
X177800000Y-90170000D03*
G04 #@! TO.P,J3,3,Pin_3*
G04 #@! TO.N,GND*
X177800000Y-92710000D03*
G04 #@! TD*
D16*
G04 #@! TO.P,D1,1,K*
G04 #@! TO.N,Net-(D1-K)*
X106815000Y-108585000D03*
D17*
G04 #@! TO.P,D1,2,A*
G04 #@! TO.N,GND*
X110625000Y-108585000D03*
G04 #@! TD*
D18*
G04 #@! TO.P,J10,1,Pin_1*
G04 #@! TO.N,Net-(J10-Pin_1)*
X166370000Y-80010000D03*
D15*
G04 #@! TO.P,J10,2,Pin_2*
G04 #@! TO.N,GND*
X168910000Y-80010000D03*
G04 #@! TD*
D18*
G04 #@! TO.P,J6,1,Pin_1*
G04 #@! TO.N,Net-(J6-Pin_1)*
X166370000Y-90170000D03*
D15*
G04 #@! TO.P,J6,2,Pin_2*
G04 #@! TO.N,GND*
X168910000Y-90170000D03*
G04 #@! TD*
D12*
G04 #@! TO.P,J4,1,Pin_1*
G04 #@! TO.N,+3.3V*
X176510000Y-76200000D03*
D13*
G04 #@! TO.P,J4,2,Pin_2*
G04 #@! TO.N,/GPIOTempAir*
X176510000Y-78740000D03*
G04 #@! TO.P,J4,3,Pin_3*
G04 #@! TO.N,GND*
X176510000Y-81280000D03*
G04 #@! TD*
D12*
G04 #@! TO.P,J8,1,Pin_1*
G04 #@! TO.N,GND*
X128270000Y-72390000D03*
D13*
G04 #@! TO.P,J8,2,Pin_2*
G04 #@! TO.N,/EN*
X128270000Y-74930000D03*
G04 #@! TD*
D14*
G04 #@! TO.P,J5,1,Pin_1*
G04 #@! TO.N,/MTDO*
X146050000Y-101600000D03*
D15*
G04 #@! TO.P,J5,2,Pin_2*
G04 #@! TO.N,/MTCK*
X143510000Y-101600000D03*
G04 #@! TO.P,J5,3,Pin_3*
G04 #@! TO.N,/MTDI*
X140970000Y-101600000D03*
G04 #@! TO.P,J5,4,Pin_4*
G04 #@! TO.N,/MTMS*
X138430000Y-101600000D03*
G04 #@! TD*
D19*
G04 #@! TO.P,U3,1,G*
G04 #@! TO.N,Net-(U3-G)*
X154051000Y-133858000D03*
D20*
G04 #@! TO.P,U3,2,D*
G04 #@! TO.N,Net-(D2-A)*
X156591000Y-133858000D03*
G04 #@! TO.P,U3,3,S*
G04 #@! TO.N,GND*
X159131000Y-133858000D03*
G04 #@! TD*
D18*
G04 #@! TO.P,J13,1,Pin_1*
G04 #@! TO.N,+24V*
X154559000Y-122682000D03*
D15*
G04 #@! TO.P,J13,2,Pin_2*
G04 #@! TO.N,Net-(D2-A)*
X157099000Y-122682000D03*
G04 #@! TD*
D18*
G04 #@! TO.P,J9,1,Pin_1*
G04 #@! TO.N,/BOOT*
X152400000Y-95250000D03*
D15*
G04 #@! TO.P,J9,2,Pin_2*
G04 #@! TO.N,GND*
X154940000Y-95250000D03*
G04 #@! TD*
D16*
G04 #@! TO.P,D2,1,K*
G04 #@! TO.N,+24V*
X145677000Y-126619000D03*
D17*
G04 #@! TO.P,D2,2,A*
G04 #@! TO.N,Net-(D2-A)*
X149487000Y-126619000D03*
G04 #@! TD*
D12*
G04 #@! TO.P,J1,1,Pin_1*
G04 #@! TO.N,/TX*
X167620000Y-67310000D03*
D13*
G04 #@! TO.P,J1,2,Pin_2*
G04 #@! TO.N,/RX*
X167620000Y-69850000D03*
G04 #@! TO.P,J1,3,Pin_3*
G04 #@! TO.N,GND*
X167620000Y-72390000D03*
G04 #@! TD*
D18*
G04 #@! TO.P,J14,1,Pin_1*
G04 #@! TO.N,+24V*
X152527000Y-112415000D03*
D15*
G04 #@! TO.P,J14,2,Pin_2*
G04 #@! TO.N,Net-(D2-A)*
X155067000Y-112415000D03*
G04 #@! TD*
D21*
G04 #@! TO.N,GND*
X135513000Y-128397000D03*
X132080000Y-131572000D03*
X134620000Y-87630000D03*
X120015000Y-123289000D03*
X146304000Y-138811000D03*
X129540000Y-69850000D03*
X118110000Y-74930000D03*
X138430000Y-85090000D03*
X118618000Y-115316000D03*
X133350000Y-66040000D03*
X147320000Y-136017000D03*
G04 #@! TO.N,/MOSFETCONTROL*
X146050000Y-80645000D03*
X139700000Y-132207000D03*
G04 #@! TD*
D22*
G04 #@! TO.N,GND*
X135241000Y-129874812D02*
X135241000Y-128397000D01*
X133543812Y-131572000D02*
X135241000Y-129874812D01*
X132080000Y-131572000D02*
X133543812Y-131572000D01*
X135241000Y-128397000D02*
X135513000Y-128397000D01*
X135890000Y-87630000D02*
X138430000Y-85090000D01*
X147320000Y-136017000D02*
X147320000Y-137795000D01*
X171450000Y-81280000D02*
X176510000Y-81280000D01*
X170180000Y-80010000D02*
X171450000Y-81280000D01*
X147320000Y-137795000D02*
X146304000Y-138811000D01*
X171450000Y-92710000D02*
X168910000Y-90170000D01*
X134620000Y-87630000D02*
X135890000Y-87630000D01*
X163830000Y-95250000D02*
X168910000Y-90170000D01*
X129540000Y-69850000D02*
X133350000Y-66040000D01*
X127000000Y-90170000D02*
X127000000Y-97790000D01*
X127000000Y-73660000D02*
X126847000Y-73813000D01*
X168910000Y-78740000D02*
X167620000Y-77450000D01*
X128270000Y-87630000D02*
X128270000Y-88900000D01*
X177800000Y-92710000D02*
X171450000Y-92710000D01*
X126847000Y-86207000D02*
X128270000Y-87630000D01*
X176377000Y-91287000D02*
X177800000Y-92710000D01*
X168910000Y-80010000D02*
X168910000Y-78740000D01*
X167620000Y-77450000D02*
X167620000Y-72390000D01*
X128270000Y-72390000D02*
X127000000Y-73660000D01*
X154940000Y-95250000D02*
X163830000Y-95250000D01*
X176377000Y-81413000D02*
X176377000Y-91287000D01*
X125730000Y-74930000D02*
X127000000Y-73660000D01*
X168910000Y-80010000D02*
X170180000Y-80010000D01*
X118618000Y-121892000D02*
X118618000Y-115316000D01*
X118110000Y-74930000D02*
X125730000Y-74930000D01*
X128270000Y-88900000D02*
X127000000Y-90170000D01*
X120015000Y-123289000D02*
X118618000Y-121892000D01*
X176510000Y-81280000D02*
X176377000Y-81413000D01*
X126847000Y-73813000D02*
X126847000Y-86207000D01*
G04 #@! TO.N,/MOSFETCONTROL*
X146050000Y-80645000D02*
X139700000Y-86995000D01*
X139700000Y-86995000D02*
X139700000Y-132207000D01*
G04 #@! TD*
M02*
